<svg width="126" height="126" viewBox="0 0 126 126" fill="none" xmlns="http://www.w3.org/2000/svg">
<circle cx="63" cy="63" r="63" fill="#299B46"/>
<path d="M60.4429 52.6217L60.4157 52.5821L59.7809 51.7538C59.3543 51.2031 58.9237 50.6562 58.4892 50.113C58.376 49.9755 58.2425 49.8007 58.0156 49.6717C57.9031 49.6091 57.7788 49.5706 57.6506 49.5585C57.546 49.5489 57.4407 49.5489 57.336 49.5585L56.2938 49.6643C55.6007 49.7413 54.9082 49.8177 54.2162 49.9195C54.1967 49.9243 54.1795 49.9358 54.1675 49.9519C54.1555 49.968 54.1495 49.9878 54.1505 50.0079C54.1515 50.0279 54.1594 50.047 54.173 50.0619C54.1865 50.0767 54.2048 50.0864 54.2247 50.0892C54.9229 50.1238 55.62 50.1328 56.3182 50.1424L57.3609 50.1475C57.4301 50.1458 57.4993 50.1511 57.5675 50.1634C57.6128 50.171 57.6558 50.189 57.6931 50.216C57.7936 50.3005 57.8789 50.4015 57.9454 50.5147C58.3381 51.0884 58.7355 51.6599 59.1376 52.2291L59.7441 53.0778C59.7758 53.1163 59.8052 53.1564 59.8335 53.1972C58.4722 54.7774 58.8541 56.7917 58.8541 56.7917L63.0014 55.0122L67.1488 56.7917C67.1488 56.7917 67.5307 54.7774 66.1694 53.1972C66.1977 53.1564 66.2259 53.1163 66.2588 53.0778L66.8653 52.2291C67.267 51.6603 67.6644 51.0888 68.0574 50.5147C68.1239 50.4015 68.2093 50.3005 68.3098 50.216C68.347 50.189 68.39 50.171 68.4354 50.1634C68.5035 50.1511 68.5727 50.1458 68.6419 50.1475L69.6847 50.1424C70.3818 50.1328 71.0788 50.1238 71.7782 50.0892C71.7981 50.0864 71.8163 50.0767 71.8299 50.0619C71.8434 50.047 71.8514 50.0279 71.8524 50.0079C71.8534 49.9878 71.8474 49.968 71.8354 49.9519C71.8234 49.9358 71.8062 49.9243 71.7867 49.9195C71.0947 49.8177 70.4021 49.7413 69.709 49.6643L68.6668 49.5585C68.5622 49.5489 68.4569 49.5489 68.3522 49.5585C68.2241 49.5706 68.0998 49.6091 67.9873 49.6717C67.761 49.8007 67.6274 49.9755 67.5137 50.113C67.0784 50.6584 66.6478 51.2054 66.222 51.7538L65.5871 52.5821C65.5781 52.5957 65.569 52.6087 65.5594 52.6217C64.9523 52.1499 64.1257 51.7589 63.0026 51.5377C61.8772 51.7583 61.0505 52.1493 60.4429 52.6217Z" fill="#002F47"/>
<path d="M62.9994 73.3826L63.6783 73.9586C63.8994 74.1455 64.1822 74.2433 64.4715 74.2328C64.7608 74.2223 65.0358 74.1044 65.2428 73.902L68.3394 70.8744C69.1627 70.0678 69.6823 69.0018 69.8105 67.8564C69.9174 67.8519 70.017 67.8497 70.0934 67.8485H70.1851C70.3583 67.8479 70.5315 67.8586 70.7033 67.8808C70.8865 67.9022 71.0654 67.951 71.2341 68.0256C71.3996 68.0966 71.5525 68.1941 71.6867 68.3142C71.9277 68.5263 72.1569 68.8347 72.407 69.2845C72.4771 69.4062 72.5467 69.5318 72.6169 69.6602C72.7629 69.9244 72.9134 70.1977 73.0876 70.4665C73.3492 70.8624 73.6643 71.2201 74.024 71.5296C74.726 72.1413 75.5846 72.5453 76.5034 72.6963H76.5107C76.5225 72.6964 76.534 72.6923 76.543 72.6847C76.5521 72.677 76.558 72.6664 76.5599 72.6548C76.5617 72.6431 76.5593 72.6312 76.5531 72.6211C76.5469 72.6111 76.5373 72.6036 76.526 72.6001C75.7031 72.3029 74.9633 71.8132 74.368 71.172C74.0809 70.8599 73.8339 70.5132 73.6325 70.14C73.508 69.9092 73.3988 69.6664 73.2834 69.4096C73.2149 69.2568 73.1436 69.0978 73.0678 68.9394C72.8658 68.5263 72.6271 68.0907 72.2525 67.7156C71.913 67.3597 71.3868 67.0971 70.847 67.014C70.6038 66.974 70.358 66.9525 70.1115 66.9495C70.03 66.9495 69.948 66.9495 69.8682 66.9495H69.8456V64.1205L70.9302 63.2316L72.0205 62.3263C72.3872 62.0174 72.7114 61.7447 73.048 61.7311C73.2391 61.7255 73.4289 61.7642 73.6025 61.8443C73.8043 61.9335 73.9986 62.0387 74.1836 62.1589C74.5797 62.4073 74.9757 62.6641 75.3616 62.9306C76.1452 63.4517 76.8955 64.0209 77.6423 64.5997C77.6608 64.616 77.685 64.6243 77.7095 64.6227C77.7341 64.6212 77.757 64.61 77.7733 64.5915C77.7896 64.5731 77.7979 64.5489 77.7964 64.5243C77.7948 64.4998 77.7836 64.4768 77.7651 64.4605C77.4256 64.1261 77.0811 63.8003 76.7229 63.4874C76.3648 63.1745 76.0026 62.865 75.6315 62.5651C75.2603 62.2652 74.8784 61.9812 74.4914 61.7006C74.2884 61.5499 74.0726 61.4174 73.8464 61.3045C73.5934 61.1752 73.314 61.1061 73.0299 61.1025C72.8791 61.1034 72.7294 61.1273 72.5858 61.1733C72.451 61.2175 72.3212 61.2759 72.1988 61.3475C71.9851 61.48 71.7799 61.6257 71.5843 61.7838L70.4578 62.6466L69.8456 63.1173V62.0101C69.8456 61.0655 69.5782 60.1402 69.0744 59.3412L69.8043 58.4009C70.0674 58.058 70.2999 57.7553 70.5964 57.6783C70.7631 57.6355 70.9374 57.632 71.1056 57.6681C71.3004 57.7076 71.4917 57.7626 71.6777 57.8328C72.0737 57.9742 72.4698 58.1242 72.8658 58.2854C73.658 58.5921 74.4274 58.9474 75.1964 59.3129C75.2158 59.3237 75.2387 59.3264 75.2601 59.3203C75.2815 59.3142 75.2996 59.2998 75.3104 59.2804C75.3212 59.261 75.3238 59.238 75.3177 59.2166C75.3116 59.1953 75.2973 59.1772 75.2779 59.1664C74.9157 58.9401 74.5474 58.7177 74.1717 58.5117C73.796 58.3058 73.4169 58.1032 73.0327 57.9114C72.6486 57.7196 72.2565 57.5437 71.8615 57.3711C71.6538 57.2768 71.4382 57.2011 71.2171 57.1448C70.9694 57.0803 70.7101 57.0737 70.4595 57.1255C70.3269 57.1556 70.1997 57.2056 70.0821 57.2738C69.9721 57.3381 69.8693 57.414 69.7754 57.5001C69.6131 57.658 69.4608 57.8258 69.3194 58.0025L68.667 58.7765C68.387 58.445 68.065 58.1513 67.7091 57.903L64.2532 56.4194L63.4198 57.8486H62.5858L61.7523 56.4194L58.2964 57.903C57.9406 58.1513 57.6185 58.445 57.3385 58.7765L56.6861 58.0025C56.5447 57.8258 56.3924 57.658 56.2301 57.5001C56.1362 57.414 56.0334 57.3381 55.9234 57.2738C55.8058 57.2056 55.6786 57.1556 55.546 57.1255C55.2954 57.0737 55.0361 57.0803 54.7884 57.1448C54.5674 57.2011 54.3517 57.2768 54.144 57.3711C53.7479 57.5437 53.3587 57.7225 52.9728 57.9114C52.5869 58.1004 52.2084 58.3035 51.8338 58.5117C51.4593 58.72 51.0898 58.9372 50.7277 59.1664C50.7082 59.1772 50.6939 59.1953 50.6878 59.2166C50.6817 59.238 50.6843 59.261 50.6951 59.2804C50.7059 59.2998 50.724 59.3142 50.7454 59.3203C50.7668 59.3264 50.7897 59.3237 50.8091 59.3129C51.5781 58.9474 52.3493 58.5921 53.1397 58.2854C53.5318 58.1259 53.9284 57.9759 54.3279 57.8328C54.5138 57.7626 54.7051 57.7076 54.8999 57.6681C55.0681 57.632 55.2425 57.6355 55.4091 57.6783C55.7028 57.7553 55.9353 58.058 56.2012 58.4009L56.9311 59.3412C56.4273 60.1402 56.1599 61.0655 56.1599 62.0101V63.1173L55.5477 62.6415L54.4212 61.7787C54.2257 61.6206 54.0204 61.4749 53.8068 61.3424C53.6843 61.2709 53.5545 61.2124 53.4198 61.1682C53.2762 61.1222 53.1264 61.0983 52.9756 61.0974C52.6915 61.101 52.4121 61.1701 52.1591 61.2994C51.933 61.4123 51.7171 61.5448 51.5141 61.6955C51.1271 61.9761 50.7471 62.2643 50.374 62.56C50.001 62.8557 49.6372 63.1632 49.2826 63.4823C48.9245 63.7952 48.5776 64.1211 48.2404 64.4554C48.2219 64.4717 48.2107 64.4947 48.2092 64.5192C48.2076 64.5438 48.2159 64.568 48.2322 64.5864C48.2485 64.6049 48.2714 64.6161 48.296 64.6177C48.3205 64.6192 48.3447 64.6109 48.3632 64.5946C49.11 64.0158 49.8603 63.4466 50.6439 62.9255C51.0309 62.659 51.4247 62.4022 51.8219 62.1538C52.0069 62.0336 52.2012 61.9284 52.403 61.8392C52.5766 61.7591 52.7664 61.7204 52.9575 61.726C53.2941 61.7396 53.6184 62.0123 53.985 62.3213L55.0753 63.2265L56.1599 64.1154V66.9444H56.027C55.9466 66.9444 55.8646 66.9444 55.7831 66.9444C55.5367 66.9474 55.2908 66.969 55.0476 67.0089C54.5084 67.0921 53.9833 67.3546 53.6421 67.7116C53.2681 68.0867 53.0299 68.5213 52.8279 68.9337C52.7521 69.0927 52.6808 69.2511 52.6118 69.4045C52.4986 69.6613 52.3855 69.9041 52.2627 70.136C52.0612 70.5085 51.8141 70.8544 51.5271 71.1658C50.9313 71.808 50.1904 72.2982 49.3663 72.5956C49.3554 72.5994 49.3461 72.6071 49.3402 72.6172C49.3344 72.6273 49.3323 72.6391 49.3343 72.6506C49.3364 72.662 49.3424 72.6724 49.3514 72.6799C49.3603 72.6873 49.3717 72.6913 49.3833 72.6912H49.3912C50.3101 72.54 51.1686 72.1358 51.8706 71.5239C52.2302 71.215 52.5452 70.8576 52.8064 70.4619C52.9807 70.1926 53.1318 69.9193 53.2772 69.6551C53.3479 69.5267 53.4169 69.4011 53.4865 69.28C53.7377 68.8274 53.9669 68.5213 54.2074 68.3096C54.3415 68.1892 54.4944 68.0916 54.66 68.0205C54.8283 67.9459 55.0068 67.8971 55.1896 67.8757C55.3618 67.8536 55.5353 67.8428 55.709 67.8434H55.7933C55.8799 67.8434 55.9942 67.8474 56.1135 67.8525C56.1407 67.8525 56.1701 67.8525 56.1962 67.8559C56.3255 68.9996 56.845 70.0638 57.6672 70.8693L60.7639 73.8969C60.9709 74.0993 61.2459 74.2172 61.5352 74.2277C61.8245 74.2382 62.1073 74.1404 62.3283 73.9535L62.9994 73.3826ZM63.5148 61.5263H66.4626V64.4741H63.5148V61.5263ZM63.5148 65.505H66.4626V68.4528H63.5148V65.505ZM59.5361 61.5263H62.4839V64.4741H59.5361V61.5263ZM59.5361 68.4528V65.505H62.4839V68.4528H59.5361Z" fill="#002F47"/>
<path d="M83.7053 62.0058C83.4735 57.202 81.5791 52.6281 78.3463 49.0671C75.1136 45.5062 70.7436 43.1797 65.9844 42.4858V45.1615C74.5433 46.5884 81.0879 54.0445 81.0879 63.0016C81.0879 63.3354 81.0787 63.667 81.0602 63.9963H88.0003V62.0069L83.7053 62.0058Z" fill="white"/>
<path d="M62.9998 44.9123C63.3336 44.9123 63.6652 44.9225 63.9945 44.9401V43.5923V38H62.0051V42.2955C56.8552 42.5292 51.9805 44.6872 48.3455 48.3428C45.1403 51.5469 43.1152 55.6115 42.4844 60.0157H45.1595C46.5864 51.4575 54.0426 44.9123 62.9998 44.9123Z" fill="#002F47"/>
<path d="M44.9124 63C44.9124 62.6662 44.9217 62.3347 44.9401 62.0054H38V63.9941H42.295C42.5268 68.798 44.4213 73.3719 47.654 76.9328C50.8868 80.4938 55.2568 82.8203 60.016 83.5141V80.839C51.4576 79.4132 44.9124 71.9572 44.9124 63Z" fill="white"/>
<path d="M63.0005 81.0877C62.6667 81.0877 62.3352 81.0785 62.0059 81.06V88.0001H63.9952V83.7045C68.7991 83.473 73.3731 81.5787 76.9341 78.3461C80.4951 75.1134 82.8217 70.7435 83.5154 65.9844H80.8403C79.4139 74.5426 71.9578 81.0877 63.0005 81.0877Z" fill="#002F47"/>
<path d="M40.9631 60.0157C42.4257 49.1603 51.7496 40.7627 62.9995 40.7627C63.3327 40.7627 63.6643 40.7718 63.9941 40.7865V40.1251C63.6637 40.1109 63.3322 40.103 62.9995 40.103C56.8831 40.103 51.1334 42.4845 46.8084 46.8094C43.1964 50.4226 40.9394 55.031 40.2949 60.0157H40.9631Z" fill="#002F47"/>
<path d="M65.9836 40.9664C76.839 42.4262 85.2356 51.7505 85.2356 63.0003C85.2356 63.3335 85.2271 63.6651 85.2124 63.9949H85.8732C85.8874 63.6645 85.8959 63.3329 85.8959 63.0003C85.8959 56.884 83.5144 51.1338 79.1894 46.8094C75.5762 43.1962 70.9677 40.9404 65.9824 40.2954L65.9836 40.9664Z" fill="white"/>
<path d="M60.015 85.0361C49.1595 83.5735 40.763 74.2498 40.763 63C40.763 62.6662 40.7715 62.3352 40.7862 62.0054H40.1236C40.1101 62.3358 40.1016 62.6674 40.1016 63C40.1016 69.1157 42.483 74.8659 46.808 79.1909C50.4212 82.804 55.0297 85.0593 60.015 85.7043V85.0361Z" fill="white"/>
<path d="M85.0369 65.9844C83.5743 76.838 74.2504 85.2373 63.0005 85.2373C62.6673 85.2373 62.3357 85.2288 62.0059 85.2141V85.8749C62.3363 85.8891 62.6678 85.8976 63.0005 85.8976C69.1169 85.8976 74.8666 83.5156 79.1916 79.1912C82.8048 75.578 85.0606 70.9696 85.7051 65.9844H85.0369Z" fill="#002F47"/>
<path d="M67.8129 20.9534C66.8936 20.8466 66.1309 20.5706 65.5248 20.1254C64.9281 19.6727 64.5009 19.0864 64.2431 18.3664C63.9938 17.6473 63.9222 16.8339 64.0284 15.9261C64.1365 15.0016 64.3995 14.2142 64.8174 13.5642C65.2437 12.9151 65.7995 12.4386 66.4847 12.1348C67.1708 11.8226 67.9651 11.7189 68.8674 11.8237C69.5505 11.9031 70.1482 12.0918 70.6604 12.3898C71.1736 12.6794 71.5681 13.0703 71.844 13.5624C72.1292 14.047 72.2757 14.6221 72.2834 15.2875L70.5377 15.0847C70.4762 14.6601 70.2905 14.3106 69.9807 14.036C69.6803 13.7541 69.256 13.5813 68.7079 13.5176C68.1007 13.4471 67.5995 13.5295 67.2045 13.7647C66.8188 13.9926 66.5203 14.3157 66.309 14.7342C66.0986 15.1442 65.9654 15.5888 65.9094 16.0679C65.8515 16.5638 65.8808 17.0443 65.9973 17.5094C66.1139 17.9745 66.3373 18.3668 66.6675 18.6863C67.0062 19.0067 67.4749 19.2017 68.0736 19.2713C68.4278 19.3124 68.75 19.2987 69.0401 19.2302C69.3312 19.1532 69.577 19.0242 69.7777 18.843C69.9868 18.6628 70.1414 18.438 70.2412 18.1684L72.0502 18.3785C71.8986 19.0169 71.615 19.542 71.1993 19.9538C70.7836 20.3655 70.2837 20.6568 69.6996 20.8275C69.1164 20.9898 68.4875 21.0318 67.8129 20.9534Z" fill="white"/>
<path d="M76.6327 22.9198C75.9906 22.6988 75.4732 22.3775 75.0803 21.9558C74.6902 21.5262 74.4459 21.0258 74.3473 20.4547C74.2515 19.8756 74.3186 19.2542 74.5486 18.5903C74.7841 17.9104 75.1188 17.372 75.5527 16.9752C75.9974 16.5732 76.5062 16.3231 77.0792 16.2248C77.6522 16.1266 78.2517 16.1851 78.8776 16.4006C79.5197 16.6215 80.0303 16.9494 80.4096 17.3844C80.7889 17.8193 81.0265 18.3263 81.1223 18.9053C81.2181 19.4844 81.1482 20.1139 80.9127 20.7938C80.6827 21.4577 80.3507 21.988 79.9169 22.3848C79.4938 22.7764 79.0012 23.0186 78.439 23.1117C77.8848 23.2074 77.2827 23.1435 76.6327 22.9198ZM77.1406 21.3757C77.5098 21.5027 77.8344 21.5249 78.1146 21.4423C78.3947 21.3597 78.6273 21.2069 78.8123 20.9841C79.008 20.756 79.1558 20.498 79.2556 20.2101C79.3553 19.9221 79.3988 19.6282 79.3859 19.3283C79.381 19.0312 79.2953 18.76 79.1288 18.5147C78.9731 18.2642 78.7066 18.074 78.3294 17.9442C77.9683 17.8199 77.6448 17.8071 77.3592 17.9057C77.0763 17.9964 76.8369 18.1557 76.6411 18.3838C76.4534 18.6146 76.3096 18.874 76.2099 19.162C76.1073 19.4579 76.0599 19.7504 76.0675 20.0395C76.0832 20.3314 76.1757 20.596 76.345 20.8333C76.5142 21.0706 76.7795 21.2514 77.1406 21.3757Z" fill="white"/>
<path d="M81.7988 24.8044L85.1997 19.0375L86.638 19.88L86.3212 20.5926C86.5984 20.49 86.8718 20.444 87.1413 20.4546C87.4224 20.4622 87.682 20.5063 87.9201 20.5869C88.1655 20.6718 88.376 20.7657 88.5517 20.8686C89.108 21.1945 89.4688 21.5678 89.6343 21.9887C89.8071 22.4138 89.8389 22.8692 89.7297 23.3549C89.6321 23.8377 89.4371 24.3271 89.1445 24.8231L87.2666 28.0076L85.7294 27.1071L87.4912 24.1196C87.5945 23.9446 87.6831 23.7609 87.7571 23.5686C87.831 23.3764 87.8708 23.1837 87.8763 22.9907C87.8892 22.8019 87.8519 22.623 87.7644 22.454C87.677 22.285 87.5198 22.134 87.2929 22.0011C87.0001 21.8295 86.7119 21.7588 86.4282 21.789C86.1445 21.8191 85.882 21.9303 85.6405 22.1226C85.3991 22.3149 85.1902 22.5606 85.0138 22.8597L83.3359 25.7049L81.7988 24.8044Z" fill="white"/>
<path d="M91.3186 31.2528C90.8879 30.8955 90.5691 30.5431 90.3623 30.1954C90.1621 29.8532 90.0901 29.4962 90.1464 29.1245C90.2146 28.7518 90.4307 28.3475 90.7945 27.9117L92.6357 25.7067L91.8721 25.0733L92.8904 23.8537L93.654 24.4871L94.8026 23.1113L96.1731 24.2481L95.0245 25.6238L96.1502 26.5575L95.1319 27.7771L94.0062 26.8434L92.328 28.8533C92.1487 29.0679 92.0467 29.2695 92.0218 29.4581C91.9969 29.6466 92.1216 29.8545 92.3957 30.0819L92.8264 30.4391L91.8081 31.6587L91.3186 31.2528Z" fill="white"/>
<path d="M94.6422 34.6138C94.4406 34.3848 94.2733 34.1371 94.1404 33.8705C94.0195 33.6048 93.95 33.3334 93.9321 33.0564C93.9142 32.7794 93.9589 32.5095 94.0664 32.2467C94.1739 31.9838 94.3553 31.7408 94.6106 31.5176C94.9553 31.2162 95.2913 31.0462 95.6187 31.0076C95.9525 30.9634 96.2773 31.0115 96.5929 31.152C96.9086 31.2925 97.22 31.4987 97.527 31.7706C97.8397 32.0488 98.1416 32.3533 98.4328 32.6841L99.0711 33.4093C99.2562 33.2474 99.3881 33.0701 99.4669 32.8774C99.5577 32.6854 99.5827 32.4892 99.5417 32.2886C99.507 32.0825 99.3974 31.8744 99.2126 31.6645C99.095 31.5309 98.9611 31.4173 98.8108 31.3235C98.6725 31.2306 98.535 31.1706 98.3984 31.1437C98.2618 31.1169 98.1312 31.1353 98.0067 31.1992L96.8141 29.8442C97.1285 29.6368 97.4462 29.5166 97.7673 29.4836C98.0947 29.4449 98.4146 29.4748 98.7271 29.5731C99.0395 29.6714 99.3336 29.8195 99.6094 30.0174C99.8972 30.216 100.159 30.4489 100.394 30.7161C101.038 31.4476 101.303 32.1725 101.19 32.8907C101.083 33.6033 100.646 34.2944 99.8806 34.9641L97.1616 37.3415L96.1034 36.1392L96.7376 35.5509C96.3742 35.5872 96.0519 35.5482 95.7706 35.4339C95.4949 35.326 95.2631 35.191 95.0752 35.0288C94.8873 34.8666 94.7429 34.7283 94.6422 34.6138ZM95.9736 33.99C96.1696 34.2126 96.3934 34.3771 96.6452 34.4835C96.8969 34.5898 97.1469 34.6301 97.3953 34.6043C97.6437 34.5785 97.8636 34.4819 98.0551 34.3145L98.1795 34.2057L97.3732 33.2896C97.2557 33.1561 97.1345 33.0312 97.0097 32.9152C96.8906 32.8055 96.7671 32.7165 96.6392 32.6482C96.5233 32.5807 96.4019 32.5518 96.2749 32.5615C96.1479 32.5712 96.0206 32.6318 95.8929 32.7435C95.7653 32.8551 95.6848 32.9817 95.6514 33.1235C95.63 33.266 95.6474 33.4141 95.7035 33.5676C95.766 33.7156 95.856 33.8564 95.9736 33.99Z" fill="white"/>
<path d="M99.969 41.7623C99.6185 41.1725 99.4384 40.5953 99.4285 40.0307C99.423 39.4734 99.5745 38.9562 99.883 38.479C100.199 37.9975 100.656 37.58 101.255 37.2264C101.862 36.8685 102.455 36.6709 103.034 36.6335C103.622 36.5919 104.165 36.7089 104.664 36.9846C105.168 37.2676 105.599 37.7112 105.958 38.3156C106.235 38.7816 106.398 39.2462 106.446 39.7094C106.494 40.1726 106.426 40.6062 106.242 41.01C106.062 41.4212 105.753 41.7808 105.314 42.0889L104.425 40.5926C104.642 40.3761 104.752 40.1388 104.757 39.8805C104.765 39.6294 104.694 39.3765 104.543 39.1217C104.348 38.794 104.112 38.5793 103.834 38.4776C103.561 38.3832 103.274 38.3656 102.974 38.4248C102.678 38.4913 102.406 38.5979 102.157 38.7445C101.887 38.9041 101.657 39.0987 101.468 39.3283C101.286 39.5537 101.175 39.8063 101.134 40.0862C101.105 40.369 101.183 40.667 101.369 40.9801C101.525 41.2422 101.72 41.437 101.953 41.5646C102.194 41.6879 102.46 41.7032 102.75 41.6105L103.659 43.1396C103.162 43.3835 102.684 43.4743 102.222 43.4122C101.761 43.3501 101.335 43.1735 100.945 42.8825C100.567 42.5944 100.242 42.221 99.969 41.7623Z" fill="white"/>
<path d="M103.51 48.9369C103.304 48.4175 103.194 47.9559 103.18 47.552C103.169 47.156 103.277 46.8083 103.506 46.509C103.745 46.2145 104.129 45.963 104.658 45.7544L107.334 44.6992L106.969 43.7786L108.449 43.195L108.815 44.1156L110.485 43.4573L111.14 45.1098L109.471 45.7681L110.009 47.1255L108.529 47.7091L107.99 46.3517L105.551 47.3135C105.29 47.4163 105.104 47.5444 104.991 47.698C104.878 47.8515 104.888 48.0936 105.019 48.4241L105.225 48.9434L103.745 49.527L103.51 48.9369Z" fill="white"/>
<path d="M105.821 59.5357C105.737 58.6597 105.833 57.9237 106.109 57.3279C106.385 56.7406 106.819 56.2827 107.41 55.9544C108.002 55.6345 108.729 55.4335 109.591 55.3513L114.535 54.8804L114.708 56.6873L109.675 57.1667C109.27 57.2053 108.891 57.3009 108.539 57.4535C108.196 57.6137 107.924 57.8478 107.723 58.156C107.532 58.4717 107.46 58.8823 107.509 59.3878C107.558 59.9016 107.706 60.2871 107.952 60.5441C108.207 60.8004 108.521 60.966 108.895 61.0408C109.269 61.1157 109.655 61.1343 110.052 61.0964L115.085 60.617L115.259 62.4239L110.314 62.8949C109.46 62.9762 108.708 62.9161 108.058 62.7145C107.416 62.5121 106.903 62.1487 106.52 61.6241C106.138 61.0995 105.904 60.4034 105.821 59.5357Z" fill="white"/>
<path d="M105.812 68.3509C105.846 68.0396 105.915 67.7236 106.018 67.4029C106.122 67.0821 106.269 66.7917 106.459 66.5315C106.659 66.2722 106.908 66.0609 107.208 65.8977C107.516 65.7353 107.884 65.6476 108.313 65.6346L108.117 67.4264C107.959 67.4604 107.819 67.5345 107.695 67.6488C107.571 67.7715 107.474 67.9142 107.405 68.077C107.335 68.2481 107.291 68.422 107.271 68.5987C107.258 68.7165 107.254 68.8352 107.258 68.9548C107.262 69.0744 107.284 69.1874 107.323 69.2938C107.363 69.4003 107.418 69.4871 107.487 69.5542C107.565 69.6223 107.667 69.6632 107.794 69.6769C107.929 69.6916 108.039 69.661 108.124 69.5851C108.209 69.5092 108.281 69.3979 108.34 69.251C108.407 69.1051 108.473 68.9377 108.536 68.7488C108.65 68.4121 108.774 68.0511 108.911 67.6658C109.047 67.2805 109.219 66.9545 109.427 66.6877C109.525 66.5791 109.629 66.484 109.74 66.4025C109.852 66.3209 109.974 66.2576 110.107 66.2124C110.24 66.1673 110.376 66.1352 110.515 66.1162C110.662 66.0982 110.816 66.0978 110.976 66.1153C111.339 66.1547 111.639 66.2638 111.875 66.4427C112.12 66.631 112.308 66.8642 112.44 67.1424C112.571 67.4206 112.654 67.7232 112.686 68.0502C112.727 68.3781 112.729 68.7103 112.693 69.0468C112.643 69.5011 112.521 69.9135 112.327 70.284C112.141 70.6553 111.878 70.9503 111.538 71.1687C111.207 71.3881 110.793 71.5007 110.297 71.5064L110.482 69.8155C110.671 69.802 110.831 69.7045 110.962 69.5229C111.102 69.3423 111.187 69.1089 111.218 68.8229C111.229 68.722 111.233 68.6117 111.229 68.4921C111.224 68.3809 111.205 68.2767 111.173 68.1796C111.141 68.0825 111.09 68.0004 111.021 67.9332C110.96 67.867 110.87 67.8275 110.752 67.8147C110.659 67.8046 110.572 67.8206 110.49 67.8629C110.408 67.9135 110.336 67.9866 110.274 68.082C110.212 68.1859 110.151 68.3112 110.092 68.4581C109.993 68.7368 109.899 69.0159 109.809 69.2955C109.726 69.5845 109.642 69.8393 109.558 70.06C109.469 70.3312 109.344 70.573 109.184 70.7855C109.024 71.0064 108.817 71.1755 108.565 71.2929C108.321 71.4196 108.013 71.4627 107.642 71.4224C107.22 71.3766 106.878 71.2544 106.618 71.056C106.367 70.8584 106.176 70.6079 106.047 70.3044C105.917 70.0094 105.837 69.69 105.806 69.3462C105.774 69.0107 105.776 68.679 105.812 68.3509Z" fill="white"/>
<path d="M108.224 80.4833L109.489 79.6736L110.048 80.8105L110.731 79.7389L111.9 80.6728L110.987 81.5618L112.22 81.8676L111.679 83.2788L110.556 82.6884L110.647 83.9458L109.146 83.8775L109.353 82.6248L108.18 83.0889L107.779 81.6454L109.032 81.4701L108.224 80.4833Z" fill="white"/>
<path d="M97.1889 89.9763C97.7494 89.2423 98.3763 88.7289 99.0695 88.4359C99.7644 88.1548 100.488 88.0871 101.241 88.2329C101.989 88.3855 102.728 88.7385 103.457 89.292C104.201 89.8558 104.746 90.4825 105.095 91.1721C105.438 91.8685 105.566 92.5879 105.479 93.3302C105.399 94.0778 105.084 94.8118 104.534 95.5322C104.117 96.0777 103.65 96.4941 103.131 96.7815C102.62 97.0741 102.081 97.2133 101.516 97.1991C100.952 97.1968 100.381 97.0295 99.8028 96.697L100.867 95.3032C101.265 95.4668 101.662 95.4857 102.056 95.3598C102.453 95.2459 102.818 94.97 103.153 94.5324C103.523 94.0475 103.707 93.5758 103.705 93.1171C103.705 92.6703 103.578 92.2497 103.324 91.8552C103.078 91.4659 102.762 91.1252 102.377 90.833C101.978 90.5306 101.548 90.3109 101.087 90.174C100.626 90.037 100.174 90.0287 99.7298 90.1491C99.2806 90.2763 98.8734 90.5789 98.5083 91.057C98.2923 91.3398 98.14 91.623 98.0514 91.9067C97.9695 92.1956 97.9557 92.4722 98.0098 92.7366C98.0588 93.0078 98.1742 93.2548 98.356 93.4778L97.253 94.9222C96.7791 94.4669 96.4703 93.9561 96.3266 93.3898C96.1828 92.8235 96.1861 92.2464 96.3363 91.6585C96.4933 91.0757 96.7775 90.515 97.1889 89.9763Z" fill="white"/>
<path d="M90.9984 96.5481C91.5153 96.1089 92.0558 95.8277 92.6197 95.7045C93.1892 95.5877 93.7457 95.6319 94.2894 95.8372C94.8386 96.0489 95.3418 96.422 95.7989 96.9565C96.267 97.504 96.5625 98.0647 96.6852 98.6387C96.807 99.2246 96.7649 99.7885 96.5589 100.33C96.3529 100.872 95.998 101.357 95.4939 101.785C94.977 102.225 94.4343 102.497 93.8658 102.602C93.2973 102.706 92.7384 102.653 92.1892 102.441C91.64 102.23 91.1314 101.85 90.6632 101.303C90.2061 100.768 89.9162 100.214 89.7934 99.6398C89.6698 99.0777 89.7104 98.5317 89.9154 98.0017C90.114 97.4772 90.475 96.9927 90.9984 96.5481ZM92.0752 97.7681C91.778 98.0207 91.5939 98.2882 91.5232 98.5707C91.4524 98.8532 91.4663 99.1304 91.565 99.4024C91.6628 99.6862 91.8108 99.9441 92.0091 100.176C92.2073 100.408 92.4393 100.594 92.7051 100.736C92.9644 100.882 93.2423 100.946 93.5389 100.928C93.8345 100.921 94.1342 100.789 94.4379 100.531C94.7287 100.284 94.904 100.013 94.9637 99.7174C95.029 99.4285 95.0128 99.1421 94.915 98.8582C94.8108 98.5798 94.6596 98.3247 94.4613 98.0928C94.2575 97.8545 94.0288 97.6653 93.775 97.525C93.5147 97.3903 93.2391 97.3354 92.948 97.3603C92.6569 97.3852 92.366 97.5211 92.0752 97.7681Z" fill="white"/>
<path d="M86.7482 100.03L90.0145 105.873L88.5571 106.683L88.1011 106.049C88.0495 106.34 87.9508 106.598 87.8051 106.824C87.6562 107.062 87.4865 107.262 87.2962 107.426C87.0985 107.594 86.9106 107.728 86.7326 107.826C86.1689 108.139 85.6631 108.26 85.2152 108.189C84.7599 108.123 84.3498 107.919 83.9849 107.579C83.6168 107.251 83.2922 106.835 83.0112 106.333L81.2076 103.106L82.7652 102.241L84.4572 105.268C84.5564 105.446 84.6704 105.615 84.7992 105.776C84.9281 105.937 85.0746 106.069 85.2388 106.171C85.3956 106.278 85.5693 106.336 85.7598 106.347C85.9503 106.357 86.1605 106.299 86.3905 106.171C86.6872 106.006 86.8943 105.794 87.0119 105.535C87.1296 105.276 87.1663 104.994 87.1223 104.689C87.0782 104.385 86.9715 104.081 86.8021 103.778L85.1906 100.894L86.7482 100.03Z" fill="white"/>
<path d="M76.3442 104.942C76.8716 104.754 77.3381 104.659 77.7436 104.658C78.1411 104.66 78.4863 104.779 78.779 105.016C79.0666 105.264 79.3064 105.654 79.4985 106.188L80.4701 108.888L81.4052 108.554L81.9426 110.048L81.0075 110.382L81.6138 112.067L79.9354 112.667L79.3292 110.982L77.9506 111.475L77.4132 109.981L78.7918 109.488L77.9061 107.027C77.8115 106.764 77.6891 106.574 77.5387 106.457C77.3883 106.34 77.1453 106.342 76.8097 106.462L76.2822 106.65L75.7448 105.157L76.3442 104.942Z" fill="white"/>
<path d="M71.7326 106.089C72.033 106.033 72.3321 106.015 72.6299 106.037C72.9209 106.069 73.1906 106.148 73.4389 106.274C73.6871 106.399 73.8973 106.575 74.0694 106.801C74.2415 107.028 74.3589 107.307 74.4215 107.64C74.5059 108.089 74.4814 108.464 74.3479 108.764C74.2159 109.073 74.0089 109.327 73.7267 109.526C73.4445 109.725 73.1079 109.887 72.7167 110.012C72.3172 110.138 71.9004 110.242 71.4665 110.323L70.5152 110.501C70.5605 110.742 70.6463 110.945 70.7726 111.111C70.892 111.287 71.0487 111.408 71.2427 111.475C71.4383 111.551 71.6738 111.563 71.9492 111.511C72.1244 111.478 72.2908 111.421 72.4483 111.34C72.5991 111.269 72.7209 111.182 72.8137 111.078C72.9065 110.975 72.9571 110.854 72.9655 110.714L74.743 110.382C74.7617 110.757 74.7036 111.091 74.5685 111.383C74.435 111.684 74.2462 111.943 74.0021 112.161C73.758 112.378 73.4802 112.555 73.1689 112.691C72.8507 112.836 72.5164 112.942 72.1659 113.007C71.2062 113.187 70.4452 113.045 69.883 112.582C69.3223 112.127 68.9481 111.4 68.7604 110.402L68.0939 106.859L69.6711 106.564L69.8557 107.408C70.0096 107.078 70.2075 106.821 70.4495 106.638C70.6832 106.457 70.9179 106.327 71.1536 106.249C71.3894 106.17 71.5823 106.117 71.7326 106.089ZM71.5925 107.548C71.3004 107.603 71.0443 107.711 70.8242 107.873C70.6041 108.034 70.4419 108.228 70.3376 108.454C70.2333 108.681 70.2046 108.918 70.2515 109.168L70.282 109.33L71.4837 109.106C71.659 109.073 71.8285 109.033 71.9923 108.985C72.1477 108.938 72.2875 108.878 72.4116 108.803C72.529 108.738 72.6158 108.649 72.6721 108.535C72.7285 108.421 72.741 108.281 72.7097 108.115C72.6784 107.948 72.6101 107.815 72.5047 107.714C72.3926 107.623 72.2559 107.562 72.0948 107.532C71.9352 107.51 71.7677 107.516 71.5925 107.548Z" fill="white"/>
<path d="M62.8254 107.013C63.5132 107.013 64.1032 107.152 64.5957 107.432C65.0797 107.711 65.449 108.104 65.7037 108.612C65.9585 109.128 66.0858 109.733 66.0858 110.427C66.0859 111.13 65.9543 111.739 65.6911 112.255C65.4279 112.78 65.0501 113.186 64.5576 113.474C64.0567 113.761 63.4539 113.905 62.7492 113.905C62.2058 113.905 61.7218 113.808 61.2973 113.613C60.8728 113.419 60.5332 113.14 60.2784 112.776C60.0152 112.412 59.8624 111.963 59.8199 111.43L61.5647 111.43C61.6411 111.726 61.7897 111.942 62.0105 112.078C62.2227 112.213 62.4775 112.281 62.7746 112.281C63.1567 112.281 63.4623 112.188 63.6916 112.001C63.9123 111.815 64.0736 111.578 64.1755 111.29C64.2689 111.003 64.3156 110.715 64.3156 110.427C64.3156 110.114 64.2646 109.818 64.1627 109.539C64.0608 109.268 63.8995 109.044 63.6788 108.866C63.4495 108.697 63.1524 108.612 62.7873 108.612C62.4816 108.612 62.2142 108.68 61.9849 108.815C61.7557 108.959 61.6071 109.179 61.5392 109.475L59.7562 109.475C59.7986 108.925 59.9642 108.468 60.2529 108.105C60.5415 107.741 60.9108 107.466 61.3608 107.279C61.8023 107.102 62.2905 107.013 62.8254 107.013Z" fill="white"/>
<path d="M54.8039 106.398C55.3574 106.485 55.8123 106.625 56.1684 106.819C56.5162 107.011 56.7614 107.281 56.9039 107.629C57.0367 107.984 57.0587 108.441 56.9698 109.001L56.5204 111.835L57.5016 111.989L57.253 113.556L56.2718 113.402L55.9915 115.17L54.2303 114.892L54.5107 113.124L53.0641 112.896L53.3127 111.329L54.7593 111.557L55.1689 108.974C55.2127 108.699 55.1968 108.473 55.1214 108.299C55.0459 108.124 54.8321 108.009 54.4799 107.953L53.9264 107.866L54.175 106.299L54.8039 106.398Z" fill="white"/>
<path d="M44.4593 102.988C45.2586 103.362 45.8454 103.819 46.2196 104.358C46.5861 104.894 46.7607 105.5 46.7433 106.174C46.7182 106.844 46.5216 107.57 46.1536 108.352L44.043 112.833L42.3944 112.062L44.5429 107.5C44.7161 107.132 44.8264 106.759 44.874 106.379C44.9102 106.003 44.8464 105.651 44.6825 105.322C44.5073 104.997 44.1891 104.726 43.728 104.511C43.2591 104.291 42.851 104.222 42.5036 104.302C42.1525 104.391 41.8495 104.576 41.5944 104.859C41.3394 105.141 41.127 105.463 40.9575 105.823L38.809 110.384L37.1604 109.613L39.271 105.132C39.6354 104.358 40.0702 103.743 40.5755 103.288C41.0771 102.84 41.6519 102.586 42.2999 102.524C42.9478 102.463 43.6676 102.617 44.4593 102.988Z" fill="white"/>
<path d="M36.9263 98.5313C37.1776 98.719 37.4155 98.939 37.6397 99.1911C37.864 99.4431 38.0398 99.7172 38.1673 100.013C38.2897 100.316 38.345 100.638 38.3333 100.978C38.3164 101.325 38.2045 101.685 37.9975 102.06L36.5503 100.979C36.6012 100.826 36.6087 100.668 36.573 100.504C36.5305 100.335 36.4566 100.179 36.3512 100.037C36.2391 99.8898 36.1117 99.7629 35.969 99.6563C35.8739 99.5853 35.7737 99.521 35.6683 99.4635C35.563 99.406 35.4544 99.3671 35.3423 99.3468C35.2302 99.3266 35.1275 99.3292 35.0341 99.3546C34.9356 99.3868 34.8482 99.4537 34.7718 99.5552C34.6903 99.6636 34.6607 99.7736 34.6828 99.8853C34.7049 99.997 34.7644 100.115 34.8612 100.241C34.953 100.373 35.0643 100.514 35.1951 100.664C35.4278 100.933 35.6759 101.224 35.9392 101.537C36.2025 101.85 36.3962 102.164 36.5203 102.479C36.5645 102.618 36.5935 102.756 36.6071 102.893C36.6207 103.03 36.6131 103.167 36.5843 103.304C36.5555 103.441 36.514 103.574 36.4597 103.703C36.4003 103.838 36.3223 103.97 36.2255 104.099C36.0066 104.39 35.7596 104.592 35.4845 104.703C35.1976 104.817 34.9005 104.859 34.5931 104.831C34.2857 104.802 33.9826 104.718 33.6837 104.58C33.3797 104.448 33.0918 104.28 32.82 104.077C32.4531 103.803 32.1592 103.489 31.9383 103.133C31.7123 102.785 31.5916 102.409 31.5761 102.006C31.5556 101.61 31.6692 101.198 31.917 100.77L33.2826 101.79C33.1978 101.959 33.2004 102.146 33.2905 102.351C33.3755 102.562 33.5335 102.754 33.7645 102.927C33.846 102.988 33.9395 103.047 34.0448 103.105C34.1433 103.157 34.2426 103.194 34.3428 103.216C34.443 103.238 34.5398 103.236 34.6332 103.211C34.7215 103.192 34.8013 103.136 34.8726 103.041C34.9286 102.966 34.9591 102.883 34.9641 102.792C34.9624 102.695 34.9361 102.596 34.8851 102.495C34.8273 102.388 34.75 102.272 34.6531 102.147C34.4629 101.921 34.27 101.697 34.0747 101.477C33.8674 101.259 33.6899 101.058 33.5421 100.873C33.3535 100.658 33.2082 100.428 33.1062 100.183C32.9974 99.9325 32.9566 99.6694 32.9836 99.3935C32.9988 99.1193 33.1184 98.8332 33.3424 98.5353C33.597 98.1967 33.8763 97.9664 34.1802 97.8444C34.479 97.7292 34.7923 97.6935 35.12 97.7374C35.441 97.7762 35.7577 97.87 36.0702 98.0188C36.3759 98.1626 36.6613 98.3334 36.9263 98.5313Z" fill="white"/>
<path d="M25.2129 94.4234L25.2713 95.9201L24.0044 95.8239L24.5842 96.9543L23.1835 97.4844L22.8783 96.2491L21.9884 97.1523L21.0427 95.972L22.1233 95.3069L20.9901 94.7468L21.8106 93.4927L22.7885 94.3063L22.9825 93.0636L24.4341 93.4514L23.9498 94.6166L25.2129 94.4234Z" fill="white"/>
<path d="M22.5972 80.1262C22.9473 80.98 23.0732 81.779 22.9747 82.523C22.8652 83.2624 22.5564 83.9184 22.0482 84.4911C21.5369 85.0559 20.8569 85.5112 20.008 85.857C19.1435 86.2092 18.3248 86.3598 17.5518 86.3091C16.7757 86.2504 16.0887 85.9955 15.4909 85.5442C14.8852 85.0962 14.4105 84.4531 14.0668 83.6149C13.8066 82.9805 13.6837 82.3677 13.6982 81.7768C13.7048 81.189 13.8577 80.6559 14.1568 80.1775C14.4449 79.6945 14.8794 79.289 15.4603 78.9609L16.1252 80.5824C15.7819 80.8411 15.5644 81.1719 15.4728 81.5749C15.3702 81.9733 15.4233 82.427 15.6321 82.9362C15.8634 83.5002 16.1777 83.8977 16.5752 84.1289C16.9616 84.3555 17.3897 84.4599 17.8594 84.4422C18.3213 84.4278 18.7762 84.3293 19.2242 84.1468C19.6879 83.9579 20.0959 83.7003 20.4482 83.374C20.8005 83.0476 21.0372 82.6632 21.1585 82.2207C21.2765 81.7704 21.2215 81.2672 20.9934 80.711C20.8585 80.382 20.6908 80.1075 20.4905 79.8874C20.2824 79.6705 20.0502 79.5183 19.7941 79.4306C19.5348 79.3351 19.2627 79.3089 18.9776 79.3519L18.2886 77.6716C18.9227 77.4956 19.521 77.4896 20.0835 77.6535C20.646 77.8174 21.1433 78.1131 21.5754 78.5404C21.9996 78.971 22.3402 79.4996 22.5972 80.1262Z" fill="white"/>
<path d="M20.0677 71.4739C20.1834 72.141 20.1507 72.7477 19.9697 73.2942C19.7804 73.842 19.4586 74.2968 19.0043 74.6584C18.5416 75.0215 17.9631 75.2628 17.2687 75.3824C16.5575 75.5049 15.9229 75.4725 15.3649 75.2852C14.797 75.091 14.3316 74.7675 13.9688 74.3148C13.606 73.862 13.3682 73.3104 13.2554 72.66C13.1398 71.9929 13.1815 71.3889 13.3807 70.8479C13.5798 70.3069 13.9107 69.8549 14.3734 69.4918C14.836 69.1288 15.4229 68.886 16.1341 68.7635C16.8285 68.6439 17.4547 68.6778 18.0128 68.8651C18.561 69.0454 19.0117 69.3586 19.3647 69.8044C19.7163 70.242 19.9506 70.7984 20.0677 71.4739ZM18.4657 71.7755C18.3992 71.392 18.262 71.0978 18.0542 70.8932C17.8464 70.6885 17.6 70.5592 17.3149 70.5053C17.02 70.4444 16.722 70.4399 16.4208 70.4918C16.1196 70.5437 15.8403 70.6476 15.583 70.8035C15.3243 70.9511 15.1273 71.1568 14.9921 71.4206C14.8471 71.6774 14.8085 72.0018 14.8765 72.3937C14.9415 72.7689 15.0863 73.0574 15.3109 73.2592C15.5271 73.4624 15.7826 73.5945 16.0775 73.6553C16.3709 73.7079 16.6682 73.7082 16.9694 73.6563C17.279 73.603 17.559 73.5032 17.8093 73.3571C18.0583 73.2026 18.2462 72.9942 18.373 72.7319C18.4999 72.4696 18.5308 72.1508 18.4657 71.7755Z" fill="white"/>
<path d="M19.2282 66.0081L12.5189 65.8316L12.5629 64.1694L13.3418 64.101C13.1176 63.9089 12.945 63.6927 12.8239 63.4525C12.6946 63.2036 12.6078 62.9558 12.5633 62.7092C12.5191 62.454 12.4997 62.225 12.5051 62.0219C12.5221 61.379 12.6754 60.8836 12.9649 60.5357C13.2546 60.1793 13.6391 59.9312 14.1184 59.7915C14.5895 59.643 15.1136 59.5764 15.6907 59.5916L19.3955 59.689L19.3485 61.4654L15.8729 61.374C15.6692 61.3687 15.465 61.3802 15.2604 61.4087C15.0558 61.4372 14.8674 61.4957 14.6952 61.5843C14.5232 61.6645 14.3842 61.7835 14.2781 61.9416C14.172 62.0996 14.1155 62.3098 14.1085 62.572C14.0995 62.9104 14.1769 63.196 14.3406 63.4289C14.5043 63.6617 14.729 63.8369 15.0147 63.9545C15.3003 64.0721 15.6172 64.1354 15.9651 64.1446L19.2753 64.2316L19.2282 66.0081Z" fill="white"/>
<path d="M20.2805 54.5871C20.1753 55.1357 20.0202 55.5843 19.815 55.9329C19.6115 56.2732 19.3329 56.5088 18.9794 56.6396C18.6191 56.7606 18.1596 56.7678 17.6008 56.6614L14.7737 56.1231L14.5873 57.0956L13.0236 56.7978L13.21 55.8253L11.4462 55.4894L11.7808 53.7439L13.5446 54.0798L13.8195 52.646L15.3831 52.9438L15.1083 54.3776L17.6852 54.8683C17.9604 54.9207 18.1868 54.9121 18.3644 54.8425C18.542 54.773 18.6642 54.5636 18.7311 54.2145L18.8363 53.666L20.4 53.9637L20.2805 54.5871Z" fill="white"/>
<path d="M21.6342 50.0438C21.5301 50.3302 21.3928 50.5956 21.2226 50.8401C21.0473 51.0738 20.8422 51.2652 20.6073 51.4144C20.3724 51.5635 20.1135 51.6545 19.8306 51.6873C19.5478 51.7201 19.2467 51.6788 18.9274 51.5634C18.4964 51.4077 18.185 51.1961 17.9933 50.9288C17.7935 50.6586 17.6794 50.3518 17.6507 50.0084C17.6221 49.665 17.6533 49.2937 17.7444 48.8946C17.8383 48.4874 17.9605 48.077 18.111 47.6634L18.4409 46.7564C18.2095 46.6728 17.99 46.643 17.7826 46.667C17.57 46.6802 17.3855 46.7531 17.2289 46.8855C17.0644 47.0151 16.9344 47.2111 16.8389 47.4737C16.7781 47.6407 16.7427 47.8125 16.7327 47.9889C16.7176 48.1545 16.7312 48.3034 16.7734 48.4356C16.8156 48.5679 16.8947 48.673 17.0109 48.751L16.3944 50.4455C16.0606 50.2709 15.8018 50.0513 15.618 49.7869C15.4263 49.5195 15.2983 49.2258 15.2342 48.9056C15.1701 48.5853 15.1585 48.2571 15.1995 47.9209C15.2355 47.5738 15.3142 47.2332 15.4358 46.8991C15.7686 45.9842 16.278 45.4032 16.964 45.156C17.642 44.906 18.4599 44.954 19.4178 45.3002L22.8181 46.529L22.2711 48.0326L21.4482 47.7622C21.6553 48.0621 21.7763 48.3623 21.8114 48.6631C21.8494 48.9558 21.8424 49.2233 21.7904 49.4656C21.7384 49.7078 21.6863 49.9006 21.6342 50.0438ZM20.4442 49.1816C20.5455 48.9032 20.5822 48.6284 20.5544 48.3573C20.5266 48.0862 20.4415 47.8485 20.2991 47.644C20.1568 47.4395 19.9658 47.294 19.7264 47.2075L19.5707 47.1512L19.154 48.2968C19.0932 48.4639 19.0418 48.6298 18.9999 48.7947C18.9609 48.9516 18.9422 49.1024 18.9438 49.247C18.9403 49.3807 18.9734 49.5007 19.0431 49.6069C19.1129 49.7132 19.2275 49.7951 19.3872 49.8528C19.5468 49.9105 19.697 49.9197 19.8377 49.8806C19.9733 49.8306 20.0951 49.7441 20.203 49.6211C20.303 49.4952 20.3834 49.3487 20.4442 49.1816Z" fill="white"/>
<path d="M25.3578 41.9469C25.0073 42.5367 24.5861 42.9716 24.0941 43.2516C23.6065 43.5243 23.0786 43.6406 22.5104 43.6003C21.935 43.5557 21.3478 43.3567 20.7487 43.0031C20.1423 42.6452 19.6834 42.2219 19.3719 41.7332C19.053 41.2401 18.8949 40.7091 18.8974 40.1402C18.9042 39.564 19.0872 38.9737 19.4463 38.3694C19.7231 37.9034 20.0538 37.5379 20.4381 37.273C20.8224 37.0082 21.2366 36.8592 21.6805 36.8262C22.1287 36.7858 22.5938 36.8833 23.0757 37.1185L22.1867 38.6148C21.892 38.5295 21.63 38.5469 21.4007 38.6673C21.1756 38.7803 20.9874 38.9643 20.836 39.2191C20.6413 39.5468 20.5659 39.8563 20.6098 40.1478C20.6581 40.4319 20.7804 40.691 20.9769 40.925C21.1777 41.1517 21.4023 41.3383 21.6507 41.4849C21.921 41.6445 22.2027 41.7517 22.4957 41.8066C22.7814 41.8572 23.0572 41.8331 23.3231 41.7344C23.586 41.624 23.8104 41.4123 23.9965 41.0992C24.1522 40.837 24.23 40.5732 24.23 40.3076C24.2226 40.0377 24.1083 39.7982 23.8872 39.589L24.7957 38.0599C25.249 38.3766 25.5591 38.7514 25.7262 39.1844C25.8932 39.6174 25.9425 40.0742 25.8739 40.555C25.8024 41.0242 25.6303 41.4881 25.3578 41.9469Z" fill="white"/>
<path d="M29.9595 35.4089C29.6021 35.8391 29.2493 36.1577 28.901 36.3647C28.5582 36.5652 28.2002 36.6379 27.8272 36.5828C27.453 36.5157 27.0468 36.3014 26.6086 35.9399L24.3914 34.1106L23.758 34.8733L22.5317 33.8615L23.1652 33.0988L21.7819 31.9575L22.9189 30.5887L24.3021 31.7299L25.2361 30.6055L26.4624 31.6173L25.5284 32.7417L27.5494 34.4091C27.7652 34.5872 27.9677 34.6884 28.1569 34.7127C28.3462 34.737 28.5545 34.6123 28.7819 34.3385L29.1392 33.9083L30.3655 34.92L29.9595 35.4089Z" fill="white"/>
<path d="M38.1684 28.2566C37.4397 28.7536 36.7471 29.0261 36.0907 29.074C35.4412 29.1171 34.8294 28.9602 34.2551 28.6033C33.6878 28.2417 33.1596 27.7048 32.6705 26.9925L29.8652 22.9072L31.3681 21.882L34.2238 26.0406C34.4539 26.3758 34.7212 26.6601 35.0255 26.8935C35.332 27.1151 35.6691 27.2389 36.0368 27.2649C36.4067 27.2792 36.8018 27.143 37.2222 26.8562C37.6496 26.5647 37.9166 26.2493 38.0231 25.91C38.1249 25.5637 38.1182 25.2094 38.0031 24.847C37.888 24.4846 37.7177 24.1392 37.4923 23.811L34.6367 19.6525L36.1396 18.6273L38.9449 22.7125C39.4292 23.4178 39.7402 24.103 39.8779 24.7679C40.0107 25.4258 39.9395 26.0487 39.664 26.6365C39.3886 27.2243 38.8901 27.7643 38.1684 28.2566Z" fill="white"/>
<path d="M45.8461 24.0421C45.5562 24.1628 45.2454 24.2554 44.9137 24.3201C44.582 24.3848 44.2557 24.3968 43.935 24.356C43.6111 24.3074 43.305 24.1917 43.0168 24.009C42.7254 23.8185 42.4705 23.5395 42.2521 23.1718L43.9209 22.4774C44.0268 22.5984 44.1598 22.6852 44.3198 22.7378C44.4877 22.7871 44.6598 22.8026 44.8362 22.7843C45.0203 22.7627 45.1947 22.7176 45.3592 22.6492C45.4689 22.6035 45.5753 22.5501 45.6785 22.4888C45.7816 22.4275 45.8704 22.3539 45.9448 22.2679C46.0192 22.182 46.0691 22.0924 46.0945 21.9993C46.1166 21.8984 46.1031 21.7894 46.0541 21.6722C46.0017 21.5473 45.9217 21.466 45.8139 21.4283C45.7061 21.3906 45.5735 21.3816 45.4161 21.4013C45.2554 21.4131 45.0768 21.437 44.8803 21.4729C44.5296 21.5363 44.1521 21.6017 43.7479 21.669C43.3437 21.7364 42.974 21.7435 42.639 21.6903C42.4966 21.6579 42.3626 21.6128 42.2372 21.5549C42.1118 21.4971 41.9971 21.421 41.8932 21.3267C41.7893 21.2324 41.6955 21.1293 41.6118 21.0174C41.5248 20.8976 41.4503 20.7636 41.3881 20.6152C41.2475 20.2795 41.1986 19.9651 41.2415 19.6721C41.2889 19.3681 41.403 19.0914 41.5837 18.8419C41.7645 18.5925 41.9906 18.3746 42.2622 18.1882C42.5305 17.9941 42.8213 17.8318 43.1347 17.7013C43.5578 17.5253 43.979 17.4325 44.3983 17.4231C44.8143 17.4059 45.2003 17.4929 45.5564 17.684C45.9092 17.8673 46.2079 18.174 46.4525 18.6041L44.8777 19.2594C44.7744 19.1007 44.6114 19.008 44.3886 18.9815C44.1626 18.9472 43.9164 18.9854 43.65 19.0963C43.556 19.1354 43.4574 19.1856 43.3543 19.2468C43.259 19.3048 43.1764 19.3713 43.1066 19.4462C43.0368 19.5211 42.9891 19.6051 42.9637 19.6982C42.9351 19.7835 42.9436 19.8808 42.9894 19.9902C43.0254 20.0761 43.0816 20.1444 43.1581 20.1951C43.2424 20.2425 43.3413 20.2701 43.455 20.2779C43.5765 20.2823 43.7159 20.2747 43.8733 20.2551C44.1658 20.2067 44.4568 20.1544 44.746 20.0982C45.0399 20.031 45.304 19.9807 45.5385 19.9473C45.8199 19.8944 46.0926 19.8864 46.3565 19.9233C46.6282 19.9569 46.8765 20.0554 47.1012 20.2186C47.3306 20.3707 47.5172 20.6186 47.6612 20.9622C47.8247 21.3527 47.8821 21.7093 47.8334 22.0322C47.7814 22.3473 47.6533 22.6345 47.449 22.8937C47.2526 23.1497 47.0108 23.3741 46.7236 23.567C46.4442 23.7566 46.1517 23.915 45.8461 24.0421Z" fill="white"/>
<path d="M55.3391 16.0836L54.0172 15.371L54.7458 14.3336L53.4745 14.2548L53.7306 12.7835L54.9525 13.1511L54.6262 11.9278L56.1271 11.7182L56.1507 12.9838L57.2116 12.2973L57.8762 13.64L56.6755 14.0641L57.6496 14.8637L56.5751 15.911L55.816 14.9019L55.3391 16.0836Z" fill="white"/>
</svg>
