<svg width="193" height="50" viewBox="0 0 193 50" fill="none" xmlns="http://www.w3.org/2000/svg">
<path d="M22.4426 14.6222L22.4155 14.5826L21.7806 13.7543C21.354 13.2036 20.9234 12.6567 20.4889 12.1135C20.3757 11.976 20.2422 11.8012 20.0153 11.6722C19.9028 11.6096 19.7786 11.5711 19.6504 11.559C19.5457 11.5493 19.4404 11.5493 19.3358 11.559L18.2936 11.6648C17.6005 11.7418 16.9079 11.8181 16.216 11.92C16.1965 11.9248 16.1792 11.9363 16.1672 11.9524C16.1553 11.9685 16.1493 11.9883 16.1503 12.0084C16.1513 12.0284 16.1592 12.0475 16.1727 12.0624C16.1863 12.0772 16.2046 12.0869 16.2245 12.0897C16.9227 12.1242 17.6197 12.1333 18.3179 12.1429L19.3607 12.148C19.4299 12.1463 19.4991 12.1516 19.5672 12.1638C19.6126 12.1715 19.6556 12.1895 19.6928 12.2165C19.7933 12.301 19.8787 12.402 19.9452 12.5152C20.3378 13.0889 20.7352 13.6604 21.1373 14.2296L21.7439 15.0783C21.7755 15.1167 21.805 15.1569 21.8333 15.1976C20.4719 16.7779 20.8539 18.7922 20.8539 18.7922L25.0012 17.0127L29.1485 18.7922C29.1485 18.7922 29.5304 16.7779 28.1691 15.1976C28.1974 15.1569 28.2257 15.1167 28.2585 15.0783L28.8651 14.2296C29.2668 13.6608 29.6642 13.0893 30.0572 12.5152C30.1237 12.402 30.209 12.301 30.3095 12.2165C30.3468 12.1895 30.3898 12.1715 30.4352 12.1638C30.5033 12.1516 30.5725 12.1463 30.6417 12.148L31.6845 12.1429C32.3815 12.1333 33.0786 12.1242 33.7779 12.0897C33.7978 12.0869 33.8161 12.0772 33.8296 12.0624C33.8432 12.0475 33.8511 12.0284 33.8521 12.0084C33.8531 11.9883 33.8471 11.9685 33.8351 11.9524C33.8231 11.9363 33.8059 11.9248 33.7864 11.92C33.0944 11.8181 32.4019 11.7418 31.7088 11.6648L30.6666 11.559C30.5619 11.5493 30.4566 11.5493 30.352 11.559C30.2238 11.5711 30.0996 11.6096 29.987 11.6722C29.7607 11.8012 29.6272 11.976 29.5135 12.1135C29.0782 12.6589 28.6476 13.2059 28.2217 13.7543L27.5869 14.5826C27.5779 14.5962 27.5688 14.6092 27.5592 14.6222C26.9521 14.1504 26.1254 13.7594 25.0023 13.5382C23.8769 13.7588 23.0503 14.1498 22.4426 14.6222Z" fill="white"/>
<path d="M25.0001 35.3831L25.6791 35.959C25.9001 36.146 26.1829 36.2437 26.4722 36.2333C26.7615 36.2228 27.0365 36.1049 27.2435 35.9025L30.3401 32.8749C31.1634 32.0683 31.683 31.0023 31.8112 29.8569C31.9182 29.8524 32.0178 29.8501 32.0941 29.849H32.1858C32.3591 29.8483 32.5322 29.8591 32.7041 29.8813C32.8872 29.9027 33.0661 29.9515 33.2348 30.0261C33.4003 30.0971 33.5532 30.1946 33.6874 30.3147C33.9285 30.5268 34.1576 30.8352 34.4077 31.285C34.4779 31.4066 34.5475 31.5323 34.6176 31.6607C34.7636 31.9249 34.9141 32.1982 35.0884 32.467C35.3499 32.8628 35.6651 33.2206 36.0248 33.5301C36.7268 34.1418 37.5853 34.5457 38.5041 34.6968H38.5115C38.5233 34.6969 38.5347 34.6928 38.5438 34.6851C38.5528 34.6775 38.5588 34.6669 38.5606 34.6553C38.5625 34.6436 38.5601 34.6317 38.5539 34.6216C38.5476 34.6116 38.538 34.6041 38.5267 34.6006C37.7039 34.3033 36.964 33.8137 36.3688 33.1725C36.0817 32.8604 35.8346 32.5137 35.6332 32.1405C35.5088 31.9096 35.3996 31.6669 35.2841 31.41C35.2157 31.2573 35.1444 31.0983 35.0686 30.9399C34.8666 30.5268 34.6278 30.0912 34.2532 29.716C33.9138 29.3602 33.3876 29.0976 32.8478 29.0145C32.6046 28.9745 32.3587 28.953 32.1122 28.95C32.0308 28.95 31.9487 28.95 31.8689 28.95H31.8463V26.121L32.931 25.2321L34.0213 24.3268C34.3879 24.0179 34.7121 23.7452 35.0488 23.7316C35.2398 23.726 35.4296 23.7647 35.6032 23.8448C35.805 23.934 35.9993 24.0392 36.1843 24.1594C36.5804 24.4077 36.9764 24.6646 37.3623 24.9311C38.146 25.4522 38.8962 26.0214 39.6431 26.6002C39.6615 26.6165 39.6857 26.6248 39.7103 26.6232C39.7348 26.6217 39.7578 26.6105 39.7741 26.592C39.7903 26.5735 39.7986 26.5494 39.7971 26.5248C39.7955 26.5002 39.7843 26.4773 39.7659 26.461C39.4264 26.1266 39.0818 25.8007 38.7236 25.4879C38.3655 25.175 38.0034 24.8655 37.6322 24.5656C37.261 24.2657 36.8791 23.9817 36.4921 23.7011C36.2891 23.5504 36.0733 23.4179 35.8471 23.305C35.5941 23.1757 35.3147 23.1066 35.0307 23.103C34.8799 23.1039 34.7301 23.1278 34.5865 23.1737C34.4517 23.218 34.322 23.2764 34.1995 23.348C33.9858 23.4805 33.7806 23.6262 33.585 23.7842L32.4585 24.6471L31.8463 25.1178V24.0106C31.8463 23.066 31.5789 22.1407 31.0751 21.3417L31.805 20.4013C32.0681 20.0585 32.3007 19.7558 32.5971 19.6788C32.7638 19.636 32.9381 19.6325 33.1064 19.6686C33.3011 19.7081 33.4924 19.7631 33.6784 19.8333C34.0744 19.9747 34.4705 20.1247 34.8666 20.2859C35.6587 20.5926 36.4282 20.9479 37.1971 21.3134C37.2165 21.3242 37.2395 21.3269 37.2609 21.3208C37.2822 21.3146 37.3003 21.3003 37.3111 21.2809C37.3219 21.2614 37.3246 21.2385 37.3185 21.2171C37.3124 21.1957 37.298 21.1777 37.2786 21.1669C36.9165 20.9405 36.5481 20.7182 36.1724 20.5122C35.7967 20.3063 35.4177 20.1037 35.0335 19.9119C34.6493 19.7201 34.2572 19.5442 33.8623 19.3716C33.6545 19.2773 33.4389 19.2016 33.2178 19.1453C32.9701 19.0808 32.7109 19.0742 32.4602 19.126C32.3276 19.1561 32.2004 19.2061 32.0828 19.2743C31.9729 19.3386 31.8701 19.4145 31.7762 19.5006C31.6139 19.6584 31.4616 19.8262 31.3201 20.003L30.6677 20.777C30.3877 20.4455 30.0657 20.1518 29.7098 19.9034L26.2539 18.4199L25.4205 19.8491H24.5865L23.7531 18.4199L20.2971 19.9034C19.9413 20.1518 19.6193 20.4455 19.3392 20.777L18.6869 20.003C18.5454 19.8262 18.3931 19.6584 18.2308 19.5006C18.1369 19.4145 18.0341 19.3386 17.9242 19.2743C17.8066 19.2061 17.6793 19.1561 17.5468 19.126C17.2961 19.0742 17.0369 19.0808 16.7892 19.1453C16.5681 19.2016 16.3524 19.2773 16.1447 19.3716C15.7487 19.5442 15.3594 19.723 14.9735 19.9119C14.5876 20.1009 14.2091 20.304 13.8345 20.5122C13.46 20.7204 13.0905 20.9377 12.7284 21.1669C12.709 21.1777 12.6946 21.1957 12.6885 21.2171C12.6824 21.2385 12.6851 21.2614 12.6959 21.2809C12.7067 21.3003 12.7248 21.3146 12.7461 21.3208C12.7675 21.3269 12.7904 21.3242 12.8099 21.3134C13.5788 20.9479 14.35 20.5926 15.1404 20.2859C15.5325 20.1264 15.9291 19.9764 16.3286 19.8333C16.5145 19.7631 16.7058 19.7081 16.9006 19.6686C17.0689 19.6325 17.2432 19.636 17.4099 19.6788C17.7035 19.7558 17.936 20.0585 18.202 20.4013L18.9319 21.3417C18.4281 22.1407 18.1607 23.066 18.1607 24.0106V25.1178L17.5485 24.642L16.422 23.7791C16.2264 23.6211 16.0212 23.4754 15.8075 23.3429C15.685 23.2713 15.5553 23.2129 15.4205 23.1687C15.2769 23.1227 15.1271 23.0988 14.9763 23.0979C14.6923 23.1015 14.4128 23.1706 14.1599 23.2999C13.9337 23.4128 13.7178 23.5453 13.5149 23.696C13.1279 23.9766 12.7478 24.2648 12.3748 24.5605C12.0017 24.8562 11.6379 25.1636 11.2833 25.4828C10.9252 25.7956 10.5783 26.1215 10.2411 26.4559C10.2227 26.4722 10.2114 26.4952 10.2099 26.5197C10.2084 26.5443 10.2166 26.5685 10.2329 26.5869C10.2492 26.6054 10.2722 26.6166 10.2967 26.6181C10.3213 26.6197 10.3455 26.6114 10.3639 26.5951C11.1108 26.0163 11.861 25.4471 12.6447 24.926C13.0317 24.6595 13.4255 24.4027 13.8227 24.1543C14.0077 24.0341 14.202 23.9289 14.4037 23.8397C14.5773 23.7596 14.7671 23.7209 14.9582 23.7265C15.2949 23.7401 15.6191 24.0128 15.9857 24.3217L17.076 25.227L18.1607 26.1159V28.9449H18.0277C17.9474 28.9449 17.8653 28.9449 17.7838 28.9449C17.5374 28.9479 17.2915 28.9695 17.0483 29.0094C16.5091 29.0925 15.984 29.3551 15.6428 29.7121C15.2689 30.0872 15.0307 30.5217 14.8287 30.9342C14.7528 31.0932 14.6816 31.2516 14.6125 31.405C14.4994 31.6618 14.3862 31.9046 14.2634 32.1365C14.0619 32.509 13.8148 32.8549 13.5279 33.1663C12.932 33.8085 12.1911 34.2987 11.3671 34.596C11.3561 34.5999 11.3468 34.6076 11.341 34.6177C11.3351 34.6277 11.333 34.6396 11.335 34.651C11.3371 34.6625 11.3431 34.6729 11.3521 34.6803C11.3611 34.6878 11.3724 34.6918 11.3841 34.6917H11.392C12.3108 34.5405 13.1694 34.1363 13.8713 33.5244C14.231 33.2155 14.5459 32.8581 14.8072 32.4624C14.9814 32.1931 15.1325 31.9198 15.2779 31.6556C15.3486 31.5272 15.4177 31.4016 15.4873 31.2805C15.7385 30.8278 15.9676 30.5217 16.2081 30.3101C16.3422 30.1897 16.4951 30.0921 16.6607 30.021C16.829 29.9464 17.0075 29.8976 17.1903 29.8762C17.3626 29.8541 17.5361 29.8433 17.7097 29.8439H17.794C17.8806 29.8439 17.9949 29.8479 18.1143 29.853C18.1414 29.853 18.1709 29.853 18.1969 29.8564C18.3262 31.0001 18.8458 32.0643 19.668 32.8698L22.7646 35.8974C22.9716 36.0998 23.2466 36.2177 23.5359 36.2282C23.8252 36.2386 24.108 36.1409 24.3291 35.954L25.0001 35.3831ZM25.5155 23.5268H28.4634V26.4746H25.5155V23.5268ZM25.5155 27.5055H28.4634V30.4533H25.5155V27.5055ZM21.5368 23.5268H24.4847V26.4746H21.5368V23.5268ZM21.5368 30.4533V27.5055H24.4847V30.4533H21.5368Z" fill="white"/>
<path d="M45.7051 24.0053C45.4732 19.2015 43.5788 14.6276 40.3461 11.0667C37.1133 7.50573 32.7433 5.1792 27.9841 4.48535V7.161C36.543 8.58794 43.0877 16.044 43.0877 25.0011C43.0877 25.3349 43.0784 25.6665 43.0599 25.9958H50.0001V24.0065L45.7051 24.0053Z" fill="#299B46"/>
<path d="M25.0001 6.91233C25.3339 6.91233 25.6654 6.92252 25.9947 6.94006V5.59233V0H24.0054V4.29553C18.8555 4.52919 13.9808 6.68724 10.3458 10.3428C7.1405 13.5469 5.11549 17.6115 4.48462 22.0157H7.15974C8.58669 13.4575 16.0428 6.91233 25.0001 6.91233Z" fill="white"/>
<path d="M6.91241 25.0005C6.91241 24.6667 6.92165 24.3352 6.94014 24.0059H0V25.9946H4.29501C4.52683 30.7985 6.42128 35.3724 9.65402 38.9333C12.8868 42.4942 17.2568 44.8208 22.016 45.5146V42.8395C13.4576 41.4137 6.91241 33.9577 6.91241 25.0005Z" fill="#299B46"/>
<path d="M25.0001 43.0877C24.6662 43.0877 24.3347 43.0785 24.0054 43.06V50.0001H25.9947V45.7045C30.7986 45.473 35.3726 43.5787 38.9336 40.3461C42.4946 37.1134 44.8212 32.7435 45.5149 27.9844H42.8398C41.4134 36.5426 33.9573 43.0877 25.0001 43.0877Z" fill="white"/>
<path d="M2.96363 22.0162C4.42623 11.1608 13.7501 2.76324 25 2.76324C25.3332 2.76324 25.6648 2.77229 25.9946 2.787V2.12558C25.6642 2.11144 25.3326 2.10352 25 2.10352C18.8836 2.10352 13.1339 4.48495 8.80894 8.8099C5.19685 12.4231 2.93986 17.0315 2.29541 22.0162H2.96363Z" fill="white"/>
<path d="M27.984 2.96693C38.8395 4.42669 47.2361 13.751 47.2361 25.0007C47.2361 25.334 47.2276 25.6656 47.2129 25.9954H47.8737C47.8879 25.665 47.8963 25.3334 47.8963 25.0007C47.8963 18.8845 45.5149 13.1343 41.1899 8.80991C37.5767 5.19674 32.9682 2.94091 27.9829 2.2959L27.984 2.96693Z" fill="#299B46"/>
<path d="M22.016 47.0366C11.1605 45.574 2.76396 36.2503 2.76396 25.0005C2.76396 24.6667 2.77245 24.3357 2.78716 24.0059H2.12461C2.11103 24.3363 2.10254 24.6678 2.10254 25.0005C2.10254 31.1162 4.484 36.8664 8.809 41.1914C12.4222 44.8045 17.0307 47.0598 22.016 47.7048V47.0366Z" fill="#299B46"/>
<path d="M47.0364 27.9844C45.5738 38.838 36.2499 47.2373 25.0001 47.2373C24.6668 47.2373 24.3352 47.2288 24.0054 47.2141V47.8749C24.3358 47.8891 24.6674 47.8976 25.0001 47.8976C31.1164 47.8976 36.8661 45.5156 41.1911 41.1912C44.8043 37.578 47.0601 32.9696 47.7046 27.9844H47.0364Z" fill="white"/>
<path d="M66.25 35V13.76H74.53C76.15 13.76 77.56 14.01 78.76 14.51C79.98 14.99 80.92 15.77 81.58 16.85C82.24 17.91 82.57 19.33 82.57 21.11C82.57 22.77 82.2 24.16 81.46 25.28C80.74 26.4 79.75 27.24 78.49 27.8C77.23 28.34 75.8 28.61 74.2 28.61H70.54V35H66.25ZM70.54 24.77H74.14C75.42 24.77 76.43 24.47 77.17 23.87C77.93 23.25 78.31 22.32 78.31 21.08C78.31 19.98 77.99 19.15 77.35 18.59C76.73 18.03 75.73 17.75 74.35 17.75H70.54V24.77ZM92.1866 35.21C90.5266 35.21 89.1166 34.88 87.9566 34.22C86.7966 33.56 85.9066 32.63 85.2866 31.43C84.6666 30.21 84.3566 28.79 84.3566 27.17C84.3566 25.53 84.6766 24.1 85.3166 22.88C85.9566 21.64 86.8566 20.67 88.0166 19.97C89.1966 19.27 90.5866 18.92 92.1866 18.92C93.3866 18.92 94.4366 19.12 95.3366 19.52C96.2566 19.92 97.0266 20.48 97.6466 21.2C98.2866 21.92 98.7566 22.76 99.0566 23.72C99.3766 24.66 99.5266 25.68 99.5066 26.78C99.5066 27.06 99.4966 27.33 99.4766 27.59C99.4566 27.85 99.4166 28.11 99.3566 28.37H88.5266C88.5866 28.97 88.7566 29.52 89.0366 30.02C89.3166 30.52 89.7066 30.92 90.2066 31.22C90.7266 31.5 91.3666 31.64 92.1266 31.64C92.6266 31.64 93.0866 31.59 93.5066 31.49C93.9266 31.37 94.2866 31.19 94.5866 30.95C94.8866 30.71 95.0966 30.43 95.2166 30.11H99.3566C99.0966 31.29 98.6066 32.26 97.8866 33.02C97.1866 33.78 96.3366 34.34 95.3366 34.7C94.3366 35.04 93.2866 35.21 92.1866 35.21ZM88.6166 25.43H95.4866C95.4666 24.89 95.3266 24.39 95.0666 23.93C94.8266 23.45 94.4566 23.07 93.9566 22.79C93.4766 22.49 92.8566 22.34 92.0966 22.34C91.3366 22.34 90.6966 22.49 90.1766 22.79C89.6766 23.09 89.2966 23.48 89.0366 23.96C88.7966 24.42 88.6566 24.91 88.6166 25.43ZM109.382 35C108.063 35 106.953 34.84 106.053 34.52C105.173 34.2 104.503 33.66 104.043 32.9C103.603 32.12 103.383 31.06 103.383 29.72V22.94H101.043V19.19H103.383V14.96H107.583V19.19H111.033V22.94H107.583V29.12C107.583 29.78 107.703 30.3 107.943 30.68C108.183 31.06 108.723 31.25 109.563 31.25H110.883V35H109.382ZM113.199 35V19.19H116.979L117.249 21.08C117.649 20.48 118.099 20.03 118.599 19.73C119.099 19.41 119.619 19.2 120.159 19.1C120.699 18.98 121.249 18.92 121.809 18.92C122.069 18.92 122.309 18.93 122.529 18.95C122.749 18.95 122.909 18.95 123.009 18.95V23H122.019C121.079 23 120.259 23.16 119.559 23.48C118.859 23.8 118.319 24.3 117.939 24.98C117.579 25.66 117.399 26.53 117.399 27.59V35H113.199ZM132.063 35.21C130.463 35.21 129.063 34.89 127.863 34.25C126.663 33.59 125.733 32.66 125.073 31.46C124.413 30.24 124.083 28.8 124.083 27.14C124.083 25.44 124.413 23.98 125.073 22.76C125.753 21.52 126.693 20.57 127.893 19.91C129.093 19.25 130.473 18.92 132.033 18.92C133.633 18.92 135.023 19.26 136.203 19.94C137.383 20.62 138.303 21.57 138.963 22.79C139.623 24.01 139.953 25.47 139.953 27.17C139.953 28.83 139.623 30.27 138.963 31.49C138.323 32.69 137.413 33.61 136.233 34.25C135.073 34.89 133.683 35.21 132.063 35.21ZM132.003 31.37C132.923 31.37 133.663 31.17 134.223 30.77C134.783 30.37 135.183 29.85 135.423 29.21C135.683 28.55 135.813 27.86 135.813 27.14C135.813 26.42 135.683 25.73 135.423 25.07C135.183 24.41 134.783 23.87 134.223 23.45C133.683 23.01 132.943 22.79 132.003 22.79C131.103 22.79 130.373 23.01 129.813 23.45C129.253 23.87 128.843 24.41 128.583 25.07C128.343 25.73 128.223 26.42 128.223 27.14C128.223 27.88 128.343 28.57 128.583 29.21C128.843 29.85 129.253 30.37 129.813 30.77C130.373 31.17 131.103 31.37 132.003 31.37ZM142.642 35V19.19H146.572L146.782 21.02C147.222 20.48 147.722 20.06 148.282 19.76C148.862 19.44 149.442 19.22 150.022 19.1C150.622 18.98 151.162 18.92 151.642 18.92C153.162 18.92 154.342 19.25 155.182 19.91C156.042 20.57 156.652 21.46 157.012 22.58C157.392 23.68 157.582 24.91 157.582 26.27V35H153.382V26.81C153.382 26.33 153.342 25.85 153.262 25.37C153.182 24.89 153.032 24.45 152.812 24.05C152.612 23.65 152.322 23.33 151.942 23.09C151.562 22.85 151.062 22.73 150.442 22.73C149.642 22.73 148.972 22.93 148.432 23.33C147.892 23.73 147.492 24.27 147.232 24.95C146.972 25.63 146.842 26.38 146.842 27.2V35H142.642ZM167.976 35.21C165.656 35.21 163.866 34.62 162.606 33.44C161.366 32.24 160.746 30.44 160.746 28.04V19.19H164.946V27.74C164.946 28.46 165.046 29.1 165.246 29.66C165.466 30.2 165.796 30.63 166.236 30.95C166.696 31.27 167.286 31.43 168.006 31.43C168.786 31.43 169.386 31.26 169.806 30.92C170.226 30.58 170.516 30.13 170.676 29.57C170.836 28.99 170.916 28.38 170.916 27.74V19.19H175.086V28.04C175.086 30.54 174.456 32.36 173.196 33.5C171.956 34.64 170.216 35.21 167.976 35.21ZM184.535 35.21C183.795 35.21 183.035 35.13 182.255 34.97C181.475 34.81 180.755 34.54 180.095 34.16C179.435 33.76 178.875 33.23 178.415 32.57C177.955 31.89 177.655 31.05 177.515 30.05H181.775C181.895 30.41 182.105 30.72 182.405 30.98C182.725 31.24 183.085 31.43 183.485 31.55C183.905 31.67 184.325 31.73 184.745 31.73C185.025 31.73 185.305 31.71 185.585 31.67C185.865 31.63 186.125 31.55 186.365 31.43C186.605 31.31 186.795 31.16 186.935 30.98C187.075 30.78 187.145 30.53 187.145 30.23C187.145 29.91 187.045 29.66 186.845 29.48C186.645 29.3 186.365 29.16 186.005 29.06C185.645 28.94 185.235 28.83 184.775 28.73C183.955 28.55 183.075 28.35 182.135 28.13C181.195 27.91 180.385 27.59 179.705 27.17C179.425 26.97 179.175 26.75 178.955 26.51C178.735 26.27 178.555 26 178.415 25.7C178.275 25.4 178.165 25.09 178.085 24.77C178.005 24.43 177.965 24.07 177.965 23.69C177.965 22.83 178.145 22.1 178.505 21.5C178.885 20.88 179.385 20.38 180.005 20C180.625 19.62 181.315 19.35 182.075 19.19C182.835 19.01 183.615 18.92 184.415 18.92C185.495 18.92 186.495 19.1 187.415 19.46C188.335 19.8 189.095 20.34 189.695 21.08C190.295 21.8 190.665 22.74 190.805 23.9H186.785C186.705 23.46 186.435 23.11 185.975 22.85C185.515 22.57 184.945 22.43 184.265 22.43C184.025 22.43 183.765 22.45 183.485 22.49C183.225 22.53 182.985 22.6 182.765 22.7C182.545 22.8 182.365 22.94 182.225 23.12C182.085 23.28 182.015 23.5 182.015 23.78C182.015 24 182.075 24.2 182.195 24.38C182.335 24.56 182.525 24.71 182.765 24.83C183.025 24.95 183.335 25.06 183.695 25.16C184.375 25.32 185.055 25.47 185.735 25.61C186.435 25.73 187.055 25.86 187.595 26C188.255 26.14 188.855 26.37 189.395 26.69C189.955 27.01 190.405 27.45 190.745 28.01C191.105 28.55 191.285 29.26 191.285 30.14C191.285 31.14 191.085 31.97 190.685 32.63C190.285 33.27 189.745 33.78 189.065 34.16C188.405 34.54 187.675 34.81 186.875 34.97C186.095 35.13 185.315 35.21 184.535 35.21Z" fill="#299B46"/>
</svg>
