<svg width="40" height="40" viewBox="0 0 40 40" fill="none" xmlns="http://www.w3.org/2000/svg">
<path d="M29.5303 5.08167C27.8013 3.66594 25.7796 2.65158 23.6111 2.11176C21.4426 1.57194 19.1813 1.52011 16.9903 1.96C14.1732 2.53757 11.5814 3.91275 9.52385 5.92175C7.46626 7.93074 6.02952 10.4889 5.38478 13.2914C4.74005 16.0939 4.9145 19.0227 5.88734 21.7288C6.86019 24.435 8.59043 26.8045 10.872 28.555C13.4768 30.4615 15.6947 32.8468 17.407 35.5833L18.5736 37.5233C18.7218 37.7698 18.9312 37.9737 19.1815 38.1152C19.4318 38.2568 19.7144 38.3311 20.002 38.3311C20.2895 38.3311 20.5721 38.2568 20.8224 38.1152C21.0727 37.9737 21.2821 37.7698 21.4303 37.5233L22.5486 35.66C24.0397 33.039 26.0727 30.7662 28.512 28.9933C30.4246 27.6774 32.0053 25.935 33.1293 23.9035C34.2534 21.8721 34.8899 19.6073 34.9888 17.2878C35.0878 14.9682 34.6463 12.6574 33.6993 10.5377C32.7523 8.418 31.3257 6.54734 29.532 5.07333L29.5303 5.08167ZM20.0003 23.3333C18.6818 23.3333 17.3928 22.9423 16.2965 22.2098C15.2002 21.4773 14.3457 20.4361 13.8411 19.2179C13.3365 17.9997 13.2045 16.6593 13.4617 15.3661C13.719 14.0729 14.3539 12.885 15.2863 11.9526C16.2186 11.0203 17.4065 10.3853 18.6997 10.1281C19.9929 9.87086 21.3333 10.0029 22.5515 10.5075C23.7697 11.0121 24.8109 11.8665 25.5434 12.9629C26.276 14.0592 26.667 15.3481 26.667 16.6667C26.667 18.4348 25.9646 20.1305 24.7143 21.3807C23.4641 22.631 21.7684 23.3333 20.0003 23.3333Z" fill="#299B46"/>
</svg>
