<svg width="40" height="40" viewBox="0 0 40 40" fill="none" xmlns="http://www.w3.org/2000/svg">
<path d="M34.9216 4.84376C34.9743 4.89079 35.0271 4.93782 35.0815 4.98628C35.5535 5.43244 35.9411 5.9647 36.3278 6.48439C36.3612 6.52909 36.3946 6.57379 36.429 6.61985C37.3761 7.90926 38.0301 9.39491 38.4372 10.9375C38.4618 11.0291 38.4863 11.1206 38.5117 11.2149C39.2983 14.4966 38.6861 18.0998 36.9473 20.9799C36.7997 21.2062 36.6456 21.4241 36.4841 21.6406C36.424 21.7228 36.3638 21.805 36.3019 21.8897C35.6908 22.7123 35.0193 23.4968 34.2184 24.1406C34.1466 24.1998 34.0748 24.2589 34.0009 24.3198C31.9652 25.9631 29.2607 27.1095 26.6214 27.1253C26.5615 27.1257 26.5015 27.1262 26.4398 27.1266C26.3133 27.1273 26.1869 27.1279 26.0604 27.1282C25.872 27.1289 25.6837 27.1313 25.4953 27.1338C23.5788 27.1469 21.8478 26.6513 20.1119 25.8662C19.8673 25.7571 19.621 25.6522 19.3747 25.5469C19.311 25.6109 19.2473 25.6749 19.1817 25.7408C17.6678 27.2615 16.153 28.7814 14.6373 30.3002C14.4505 30.4874 14.2638 30.6746 14.077 30.8617C14.0399 30.899 14.0027 30.9362 13.9644 30.9746C13.3633 31.5771 12.7627 32.1801 12.1624 32.7833C11.5459 33.4027 10.9288 34.0216 10.3111 34.6399C9.96442 34.987 9.61801 35.3343 9.27225 35.6824C8.94654 36.0102 8.62009 36.3373 8.29308 36.6639C8.17345 36.7836 8.05409 36.9035 7.93502 37.0238C7.04763 37.9197 6.17991 38.7668 4.84433 38.7866C4.78281 38.7858 4.72129 38.785 4.6579 38.7842C4.56064 38.7833 4.56064 38.7833 4.46141 38.7824C3.47882 38.7561 2.68724 38.349 2.01142 37.6416C1.38615 36.8943 1.14611 36.019 1.18103 35.0501C1.36651 33.4515 2.60262 32.4635 3.67678 31.3922C3.79466 31.2743 3.91253 31.1564 4.03038 31.0386C4.3483 30.7206 4.66647 30.4029 4.98468 30.0852C5.31795 29.7525 5.651 29.4195 5.98407 29.0865C6.61391 28.4569 7.24394 27.8275 7.87405 27.1982C8.59179 26.4813 9.3093 25.7642 10.0268 25.0471C11.5019 23.5728 12.9773 22.0988 14.4528 20.625C14.4191 20.5482 14.4191 20.5482 14.3847 20.4698C14.2817 20.2348 14.179 19.9998 14.0762 19.7647C14.0409 19.6841 14.0055 19.6035 13.969 19.5205C12.5764 16.3297 12.4343 12.7716 13.6646 9.49811C14.2635 8.00467 15.069 6.67493 16.163 5.49226C16.3114 5.33038 16.4514 5.1642 16.5915 4.99513C16.9311 4.60751 17.3275 4.29874 17.7341 3.98439C17.7759 3.95104 17.8178 3.91769 17.861 3.88334C23.0124 -0.210013 30.1874 0.589107 34.9216 4.84376ZM21.0934 3.51564C21.0194 3.54866 21.0194 3.54866 20.9439 3.58236C19.6679 4.15676 18.5765 4.96323 17.5778 5.93751C17.5239 5.98656 17.4701 6.0356 17.4146 6.08613C15.3656 8.00097 14.2278 10.9925 14.1278 13.7546C14.0472 16.9701 15.2142 19.9346 17.4216 22.2656C17.5118 22.362 17.5118 22.362 17.6038 22.4603C19.7269 24.6623 22.7437 25.8192 25.7761 25.8789C29.0372 25.8151 31.9923 24.552 34.2838 22.228C36.3525 20.0587 37.551 17.0622 37.4997 14.0625C37.4086 11.5708 36.6731 9.0683 35.0778 7.10939C35.0451 7.06895 35.0124 7.02852 34.9786 6.98686C33.028 4.58927 30.2958 2.92667 27.1872 2.57814C25.0976 2.36775 23.0112 2.63899 21.0934 3.51564ZM15.1031 21.9185C15.018 22.0038 15.018 22.0038 14.9312 22.0909C14.835 22.1871 14.835 22.1871 14.7369 22.2853C14.6672 22.3553 14.5975 22.4254 14.5258 22.4976C14.4193 22.6042 14.4193 22.6042 14.3106 22.713C14.1215 22.9024 13.9327 23.0921 13.7439 23.2817C13.5513 23.4751 13.3585 23.6682 13.1657 23.8614C12.7873 24.2407 12.409 24.6203 12.0309 25C12.1385 25.2416 12.2615 25.406 12.4488 25.5918C12.5019 25.645 12.5551 25.6981 12.6099 25.7529C12.6672 25.8094 12.7245 25.8659 12.7835 25.9241C12.8422 25.9826 12.901 26.0411 12.9615 26.1014C13.149 26.288 13.337 26.4741 13.5251 26.6602C13.6524 26.7867 13.7796 26.9132 13.9069 27.0398C14.2187 27.3499 14.5309 27.6595 14.8434 27.9688C15.1025 27.8558 15.2725 27.715 15.4711 27.5151C15.5321 27.4541 15.5931 27.3931 15.6559 27.3303C15.7209 27.2644 15.786 27.1986 15.853 27.1308C15.9537 27.0296 15.9537 27.0296 16.0566 26.9265C16.2711 26.7111 16.485 26.4952 16.6989 26.2793C16.8442 26.1332 16.9896 25.9871 17.135 25.8411C17.4914 25.483 17.8473 25.1245 18.2028 24.7656C17.99 24.55 17.7781 24.3388 17.5452 24.1449C16.7428 23.4685 16.0411 22.7657 15.412 21.9205C15.3626 21.8593 15.3626 21.8593 15.3122 21.7969C15.2138 21.788 15.2138 21.788 15.1031 21.9185ZM10.8702 26.1519C10.8084 26.2141 10.7466 26.2763 10.683 26.3403C10.6163 26.4073 10.5495 26.4743 10.4808 26.5433C10.4107 26.6141 10.3405 26.6849 10.2683 26.7578C10.1626 26.864 10.1626 26.864 10.0548 26.9724C9.88 27.1481 9.70539 27.324 9.53095 27.5C9.63846 27.7416 9.76154 27.906 9.94877 28.0918C10.0019 28.145 10.0551 28.1981 10.1099 28.2529C10.1672 28.3094 10.2245 28.3659 10.2835 28.4241C10.3716 28.5119 10.3716 28.5119 10.4615 28.6014C10.649 28.788 10.837 28.9741 11.0251 29.1602C11.1524 29.2867 11.2796 29.4132 11.4069 29.5398C11.7187 29.8499 12.0309 30.1595 12.3434 30.4688C12.6032 30.3456 12.7744 30.2124 12.977 30.0067C13.0359 29.9473 13.0948 29.8879 13.1555 29.8267C13.2162 29.7646 13.277 29.7026 13.3395 29.6387C13.4015 29.576 13.4634 29.5134 13.5272 29.4489C13.6799 29.2944 13.8321 29.1396 13.9841 28.9844C13.653 28.5893 13.3074 28.2181 12.9425 27.8543C12.8896 27.8013 12.8367 27.7484 12.7822 27.6938C12.6714 27.5829 12.5605 27.4722 12.4495 27.3615C12.2788 27.1913 12.1086 27.0206 11.9383 26.8498C11.8304 26.7419 11.7224 26.6341 11.6144 26.5262C11.5633 26.4749 11.5122 26.4237 11.4595 26.3709C11.1875 26.0144 11.1875 26.0144 10.8702 26.1519ZM7.99506 29.0184C7.94068 29.0718 7.88631 29.1253 7.83029 29.1804C7.25959 29.7425 6.69137 30.307 6.12334 30.8717C5.8539 31.1394 5.58373 31.4063 5.31287 31.6726C4.98584 31.994 4.66019 32.3168 4.33545 32.6406C4.21168 32.7635 4.08743 32.886 3.9627 33.0081C2.93382 33.9902 2.93382 33.9902 2.54364 35.3223C2.62629 36.0543 2.88144 36.5369 3.4372 37.0313C3.95087 37.3685 4.46902 37.4825 5.07782 37.4219C5.65991 37.2619 6.04971 36.986 6.46412 36.5576C6.5191 36.5026 6.57408 36.4477 6.63072 36.3912C6.81023 36.2113 6.98802 36.0299 7.16584 35.8484C7.29073 35.7226 7.41573 35.597 7.54083 35.4714C7.86835 35.1421 8.19445 34.8114 8.52025 34.4804C8.85355 34.1423 9.18818 33.8055 9.52271 33.4686C10.1778 32.8085 10.8314 32.1469 11.4841 31.4844C11.1238 31.0585 11.1238 31.0585 10.741 30.6531C10.6928 30.6047 10.6446 30.5562 10.595 30.5063C10.5447 30.4562 10.4943 30.406 10.4425 30.3543C10.3896 30.3013 10.3367 30.2484 10.2822 30.1938C10.1714 30.0829 10.0605 29.9722 9.94952 29.8615C9.77882 29.6913 9.60856 29.5206 9.43833 29.3498C9.33037 29.2419 9.22239 29.1341 9.11438 29.0262C9.06328 28.9749 9.01218 28.9237 8.95953 28.8709C8.46909 28.383 8.44504 28.5734 7.99506 29.0184Z" fill="white"/>
<path d="M21.9142 6.98242C22.4314 7.07478 22.7583 7.62117 23.091 8.00781C23.1571 8.0841 23.1571 8.0841 23.2245 8.16193C23.4576 8.43177 23.6859 8.70405 23.9064 8.98438C24.1226 8.8806 24.3215 8.76465 24.5217 8.63281C25.086 8.28244 25.5911 8.21469 26.2502 8.28125C26.7211 8.39837 27.1514 8.55749 27.5002 8.90625C27.5389 8.98359 27.5389 8.98359 27.5783 9.0625C28.0383 8.56605 28.48 8.06478 28.8982 7.53204C29.1334 7.26277 29.3304 7.05429 29.6877 6.9873C30.0108 7.04789 30.1213 7.15728 30.3127 7.42188C30.3521 7.74862 30.3415 7.91914 30.1747 8.20587C30.1107 8.28392 30.0466 8.36197 29.9806 8.44238C29.9291 8.50635 29.9291 8.50635 29.8766 8.57161C29.6806 8.81278 29.4773 9.04759 29.2736 9.28223C29.2311 9.33116 29.1887 9.3801 29.145 9.43052C29.0622 9.52538 28.9788 9.61967 28.8946 9.71331C28.628 10.0151 28.628 10.0151 28.5158 10.3906C28.582 10.5973 28.6527 10.7914 28.7355 10.9912C28.9178 11.4368 29.049 11.8706 29.1408 12.3438C29.2216 12.3449 29.3024 12.346 29.3856 12.3472C29.6863 12.3517 29.9869 12.3578 30.2876 12.3643C30.4175 12.3668 30.5475 12.369 30.6775 12.3708C30.8646 12.3734 31.0517 12.3775 31.2389 12.3819C31.3256 12.3826 31.3256 12.3826 31.414 12.3834C31.7624 12.3933 31.9888 12.4415 32.2658 12.6562C32.4242 12.8738 32.4242 12.8738 32.5734 13.1299C32.627 13.2212 32.6806 13.3126 32.7343 13.4039C32.8117 13.5366 32.8117 13.5366 32.8908 13.6719C32.9384 13.7458 32.9861 13.8197 33.0352 13.8959C33.4362 14.5197 33.4362 14.5197 33.3596 14.9219C33.2941 15.1184 33.2369 15.2072 33.0764 15.3369C32.7866 15.4208 32.5425 15.4294 32.2658 15.3125C32.0171 15.0508 31.8491 14.7326 31.7093 14.4016C31.6029 14.1733 31.5062 14.0076 31.3283 13.8281C30.9762 13.7311 30.6452 13.7538 30.2834 13.7793C30.1886 13.7828 30.0939 13.7863 29.9962 13.79C29.7628 13.7992 29.5301 13.812 29.2971 13.8281C29.2979 13.8756 29.2988 13.9231 29.2996 13.9721C29.3044 14.4454 29.2772 14.9059 29.2238 15.376C29.2136 15.472 29.2136 15.472 29.2032 15.5699C29.1694 15.8789 29.1263 16.1799 29.0627 16.4844C29.1174 16.4831 29.1722 16.4819 29.2286 16.4807C29.4776 16.4758 29.7267 16.4727 29.9758 16.4697C30.0619 16.4678 30.1481 16.4658 30.2368 16.4638C30.3202 16.463 30.4035 16.4623 30.4894 16.4615C30.5659 16.4603 30.6424 16.459 30.7212 16.4578C30.9781 16.4893 31.1204 16.5669 31.3283 16.7188C31.4867 16.9363 31.4867 16.9363 31.6359 17.1924C31.6895 17.2838 31.7431 17.3753 31.7968 17.4667C31.8484 17.5551 31.9001 17.6434 31.9533 17.7344C32.0009 17.8074 32.0486 17.8804 32.0977 17.9556C32.2885 18.2494 32.413 18.4657 32.4758 18.8135C32.4048 19.1426 32.3062 19.2602 32.0314 19.4531C31.758 19.502 31.758 19.502 31.4846 19.4531C31.2356 19.2495 31.0826 19.0635 30.9651 18.768C30.8254 18.4267 30.6881 18.1213 30.3908 17.8906C29.8245 17.6947 29.163 17.7093 28.5939 17.8906C28.3493 18.1034 28.2684 18.2695 28.1499 18.569C27.8998 19.1991 27.3267 19.7124 26.7189 20C26.1118 20.2361 25.4709 20.2375 24.8616 20.0082C23.9943 19.5776 23.4481 18.8262 23.0471 17.9688C23.0471 17.9172 23.0471 17.8656 23.0471 17.8125C22.4283 17.8125 21.8096 17.8125 21.1721 17.8125C21.1205 17.9414 21.0689 18.0703 21.0158 18.2031C20.9176 18.3926 20.8176 18.5788 20.7131 18.7646C20.6866 18.8137 20.6601 18.8628 20.6328 18.9134C20.4832 19.1793 20.3765 19.36 20.0783 19.4531C19.7611 19.5004 19.6485 19.4811 19.3849 19.292C19.2222 19.067 19.1736 18.9582 19.1824 18.6844C19.2659 18.2985 19.5064 17.9682 19.7121 17.6367C19.7818 17.5204 19.7818 17.5204 19.8529 17.4017C20.3347 16.6072 20.3347 16.6072 20.7033 16.4844C20.8475 16.4779 20.992 16.476 21.1364 16.4767C21.2202 16.477 21.304 16.4772 21.3904 16.4775C21.4779 16.4782 21.5653 16.4788 21.6555 16.4795C21.788 16.48 21.788 16.48 21.9232 16.4806C22.1416 16.4815 22.36 16.4828 22.5783 16.4844C22.5541 16.4183 22.53 16.3522 22.5051 16.2842C22.3297 15.7169 22.3341 15.163 22.339 14.5752C22.3394 14.4957 22.3398 14.4162 22.3401 14.3343C22.341 14.1395 22.3423 13.9448 22.3439 13.75C21.1851 13.6072 21.1851 13.6072 20.1359 13.9673C19.8615 14.3046 19.6802 14.6837 19.5266 15.0888C19.4533 15.2344 19.4533 15.2344 19.2189 15.3906C18.8781 15.4348 18.7269 15.4292 18.4426 15.2295C18.285 15.0051 18.2366 14.8925 18.2451 14.6219C18.3282 14.236 18.5689 13.9056 18.7746 13.5742C18.8211 13.4967 18.8675 13.4191 18.9154 13.3392C19.3972 12.5447 19.3972 12.5447 19.7658 12.4219C19.9735 12.4152 20.1792 12.4128 20.3868 12.4142C20.4472 12.4144 20.5076 12.4145 20.5697 12.4146C20.7624 12.415 20.955 12.416 21.1476 12.417C21.2783 12.4174 21.409 12.4177 21.5396 12.4181C21.8598 12.4189 22.18 12.4203 22.5002 12.4219C22.5052 12.3555 22.5052 12.3555 22.5104 12.2878C22.5473 11.8829 22.6253 11.5389 22.7736 11.1572C22.9755 10.6698 22.9755 10.6698 23.0471 10.1562C22.9231 9.94671 22.7608 9.77964 22.593 9.60449C22.4992 9.50121 22.4056 9.39775 22.3122 9.29413C22.2651 9.24245 22.2179 9.19078 22.1694 9.13754C21.9644 8.90999 21.7685 8.67665 21.5773 8.4375C21.4823 8.32148 21.4823 8.32148 21.3854 8.20312C21.221 7.91818 21.2119 7.74598 21.2502 7.42188C21.4527 7.13345 21.5659 7.04462 21.9142 6.98242ZM24.6096 10.3906C23.6095 12.0705 23.365 14.1981 23.8039 16.0986C24.0418 17.0344 24.4206 18.1816 25.2834 18.7256C25.5732 18.8383 25.7105 18.8892 26.0158 18.8281C26.7724 18.4727 27.1724 17.843 27.4806 17.0898C28.2013 15.0534 28.1448 12.7869 27.2365 10.8203C26.9541 10.2953 26.5954 9.81098 26.0158 9.60938C25.4129 9.49832 24.9373 9.9371 24.6096 10.3906Z" fill="white"/>
<path d="M21.7189 4.6094C21.9804 4.79858 22.0908 4.91208 22.1583 5.22952C22.0935 5.54742 21.9597 5.73054 21.7189 5.93753C21.5385 6.05312 21.3535 6.15817 21.1674 6.26437C19.1518 7.50905 17.5525 9.63773 16.9749 11.9442C16.9051 12.2521 16.8377 12.5601 16.7792 12.8704C16.7191 13.173 16.6762 13.3889 16.4927 13.6408C16.2299 13.8154 16.0073 13.8112 15.7033 13.75C15.4738 13.597 15.4069 13.4982 15.3361 13.2328C15.3067 12.9017 15.3625 12.6305 15.4396 12.3096C15.4541 12.2476 15.4686 12.1856 15.4836 12.1217C16.2374 8.99794 18.1259 6.45587 20.8595 4.76565C21.1599 4.59648 21.3702 4.56658 21.7189 4.6094Z" fill="white"/>
<path d="M24.375 3.74999C24.5498 3.89097 24.5965 3.99205 24.6365 4.21111C24.6587 4.51599 24.6463 4.64401 24.4434 4.88281C24.1787 5.02088 24.0443 5.04904 23.75 4.99999C23.4831 4.84578 23.381 4.75114 23.2812 4.458C23.2812 4.16987 23.336 4.05116 23.5156 3.82812C23.7928 3.61037 24.0467 3.66642 24.375 3.74999Z" fill="white"/>
</svg>
