<svg width="40" height="40" viewBox="0 0 40 40" fill="none" xmlns="http://www.w3.org/2000/svg">
<g clip-path="url(#clip0_139_7739)">
<path d="M12.3719 16.3701C12.5346 16.6144 12.6471 16.8677 12.7527 17.1399C12.7748 17.1949 12.7969 17.25 12.8197 17.3067C12.8897 17.4815 12.9585 17.6567 13.0274 17.832C13.0748 17.9511 13.1223 18.0701 13.1699 18.1891C13.286 18.4799 13.4011 18.7711 13.5157 19.0625C13.8461 18.9356 14.1765 18.8086 14.5069 18.6816C14.6005 18.6457 14.6941 18.6097 14.7905 18.5727C14.8809 18.5379 14.9713 18.5032 15.0644 18.4674C15.1475 18.4355 15.2305 18.4036 15.3161 18.3707C15.5419 18.2867 15.5419 18.2867 15.7333 18.1915C16.2443 18.0251 16.6532 18.1301 17.1363 18.3301C17.1874 18.3509 17.2385 18.3717 17.2912 18.3931C17.4524 18.459 17.6129 18.5263 17.7735 18.5937C17.8835 18.639 17.9936 18.6842 18.1037 18.7292C18.3717 18.8392 18.6391 18.9504 18.9063 19.0625C19.1104 18.8583 19.1687 18.6592 19.2719 18.3893C19.3127 18.2844 19.3534 18.1795 19.3943 18.0746C19.458 17.9095 19.5215 17.7442 19.5845 17.5788C19.6456 17.419 19.7077 17.2596 19.7699 17.1002C19.8066 17.0046 19.8432 16.9091 19.881 16.8106C20.0746 16.407 20.0746 16.407 20.3125 16.25C20.984 16.1623 21.6401 16.3814 22.2867 16.5466C22.4093 16.5774 22.5319 16.6082 22.6545 16.6389C22.9103 16.7033 23.1659 16.7682 23.4214 16.8336C23.7485 16.9173 24.076 16.9991 24.4036 17.0805C24.6564 17.1435 24.909 17.2076 25.1614 17.2719C25.2821 17.3026 25.4029 17.3328 25.5237 17.3628C25.6924 17.4047 25.8608 17.448 26.029 17.4917C26.1248 17.5159 26.2205 17.5402 26.3191 17.5653C26.578 17.662 26.7029 17.7551 26.875 17.9687C26.9548 18.2691 26.9162 18.5221 26.7627 18.789C26.1827 19.1286 25.3715 18.8076 24.7708 18.6526C24.6671 18.6265 24.5634 18.6004 24.4597 18.5744C24.2437 18.52 24.0279 18.4652 23.8122 18.4098C23.5356 18.3389 23.2588 18.2689 22.9818 18.1991C22.7171 18.1325 22.4525 18.0654 22.1878 17.9983C22.0883 17.9731 21.9888 17.9479 21.8863 17.9219C21.7947 17.8984 21.7031 17.875 21.6088 17.8508C21.528 17.8301 21.4472 17.8095 21.3639 17.7882C21.1719 17.7343 21.1719 17.7343 21.0157 17.6562C20.9858 17.7498 20.956 17.8433 20.9253 17.9397C20.7548 18.4507 20.5533 18.9489 20.3516 19.4482C20.3132 19.5453 20.2749 19.6424 20.2365 19.7395C20.1811 19.8767 20.1811 19.8767 20.1245 20.0168C20.0913 20.0998 20.058 20.1829 20.0237 20.2685C19.9219 20.4687 19.9219 20.4687 19.6875 20.625C19.1992 20.6678 18.8692 20.5775 18.4281 20.3775C18.3087 20.3265 18.1894 20.2756 18.0699 20.2247C17.8846 20.1443 17.6996 20.0632 17.5151 19.9808C16.7612 19.5983 16.7612 19.5983 15.9595 19.5874C15.8467 19.6443 15.7354 19.704 15.625 19.7656C15.4506 19.8374 15.2754 19.9076 15.0998 19.9765C14.7398 20.1225 14.7398 20.1225 14.3807 20.2707C13.3187 20.7122 13.3187 20.7122 12.8125 20.625C12.5092 20.3866 12.3846 20.0908 12.2473 19.7406C12.2252 19.6859 12.2031 19.6312 12.1804 19.5749C12.1341 19.4599 12.0881 19.3447 12.0425 19.2294C11.9726 19.0524 11.9015 18.876 11.8302 18.6996C11.7852 18.5876 11.7404 18.4756 11.6956 18.3636C11.6744 18.3107 11.6531 18.2578 11.6312 18.2033C11.4844 17.8308 11.4844 17.8308 11.4844 17.6562C11.3649 17.6903 11.3649 17.6903 11.2431 17.725C10.5512 17.9206 9.85721 18.105 9.15958 18.2791C9.0808 18.2988 9.00201 18.3185 8.92084 18.3389C8.59566 18.4202 8.27045 18.5015 7.94498 18.5817C7.70352 18.6413 7.4623 18.7018 7.2211 18.7625C7.14842 18.7802 7.07574 18.7978 7.00086 18.816C6.61109 18.9149 6.26591 19.0361 5.91224 19.2287C5.78128 19.2968 5.78128 19.2968 5.54691 19.375C5.46084 19.5076 5.46084 19.5076 5.39066 19.6875C5.35037 19.7745 5.31009 19.8615 5.26859 19.9511C5.09935 20.3779 5.06837 20.7699 5.06771 21.2263C5.06753 21.2769 5.06736 21.3276 5.06718 21.3797C5.06668 21.5483 5.06674 21.7169 5.06681 21.8854C5.06658 22.0068 5.06631 22.1281 5.06601 22.2494C5.06533 22.5782 5.06514 22.907 5.06509 23.2358C5.06504 23.4415 5.06487 23.6471 5.06466 23.8528C5.06394 24.5709 5.06362 25.2889 5.06368 26.007C5.06373 26.6754 5.0629 27.3437 5.06167 28.012C5.06065 28.5867 5.06023 29.1613 5.06028 29.736C5.0603 30.0788 5.06008 30.4216 5.05925 30.7645C5.05849 31.0871 5.05849 31.4097 5.05906 31.7323C5.05914 31.8503 5.05895 31.9683 5.05848 32.0863C5.05204 33.2601 5.05204 33.2601 5.54691 34.2969C5.54691 34.3484 5.54691 34.4 5.54691 34.4531C6.15298 34.7683 6.67448 34.93 7.3585 34.9342C7.50145 34.9354 7.50145 34.9354 7.64729 34.9365C7.75185 34.937 7.85641 34.9374 7.96096 34.9379C8.07187 34.9386 8.18277 34.9394 8.29368 34.9402C8.59387 34.9423 8.89407 34.944 9.19426 34.9455C9.50832 34.9473 9.82237 34.9494 10.1364 34.9515C10.7307 34.9554 11.325 34.9589 11.9193 34.9623C12.5961 34.9661 13.2729 34.9704 13.9496 34.9747C15.3414 34.9836 16.7332 34.9919 18.125 35C18.125 33.7625 18.125 32.525 18.125 31.25C17.8521 31.2516 17.5792 31.2532 17.2981 31.2549C16.3975 31.2601 15.497 31.2636 14.5964 31.2662C14.0503 31.2678 13.5042 31.27 12.958 31.2736C12.4312 31.277 11.9044 31.2788 11.3776 31.2796C11.1764 31.2802 10.9751 31.2813 10.7739 31.283C10.4926 31.2853 10.2113 31.2856 9.92992 31.2855C9.8463 31.2866 9.76268 31.2877 9.67653 31.2889C9.11247 31.2857 9.11247 31.2857 8.85467 31.1013C8.74209 30.925 8.70773 30.8325 8.71097 30.625C8.71017 30.5734 8.70936 30.5219 8.70853 30.4687C8.76959 30.2389 8.87889 30.1487 9.06253 30C9.284 29.9615 9.284 29.9615 9.545 29.9624C9.64403 29.962 9.74307 29.9615 9.8451 29.9611C9.95465 29.9622 10.0642 29.9633 10.1738 29.9645C10.2893 29.9646 10.4048 29.9645 10.5203 29.9644C10.8337 29.9643 11.1471 29.9661 11.4606 29.9683C11.7882 29.9702 12.1158 29.9704 12.4434 29.9708C13.0637 29.9718 13.684 29.9743 14.3044 29.9775C15.0106 29.981 15.7168 29.9827 16.4231 29.9842C17.8758 29.9875 19.3286 29.993 20.7813 30C20.7969 29.9476 20.8125 29.8951 20.8285 29.8411C20.8596 29.737 20.8596 29.737 20.8913 29.6308C20.9118 29.5622 20.9322 29.4937 20.9532 29.4231C21.0451 29.1222 21.1472 28.8253 21.2509 28.5284C21.2732 28.4642 21.2955 28.4001 21.3185 28.3339C21.3915 28.1242 21.4647 27.9146 21.5381 27.7051C21.5634 27.6328 21.5887 27.5605 21.6148 27.486C21.7769 27.0233 21.9398 26.5609 22.1031 26.0985C22.1596 25.9386 22.216 25.7786 22.2723 25.6186C22.4389 25.1454 22.6066 24.6726 22.7758 24.2003C22.8291 24.0511 22.8821 23.9018 22.9348 23.7524C23.4654 22.2487 23.4654 22.2487 23.9063 21.7187C23.948 21.6683 23.9898 21.6179 24.0328 21.566C24.4038 21.1391 24.8787 20.9211 25.3907 20.7031C25.4594 20.6738 25.5281 20.6445 25.5989 20.6143C25.8348 20.5151 26.0715 20.4183 26.3086 20.3222C26.3854 20.2905 26.4621 20.2588 26.5412 20.2261C26.9861 20.0506 27.3337 19.9512 27.8125 20C28.0078 20.1172 28.0078 20.1172 28.125 20.3125C28.1678 20.5297 28.1821 20.7228 28.125 20.9375C27.8872 21.222 27.648 21.3378 27.3056 21.4718C27.2571 21.4913 27.2085 21.5107 27.1585 21.5307C27.0041 21.5925 26.8493 21.6533 26.6944 21.7138C25.5711 22.1533 25.0424 22.39 24.5313 23.5156C24.4068 23.8248 24.2963 24.1378 24.1883 24.4531C24.1581 24.5396 24.1278 24.6261 24.0967 24.7153C24.0001 24.9923 23.9044 25.2696 23.8086 25.5468C23.7424 25.7371 23.6762 25.9272 23.6099 26.1174C23.4804 26.4888 23.3511 26.8603 23.222 27.2318C23.0059 27.853 22.7856 28.4727 22.5635 29.0918C22.532 29.1797 22.5005 29.2676 22.4681 29.3582C22.4007 29.5461 22.3332 29.734 22.2657 29.9219C22.3359 29.9316 22.4061 29.9413 22.4784 29.9514C22.5702 29.9647 22.6621 29.978 22.7567 29.9917C22.8934 30.0112 22.8934 30.0112 23.0329 30.031C23.5669 30.1322 23.9189 30.5029 24.2188 30.9375C24.4428 31.3969 24.4041 31.8793 24.404 32.3785C24.4043 32.5467 24.4072 32.7148 24.4101 32.883C24.4183 33.8754 24.2152 34.6578 23.5157 35.3906C22.5979 36.2667 21.6207 36.296 20.4206 36.2904C20.2664 36.2908 20.1121 36.2914 19.9579 36.2921C19.5412 36.2935 19.1244 36.2929 18.7076 36.292C18.2703 36.2912 17.833 36.2919 17.3957 36.2924C16.6615 36.293 15.9273 36.2922 15.1931 36.2907C14.3457 36.289 13.4983 36.2896 12.6509 36.2913C11.9217 36.2927 11.1926 36.2929 10.4635 36.2921C10.0287 36.2916 9.59392 36.2915 9.15913 36.2926C8.75025 36.2935 8.34141 36.2928 7.93254 36.291C7.78298 36.2906 7.63342 36.2907 7.48387 36.2914C6.35792 36.2962 5.46233 36.2048 4.60941 35.3906C3.7896 34.5318 3.70358 33.6078 3.7096 32.4748C3.70917 32.3398 3.70862 32.2049 3.70794 32.0699C3.70652 31.7056 3.70706 31.3413 3.70806 30.977C3.70885 30.5944 3.70811 30.2118 3.70762 29.8293C3.70706 29.187 3.7078 28.5447 3.70929 27.9025C3.71099 27.1616 3.71044 26.4207 3.70872 25.6798C3.7073 25.0419 3.70711 24.404 3.70792 23.7661C3.70841 23.3859 3.70848 23.0057 3.70744 22.6255C3.70653 22.2679 3.70717 21.9104 3.70897 21.5528C3.70938 21.4221 3.70927 21.2915 3.70858 21.1608C3.70343 20.0929 3.8458 19.2374 4.60941 18.4375C5.38235 17.6996 6.38523 17.5092 7.39322 17.2571C7.50942 17.2277 7.62562 17.1984 7.74181 17.1691C7.98375 17.1081 8.22577 17.0475 8.46786 16.9871C8.77653 16.91 9.0849 16.8318 9.39319 16.7533C9.63247 16.6925 9.87193 16.6325 10.1114 16.5727C10.2252 16.5442 10.3389 16.5154 10.4525 16.4864C11.96 16.1017 11.96 16.1017 12.3719 16.3701ZM19.375 31.25C19.375 32.4875 19.375 33.725 19.375 35C20.9863 35.1159 20.9863 35.1159 22.4219 34.5312C23.0235 33.9253 23.1382 33.3436 23.1446 32.5C23.1462 32.4464 23.1478 32.3928 23.1494 32.3376C23.1523 31.9685 23.1 31.712 22.8907 31.4062C22.5349 31.2049 22.1749 31.2299 21.7783 31.2347C21.7173 31.2349 21.6562 31.235 21.5933 31.2352C21.3666 31.236 21.1399 31.2382 20.9131 31.2402C20.4056 31.2434 19.898 31.2467 19.375 31.25Z" fill="white"/>
<path d="M14.0613 -0.0239486C14.1386 -0.024924 14.1386 -0.024924 14.2174 -0.0259191C14.3864 -0.027788 14.5553 -0.0284858 14.7242 -0.0290031C14.8433 -0.0297051 14.9623 -0.0304177 15.0813 -0.0311405C15.3306 -0.0324255 15.5799 -0.0330297 15.8291 -0.0332565C16.1453 -0.0336749 16.4614 -0.0366107 16.7775 -0.0401896C17.0235 -0.0425388 17.2695 -0.0430791 17.5155 -0.043157C17.6318 -0.0434811 17.7482 -0.0444355 17.8645 -0.046088C19.0321 -0.0613431 20.0099 0.183492 20.9376 0.937489C21.0027 0.986433 21.0677 1.03538 21.1348 1.0858C21.8439 1.68754 22.2938 2.62111 22.5001 3.51561C22.5175 3.77488 22.515 4.03229 22.5099 4.29198C22.5092 4.36031 22.5085 4.42864 22.5078 4.49904C22.5059 4.66603 22.5031 4.83301 22.5001 4.99999C22.5648 4.99835 22.6294 4.99672 22.696 4.99503C22.9888 4.98853 23.2815 4.98447 23.5743 4.98046C23.6761 4.97784 23.7778 4.97522 23.8826 4.97252C23.9803 4.97152 24.0779 4.97051 24.1786 4.96947C24.3136 4.96702 24.3136 4.96702 24.4513 4.96451C24.737 5.0074 24.8257 5.08721 25.0001 5.31249C25.0416 5.46874 25.0416 5.46874 25.0392 5.62499C25.0404 5.70233 25.0404 5.70233 25.0416 5.78124C24.9803 6.01219 24.8732 6.10154 24.6876 6.24999C24.4513 6.28547 24.4513 6.28547 24.1786 6.28051C24.0809 6.2795 23.9832 6.27849 23.8826 6.27745C23.7809 6.27484 23.6791 6.27222 23.5743 6.26952C23.4714 6.26811 23.3685 6.2667 23.2625 6.26525C23.0083 6.26156 22.7542 6.25642 22.5001 6.24999C22.5008 6.30709 22.5015 6.36419 22.5022 6.42302C22.5085 6.96646 22.5133 7.50989 22.5163 8.05335C22.5179 8.33262 22.5201 8.61186 22.5237 8.89111C22.5271 9.16162 22.529 9.4321 22.5298 9.70262C22.5306 9.85384 22.533 10.005 22.5355 10.1562C22.5358 11.1007 22.337 12.0033 21.8898 12.8418C21.8626 12.894 21.8355 12.9463 21.8075 13.0001C21.5845 13.4181 21.3361 13.7902 21.0158 14.1406C20.9532 14.2103 20.8907 14.28 20.8262 14.3518C19.7791 15.4611 18.313 16.2206 16.7711 16.2839C16.6023 16.2857 16.4335 16.2858 16.2648 16.2842C16.1757 16.2835 16.0866 16.2828 15.9949 16.282C14.5356 16.2521 13.2137 15.7218 12.1095 14.7656C12.0467 14.7181 11.9838 14.6705 11.9191 14.6216C11.3498 14.1425 10.9334 13.4793 10.5958 12.8223C10.5717 12.7765 10.5475 12.7307 10.5226 12.6835C9.98635 11.5856 9.95315 10.4895 9.95862 9.29351C9.95841 9.12928 9.95811 8.96504 9.95772 8.80081C9.95726 8.45865 9.95792 8.11652 9.95938 7.77436C9.96117 7.33806 9.96014 6.90183 9.95827 6.46553C9.95713 6.12711 9.9575 5.78871 9.95831 5.45029C9.95852 5.28949 9.95827 5.12869 9.95753 4.96789C9.95452 4.12275 9.95363 3.36252 10.3126 2.57811C10.3511 2.49221 10.3896 2.40631 10.4292 2.3178C11.0649 1.17747 11.9718 0.478224 13.2214 0.0746887C13.5136 0.000527147 13.7606 -0.0212437 14.0613 -0.0239486ZM12.1129 2.24669C11.3639 3.06868 11.3202 3.87861 11.2501 4.99999C14.5501 4.99999 17.8501 4.99999 21.2501 4.99999C21.1687 3.69775 21.0751 2.91538 20.1512 2.03337C19.3043 1.31981 18.3409 1.23809 17.2767 1.23687C17.1565 1.23648 17.1565 1.23648 17.0339 1.23608C16.8651 1.23568 16.6962 1.2355 16.5273 1.23551C16.2715 1.23534 16.0158 1.23392 15.76 1.23244C14.3674 1.22859 13.1846 1.24133 12.1129 2.24669ZM11.2501 6.24999C11.2501 6.99764 11.2501 7.7453 11.2501 8.51561C11.819 8.45548 11.819 8.45548 12.3696 8.34973C12.4432 8.33253 12.5167 8.31533 12.5925 8.29761C12.6697 8.27922 12.7469 8.26082 12.8264 8.24187C12.9942 8.20292 13.1621 8.16402 13.3301 8.12514C13.5914 8.06419 13.8526 8.00293 14.1137 7.94099C14.368 7.88085 14.6225 7.82202 14.8771 7.76336C14.9538 7.7448 15.0305 7.72625 15.1095 7.70713C16.0227 7.49878 16.8171 7.56851 17.7223 7.78319C17.8139 7.804 17.9054 7.82481 17.9998 7.84625C18.2892 7.91217 18.5783 7.97944 18.8673 8.04686C19.1587 8.11404 19.4501 8.18093 19.7415 8.24748C19.9221 8.28879 20.1026 8.33051 20.2831 8.37268C20.3645 8.39145 20.4459 8.41022 20.5298 8.42955C20.6012 8.44621 20.6726 8.46286 20.7462 8.48002C20.9564 8.52513 20.9564 8.52513 21.2501 8.51561C21.2501 7.76796 21.2501 7.0203 21.2501 6.24999C17.9501 6.24999 14.6501 6.24999 11.2501 6.24999ZM14.9595 9.04479C14.8574 9.06722 14.7552 9.08961 14.653 9.11198C14.4398 9.15876 14.2267 9.20596 14.0137 9.25345C13.7406 9.31431 13.4673 9.37413 13.1938 9.43364C12.9832 9.4796 12.7728 9.52611 12.5623 9.57279C12.4125 9.60591 12.2627 9.63855 12.1128 9.67119C12.0223 9.69151 11.9318 9.71183 11.8386 9.73277C11.7587 9.75046 11.6788 9.76816 11.5965 9.78639C11.3945 9.83097 11.3945 9.83097 11.2501 9.99999C11.2638 11.3841 11.8108 12.5662 12.7696 13.5571C13.7837 14.5123 14.9466 14.9589 16.3283 15C17.7916 14.956 18.9923 14.3457 19.9904 13.2861C20.8607 12.2663 21.134 11.2256 21.2501 9.92186C20.3458 9.66935 19.4342 9.45601 18.5178 9.252C18.2795 9.19878 18.0413 9.14468 17.8032 9.09056C17.6501 9.05633 17.497 9.02215 17.3439 8.98803C17.2383 8.96386 17.2383 8.96386 17.1305 8.93921C16.3549 8.7687 15.7284 8.87348 14.9595 9.04479Z" fill="white"/>
<path d="M35.7033 27.7344C35.885 27.8817 35.9967 27.9749 36.0573 28.2031C36.053 28.4771 36.0441 28.6294 35.8888 28.8623C35.656 29.0155 35.5139 29.0518 35.2345 29.0625C35.0974 29.0252 35.0974 29.0252 34.9574 28.9871C33.7742 28.6795 32.4766 28.8689 31.4006 29.4199C31.1829 29.5501 30.9828 29.6896 30.7814 29.8437C30.715 29.8942 30.6485 29.9447 30.58 29.9966C29.7655 30.67 29.2404 31.5563 28.9845 32.5781C28.9696 32.6359 28.9547 32.6937 28.9394 32.7533C28.7163 34.2113 29.0459 35.3889 29.7658 36.6406C30.1616 36.3095 30.5315 35.963 30.8937 35.5957C30.9434 35.5456 30.9931 35.4956 31.0443 35.444C31.1652 35.3222 31.2859 35.2003 31.4064 35.0781C31.3762 35.0242 31.346 34.9704 31.3149 34.9149C30.8834 34.1364 30.5342 33.4932 30.5275 32.5928C30.5259 32.5391 30.5243 32.4855 30.5226 32.4303C30.518 31.8136 30.7617 31.3607 31.1782 30.9167C31.6631 30.4791 32.2743 30.4975 32.8935 30.52C33.6944 30.5895 34.3287 30.9891 35.0002 31.4062C35.5097 30.988 35.9685 30.5224 36.4308 30.0537C36.5849 29.8975 36.7393 29.7416 36.8938 29.5859C36.9615 29.5173 37.0292 29.4486 37.099 29.378C37.3525 29.136 37.5374 29.1077 37.8896 29.1147C38.165 29.1601 38.2678 29.3179 38.4377 29.5312C38.4987 29.5998 38.4987 29.5998 38.561 29.6698C39.7401 31.0561 40.0638 32.7588 39.922 34.5312C39.7761 35.7923 39.2154 36.9579 38.3595 37.8906C38.3077 37.9496 38.2558 38.0087 38.2024 38.0695C37.1607 39.1901 35.6346 39.8834 34.106 39.9481C32.401 39.9755 30.826 39.6175 29.5314 38.4375C29.4675 38.3807 29.4035 38.3239 29.3376 38.2654C28.2542 37.2491 27.5277 35.7658 27.4663 34.2709C27.4644 34.1022 27.4644 33.9334 27.466 33.7646C27.4667 33.6756 27.4674 33.5865 27.4681 33.4948C27.4979 32.0396 28.0257 30.7082 28.9845 29.6094C29.075 29.4959 29.075 29.4959 29.1673 29.3802C29.7931 28.6306 30.6651 28.1571 31.5627 27.8125C31.6505 27.7786 31.7383 27.7446 31.8288 27.7097C32.944 27.3492 34.6082 27.2477 35.7033 27.7344ZM37.4969 30.9319C37.4286 31.0006 37.3603 31.0693 37.2899 31.1401C37.2536 31.1765 37.2173 31.213 37.1799 31.2505C37.0635 31.3673 36.9474 31.4844 36.8312 31.6016C36.7526 31.6806 36.6739 31.7597 36.5952 31.8387C36.4018 32.0329 36.2088 32.2273 36.0158 32.4219C36.0475 32.4794 36.0793 32.537 36.112 32.5963C36.1539 32.6726 36.1957 32.7489 36.2389 32.8275C36.301 32.9404 36.301 32.9404 36.3644 33.0556C36.6994 33.6846 36.8894 34.1903 36.8947 34.9072C36.8963 34.9609 36.8979 35.0145 36.8996 35.0697C36.9034 35.5776 36.7595 35.9207 36.4699 36.3428C36.0277 36.7849 35.6519 36.9059 35.0246 36.9141C34.0112 36.8998 33.3132 36.5355 32.422 36.0156C31.8806 36.557 31.3392 37.0984 30.7814 37.6562C31.5805 38.4554 32.6308 38.6932 33.7258 38.7109C35.1592 38.706 36.2679 38.2056 37.3165 37.222C38.3195 36.1806 38.7077 34.9781 38.7059 33.5608C38.6851 32.5209 38.3864 31.6083 37.7345 30.7812C37.6293 30.7723 37.6293 30.7723 37.4969 30.9319ZM31.9826 31.9824C31.8115 32.3091 31.8218 32.6083 31.8752 32.9687C32.0019 33.3608 32.1991 33.7169 32.422 34.0625C32.8178 33.7314 33.1877 33.3848 33.55 33.0176C33.5997 32.9675 33.6494 32.9175 33.7006 32.8659C33.8215 32.7441 33.9422 32.6221 34.0627 32.5C33.6998 32.1056 33.2854 31.9202 32.7553 31.8445C32.4558 31.8321 32.2501 31.8423 31.9826 31.9824ZM34.8479 33.5809C34.7503 33.6791 34.7503 33.6791 34.6507 33.7793C34.5805 33.8498 34.5103 33.9203 34.4379 33.9929C34.3633 34.0682 34.2887 34.1435 34.214 34.2187C34.1391 34.294 34.0642 34.3693 33.9893 34.4446C33.8052 34.6295 33.6214 34.8147 33.4377 35C33.6102 35.1788 33.7599 35.2923 33.9845 35.4004C34.0377 35.4264 34.0909 35.4524 34.1457 35.4791C34.534 35.6529 34.8932 35.671 35.3127 35.625C35.534 35.5339 35.534 35.5339 35.6252 35.3125C35.7446 34.605 35.4691 34.0144 35.0783 33.4375C34.9748 33.4286 34.9748 33.4286 34.8479 33.5809Z" fill="white"/>
<path d="M2.75548 7.47374C2.83321 7.47322 2.91095 7.4727 2.99103 7.47216C3.15526 7.47137 3.3195 7.47101 3.48373 7.47103C3.73373 7.47069 3.98362 7.46785 4.2336 7.46489C4.39356 7.46443 4.55353 7.46412 4.71349 7.46397C4.82473 7.46229 4.82473 7.46229 4.93821 7.46057C5.50293 7.46441 5.9187 7.59058 6.3471 7.96599C6.38919 8.01685 6.43129 8.0677 6.47466 8.1201C6.51796 8.17076 6.56127 8.22141 6.60589 8.2736C6.93997 8.75849 6.90414 9.25501 6.904 9.8246C6.90435 9.98409 6.90718 10.1434 6.91015 10.3029C6.91218 10.9893 6.87309 11.4425 6.40905 11.972C6.35819 12.0141 6.30733 12.0562 6.25493 12.0996C6.20428 12.1429 6.15362 12.1862 6.10143 12.2308C5.72224 12.4921 5.38744 12.5209 4.93657 12.5097C4.65862 12.5049 4.65862 12.5049 4.37505 12.5C4.37505 12.9125 4.37505 13.325 4.37505 13.75C4.49751 13.7464 4.61997 13.7427 4.74614 13.739C4.9089 13.7361 5.07166 13.7332 5.23443 13.7305C5.31489 13.7278 5.39536 13.7252 5.47826 13.7225C6.09078 13.7147 6.50723 13.8086 6.9721 14.216C7.01419 14.2668 7.05629 14.3177 7.09966 14.3701C7.14296 14.4208 7.18627 14.4714 7.23089 14.5236C7.5361 14.9666 7.5629 15.4138 7.50005 15.9375C7.38286 16.1474 7.38286 16.1474 7.18755 16.25C6.88125 16.3084 6.64956 16.3041 6.38189 16.1377C6.22439 15.8985 6.15997 15.6697 6.09411 15.3924C6.02751 15.218 6.02751 15.218 5.83936 15.1476C5.62607 15.0784 5.46573 15.0583 5.24267 15.0579C5.13198 15.0572 5.13198 15.0572 5.01907 15.0564C4.94028 15.0567 4.8615 15.057 4.78032 15.0574C4.65769 15.0571 4.65769 15.0571 4.53258 15.0569C4.36001 15.0568 4.18744 15.0571 4.01487 15.0577C3.751 15.0586 3.48718 15.0577 3.22332 15.0567C3.05547 15.0569 2.88762 15.0571 2.71978 15.0574C2.64099 15.057 2.56221 15.0567 2.48103 15.0564C2.40725 15.0569 2.33346 15.0574 2.25744 15.0579C2.16058 15.0581 2.16058 15.0581 2.06176 15.0583C1.83779 15.0821 1.68169 15.1241 1.48443 15.2344C1.27729 15.5969 1.30636 15.9762 1.30833 16.3812C1.30809 16.4578 1.30785 16.5344 1.3076 16.6133C1.30697 16.8703 1.30747 17.1273 1.30796 17.3843C1.30775 17.5685 1.30747 17.7526 1.30713 17.9368C1.30641 18.4372 1.30669 18.9375 1.30719 19.4379C1.30746 19.7503 1.30741 20.0628 1.30727 20.3752C1.30724 20.4271 1.30722 20.479 1.30719 20.5324C1.30714 20.6378 1.30709 20.7432 1.30704 20.8486C1.3066 21.8366 1.30711 22.8247 1.30795 23.8128C1.30865 24.6606 1.30853 25.5083 1.30781 26.3561C1.30697 27.3407 1.30664 28.3252 1.30712 29.3097C1.30717 29.4147 1.30722 29.5197 1.30727 29.6247C1.30729 29.6764 1.30732 29.728 1.30734 29.7813C1.30747 30.1452 1.30724 30.5092 1.30688 30.8732C1.30643 31.3631 1.30674 31.853 1.30764 32.3429C1.30785 32.5229 1.30779 32.7029 1.30745 32.8829C1.30702 33.1282 1.30755 33.3735 1.30833 33.6188C1.30799 33.6904 1.30764 33.7619 1.30728 33.8356C1.30938 34.176 1.31166 34.4616 1.48443 34.7656C1.77688 34.9362 2.04719 34.9414 2.38073 34.9432C2.52476 34.9456 2.52476 34.9456 2.67171 34.9481C2.87333 34.9501 3.07495 34.9516 3.27657 34.9524C3.42046 34.9551 3.42046 34.9551 3.56725 34.9579C3.65477 34.9585 3.74229 34.9592 3.83247 34.9598C4.11119 35.0085 4.20288 35.0925 4.37505 35.3125C4.41655 35.4687 4.41655 35.4687 4.41411 35.625C4.41492 35.6765 4.41572 35.7281 4.41655 35.7812C4.35426 36.0158 4.25376 36.1012 4.06255 36.25C3.84952 36.2811 3.66864 36.2939 3.45586 36.2915C3.39709 36.2918 3.33833 36.2921 3.27778 36.2924C3.15354 36.2926 3.02929 36.292 2.90506 36.2907C2.71657 36.2891 2.52832 36.2907 2.33983 36.2927C1.62602 36.2941 1.08865 36.2753 0.528005 35.784C0.485909 35.7331 0.443813 35.6823 0.400441 35.6299C0.357137 35.5792 0.313833 35.5286 0.269216 35.4764C-0.0313864 35.0401 -0.0224824 34.6386 -0.0208418 34.1257C-0.0211958 34.0448 -0.0215497 33.9639 -0.0219144 33.8805C-0.0229047 33.609 -0.0227756 33.3374 -0.0226467 33.0658C-0.0231141 32.8713 -0.0236458 32.6767 -0.0242369 32.4822C-0.0254752 32.0083 -0.0259641 31.5345 -0.0260513 31.0606C-0.0261256 30.6754 -0.0264469 30.2901 -0.0269421 29.9049C-0.0283179 28.8123 -0.0290387 27.7196 -0.0289215 26.627C-0.0289153 26.5681 -0.0289092 26.5092 -0.0289028 26.4486C-0.0288964 26.3896 -0.02889 26.3306 -0.0288834 26.2699C-0.0288199 25.3145 -0.0303149 24.3591 -0.0325181 23.4037C-0.0347633 22.4224 -0.0358416 21.441 -0.0357066 20.4597C-0.0356548 19.9088 -0.0360827 19.358 -0.0377657 18.8072C-0.0393385 18.2892 -0.0392913 17.7711 -0.0381537 17.2531C-0.0379902 17.063 -0.0383601 16.8729 -0.0393038 16.6828C-0.0405091 16.4232 -0.039785 16.1636 -0.0385802 15.904C-0.0393839 15.8289 -0.0401876 15.7537 -0.0410156 15.6763C-0.0352838 15.1169 0.0942245 14.7023 0.466054 14.2779C0.516912 14.2358 0.567769 14.1937 0.620168 14.1504C0.670824 14.1071 0.72148 14.0638 0.773671 14.0191C1.09422 13.7983 1.37278 13.7304 1.75939 13.7347C1.8392 13.7352 1.91901 13.7357 2.00124 13.7363C2.12489 13.7382 2.12489 13.7382 2.25103 13.7402C2.33497 13.7409 2.41891 13.7416 2.50539 13.7424C2.71195 13.7442 2.9185 13.747 3.12505 13.75C3.12505 13.3375 3.12505 12.925 3.12505 12.5C2.94458 12.5064 2.76411 12.5129 2.57818 12.5195C1.98732 12.5253 1.60651 12.4531 1.17498 12.0413C0.628425 11.4513 0.595909 10.9645 0.596097 10.1754C0.595757 10.0159 0.592919 9.85656 0.589956 9.6971C0.587922 9.01071 0.627012 8.55748 1.09105 8.02794C1.14191 7.98584 1.19277 7.94375 1.24517 7.90037C1.29582 7.85707 1.34648 7.81377 1.39867 7.76915C1.83477 7.46867 2.24239 7.47493 2.75548 7.47374ZM2.0313 8.98436C1.83752 9.29765 1.84897 9.63625 1.85064 9.9951C1.84938 10.049 1.84812 10.103 1.84682 10.1585C1.84647 10.5278 1.9002 10.7879 2.10943 11.0937C2.56225 11.3341 3.07335 11.2761 3.57189 11.2746C3.74438 11.2744 3.91677 11.2762 4.08925 11.2782C4.19988 11.2784 4.31051 11.2784 4.42113 11.2784C4.52093 11.2786 4.62072 11.2788 4.72354 11.2791C5.02396 11.2475 5.21272 11.1733 5.4688 11.0156C5.66258 10.7023 5.65113 10.3637 5.64946 10.0049C5.65072 9.95094 5.65198 9.89701 5.65328 9.84145C5.65363 9.47221 5.5999 9.21209 5.39068 8.90623C4.93785 8.66588 4.42675 8.72383 3.92822 8.72532C3.75572 8.72557 3.58333 8.72373 3.41085 8.72176C3.30022 8.72158 3.1896 8.72152 3.07897 8.7216C2.97917 8.72137 2.87938 8.72114 2.77656 8.7209C2.47614 8.7525 2.28738 8.82668 2.0313 8.98436Z" fill="white"/>
<path d="M35.3118 16.0406C35.7331 16.3701 36.0362 16.7814 36.1577 17.3047C36.1625 17.3691 36.1674 17.4336 36.1724 17.5C36.2707 17.5145 36.3689 17.529 36.4702 17.5439C37.2166 17.712 37.8526 18.2034 38.2817 18.8281C38.7832 19.694 38.8924 20.603 38.6998 21.5869C38.4378 22.3754 37.895 23.0077 37.188 23.4375C36.4899 23.75 36.4899 23.75 36.1724 23.75C36.1691 23.8128 36.1659 23.8757 36.1626 23.9404C36.0194 24.5235 35.6528 24.963 35.1598 25.2954C34.4722 25.7064 33.6665 25.7492 32.8902 25.571C32.1278 25.2919 31.6747 24.7865 31.3286 24.0625C31.2845 23.9268 31.2437 23.7901 31.2065 23.6523C31.1029 23.275 30.9987 23.0755 30.7036 22.8125C30.4748 22.7105 30.242 22.6431 30.0005 22.5781C29.5162 22.4097 29.5162 22.4097 29.3755 22.1875C29.315 21.6428 29.315 21.6428 29.5064 21.3888C29.8417 21.1324 30.2232 21.2023 30.6255 21.25C31.2914 21.4046 31.8558 21.7967 32.2295 22.3715C32.4075 22.7129 32.534 23.0634 32.6567 23.4277C32.7776 23.7692 32.8725 23.9635 33.2036 24.1406C33.6172 24.3235 33.8752 24.2932 34.2885 24.1574C34.5973 23.9799 34.7397 23.7554 34.8458 23.4198C34.8662 23.3322 34.8867 23.2446 34.9077 23.1543C35.0461 22.6786 35.0461 22.6786 35.3276 22.4853C35.4852 22.4518 35.6428 22.4184 35.8007 22.3865C36.432 22.2547 36.8062 22.0041 37.188 21.4844C37.3962 21.0505 37.3963 20.6289 37.3442 20.1562C37.2805 19.9751 37.2063 19.8222 37.1077 19.6579C37.0317 19.5312 37.0317 19.5312 36.9536 19.2969C36.817 19.2122 36.817 19.2122 36.6411 19.1406C36.575 19.1019 36.509 19.0633 36.4409 19.0234C36.132 18.8886 35.8479 18.847 35.515 18.8064C35.26 18.7352 35.1618 18.6461 35.0005 18.4375C34.9297 18.2327 34.9297 18.2327 34.8833 18.0127C34.7985 17.6688 34.7185 17.4363 34.4536 17.1875C34.1028 16.9764 33.7585 16.9802 33.3599 17.0312C33.0004 17.2077 32.8424 17.3871 32.6567 17.7344C32.606 17.8846 32.5589 18.0361 32.5151 18.1885C32.2637 18.9618 31.8126 19.454 31.1046 19.8465C30.6657 20.0423 30.1591 20.0855 29.688 20C29.4993 19.856 29.3954 19.7625 29.334 19.5312C29.3348 19.4797 29.3356 19.4281 29.3364 19.375C29.3356 19.3234 29.3348 19.2719 29.334 19.2187C29.3948 18.9897 29.5044 18.8965 29.688 18.75C29.89 18.6819 29.89 18.6819 30.1079 18.6377C30.5172 18.5351 30.7343 18.442 31.0161 18.125C31.1178 17.9233 31.1834 17.7153 31.2505 17.5C31.5557 16.6109 31.9591 16.123 32.813 15.7031C33.6126 15.4212 34.623 15.5824 35.3118 16.0406Z" fill="white"/>
</g>
<defs>
<clipPath id="clip0_139_7739">
<rect width="40" height="40" fill="white"/>
</clipPath>
</defs>
</svg>
