<svg width="40" height="40" viewBox="0 0 40 40" fill="none" xmlns="http://www.w3.org/2000/svg">
<g clip-path="url(#clip0_410_304)">
<path d="M20 40C31.0429 40 40 31.0429 40 20C40 8.95712 31.0429 0 20 0C8.95712 0 0 8.95712 0 20C0 31.0429 8.95712 40 20 40ZM18.5714 8.57145C18.5714 7.7857 19.2143 7.14283 20 7.14283C20.7857 7.14283 21.4286 7.7857 21.4286 8.57145V19.3143L28.0358 24.6C28.6501 25.0929 28.75 25.9928 28.2571 26.6071C27.9785 26.9571 27.5643 27.1428 27.1428 27.1428C26.8285 27.1428 26.5142 27.0428 26.25 26.8285L19.1072 21.1143C18.7715 20.8428 18.5715 20.4358 18.5715 20V8.57145H18.5714Z" fill="#299B46"/>
</g>
<defs>
<clipPath id="clip0_410_304">
<rect width="40" height="40" fill="white"/>
</clipPath>
</defs>
</svg>
