<svg width="41" height="40" viewBox="0 0 41 40" fill="none" xmlns="http://www.w3.org/2000/svg">
<path d="M28.0066 29.8924C28.5279 30.7486 28.6841 31.7549 28.4466 32.7286C28.2104 33.7011 27.6079 34.5249 26.7516 35.0461L23.6466 36.9361C23.0504 37.2986 22.3816 37.4811 21.7079 37.4811C21.1029 37.4811 20.4929 37.3349 19.9266 37.0399C13.4066 33.6586 9.68414 28.6374 8.04539 25.9461C4.41414 19.9811 3.65164 14.1036 3.65039 10.2249C3.65039 8.91737 4.32289 7.72487 5.45039 7.03737L8.55664 5.14737C9.41164 4.62612 10.4179 4.46987 11.3929 4.70737C12.3654 4.94362 13.1891 5.54487 13.7091 6.40112L15.6591 9.60362C16.7341 11.3711 16.1716 13.6824 14.4054 14.7574L12.7966 15.7361C12.3141 16.0299 12.0791 16.6199 12.2404 17.1374C12.7716 18.8561 13.5166 20.5074 14.4529 22.0461C15.3866 23.5799 16.5104 24.9974 17.7904 26.2599C18.1866 26.6499 18.8054 26.7136 19.2966 26.4149L20.9041 25.4361C22.6679 24.3586 24.9816 24.9224 26.0579 26.6886L28.0079 29.8924H28.0066ZM20.6116 14.8674C23.3366 15.2874 25.2104 17.8474 24.7904 20.5711C24.6854 21.2536 25.1529 21.8924 25.8354 21.9974C25.9004 22.0074 25.9641 22.0124 26.0279 22.0124C26.6341 22.0124 27.1666 21.5699 27.2616 20.9524C27.8916 16.8649 25.0804 13.0274 20.9941 12.3961C20.3129 12.2936 19.6729 12.7586 19.5679 13.4399C19.4629 14.1224 19.9304 14.7611 20.6116 14.8661V14.8674ZM21.7554 7.45487C21.0791 7.34987 20.4341 7.81737 20.3291 8.49987C20.2241 9.18112 20.6916 9.81987 21.3741 9.92612C24.0141 10.3336 26.3366 11.7449 27.9154 13.8999C29.4941 16.0549 30.1391 18.6949 29.7316 21.3349C29.6266 22.0161 30.0941 22.6549 30.7766 22.7611C30.8404 22.7711 30.9054 22.7761 30.9691 22.7761C31.5754 22.7761 32.1079 22.3336 32.2029 21.7161C32.7129 18.4161 31.9066 15.1161 29.9329 12.4224C27.9591 9.72862 25.0554 7.96487 21.7554 7.45487ZM22.5179 2.51362C21.8379 2.41237 21.1966 2.87612 21.0916 3.55862C20.9866 4.23987 21.4541 4.87862 22.1366 4.98487C30.3104 6.24612 35.9341 13.9224 34.6729 22.0974C34.5679 22.7786 35.0354 23.4174 35.7179 23.5236C35.7816 23.5336 35.8466 23.5386 35.9104 23.5386C36.5166 23.5386 37.0491 23.0961 37.1441 22.4786C38.6166 12.9424 32.0554 3.98737 22.5179 2.51487V2.51362Z" fill="#299B46"/>
</svg>
