<svg width="40" height="40" viewBox="0 0 40 40" fill="none" xmlns="http://www.w3.org/2000/svg">
<path d="M14.1721 2.64368C14.2735 2.64293 14.3749 2.64218 14.4795 2.64141C14.59 2.64103 14.7006 2.64069 14.8112 2.6404C14.925 2.63995 15.0389 2.6395 15.1527 2.63905C15.3913 2.63823 15.6299 2.63777 15.8685 2.6375C16.1732 2.63707 16.4779 2.6352 16.7826 2.63297C17.0178 2.63151 17.253 2.63111 17.4882 2.63099C17.6004 2.63075 17.7127 2.63013 17.825 2.6291C19.0516 2.61865 19.0516 2.61865 19.5899 3.07131C19.9973 3.55796 20.0422 3.96799 20.0272 4.58651C19.9904 4.93551 19.9381 5.06859 19.6876 5.31252C19.3153 5.56632 19.0286 5.56939 18.5938 5.54689C18.5974 5.60823 18.6011 5.66956 18.6048 5.73275C18.623 6.26363 18.627 6.6147 18.2813 7.03127C18.0299 7.19014 17.8006 7.26564 17.5001 7.26564C17.5001 7.70393 17.5001 8.14221 17.5001 8.59377C17.6525 8.59014 17.805 8.58652 17.9621 8.58278C18.1629 8.57985 18.3637 8.57701 18.5645 8.57424C18.6649 8.57162 18.7653 8.569 18.8688 8.5663C19.7021 8.55767 19.7021 8.55767 19.9836 8.73598C20.1563 8.90627 20.1563 8.90627 20.293 9.15041C20.5254 9.44728 20.6979 9.44014 21.0572 9.49404C21.4448 9.56886 21.6615 9.771 21.8995 10.0733C22.0208 10.2934 22.0803 10.4556 22.1094 10.7031C22.3672 10.7031 22.6251 10.7031 22.8907 10.7031C22.8955 10.621 22.9004 10.5388 22.9053 10.4541C22.9799 10.1044 23.0884 9.99042 23.3594 9.76565C23.9476 9.47158 24.8811 9.7353 25.4688 9.9219C25.7144 10.0614 25.8871 10.2115 26.0157 10.4688C26.0275 10.6733 26.0338 10.8745 26.0352 11.0791C26.0376 11.1626 26.0376 11.1626 26.0401 11.2477C26.0427 11.6031 26.0146 11.8364 25.7813 12.1094C25.4469 12.319 25.1167 12.4011 24.7315 12.4756C24.6333 12.4952 24.5351 12.5149 24.434 12.5351C24.0243 12.5952 23.7129 12.64 23.3399 12.4463C23.1243 12.265 23.0058 12.1308 22.8907 11.875C22.8907 11.7719 22.8907 11.6688 22.8907 11.5625C22.6189 11.5542 22.3712 11.5628 22.1094 11.6406C21.9907 11.7884 21.936 11.9275 21.868 12.1039C21.7465 12.3804 21.5788 12.4892 21.3282 12.6563C21.0073 12.7745 20.7323 12.8332 20.3907 12.8125C20.3859 12.856 20.381 12.8995 20.376 12.9444C20.2827 13.21 20.1378 13.3382 19.9219 13.5156C19.6738 13.566 19.6738 13.566 19.4532 13.5938C19.5359 14.3561 19.5359 14.3561 19.9219 15C20.3069 15.2968 20.5901 15.3977 21.0679 15.4044C21.1377 15.4062 21.2076 15.4081 21.2795 15.41C21.4243 15.4133 21.5692 15.4158 21.7141 15.4173C22.4682 15.4406 23.1306 15.7155 23.6719 16.25C24.1599 16.9046 24.3207 17.5074 24.3178 18.3084C24.3182 18.3804 24.3185 18.4523 24.3189 18.5265C24.3199 18.7668 24.3198 19.0071 24.3196 19.2474C24.3201 19.42 24.3206 19.5927 24.3212 19.7653C24.3226 20.2337 24.323 20.7022 24.3231 21.1706C24.3232 21.4635 24.3235 21.7563 24.3239 22.0492C24.3253 23.0186 24.326 23.9881 24.3259 24.9576C24.3259 25.0098 24.3259 25.062 24.3259 25.1158C24.3259 25.168 24.3259 25.2203 24.3259 25.2741C24.3258 26.1208 24.3273 26.9673 24.3295 27.8139C24.3318 28.6845 24.3328 29.5551 24.3327 30.4257C24.3327 30.9139 24.3331 31.4021 24.3348 31.8904C24.3363 32.3498 24.3363 32.8092 24.3351 33.2685C24.335 33.4368 24.3353 33.605 24.3363 33.7732C24.342 34.8608 24.3436 35.8087 23.5483 36.6397C22.9564 37.1322 22.3076 37.3527 21.5477 37.3547C21.4503 37.3552 21.353 37.3556 21.2527 37.3561C21.1454 37.3562 21.0381 37.3563 20.9308 37.3564C20.8173 37.3567 20.7038 37.3571 20.5904 37.3575C20.2825 37.3586 19.9747 37.3591 19.6669 37.3594C19.4743 37.3596 19.2817 37.36 19.0891 37.3603C18.4858 37.3614 17.8826 37.3621 17.2793 37.3624C16.5843 37.3628 15.8893 37.3642 15.1943 37.3664C14.6562 37.3681 14.1181 37.3689 13.58 37.369C13.2591 37.3691 12.9381 37.3695 12.6171 37.3709C12.3149 37.3722 12.0127 37.3724 11.7105 37.3717C11.6001 37.3717 11.4897 37.372 11.3793 37.3728C10.3404 37.3796 9.6166 37.2377 8.8526 36.5161C8.32567 35.9576 8.15567 35.2953 8.1635 34.5446C8.16302 34.4715 8.16253 34.3983 8.16203 34.3229C8.16079 34.0799 8.16176 33.8369 8.16275 33.5939C8.16233 33.4188 8.16177 33.2437 8.16109 33.0686C8.15967 32.5945 8.16022 32.1205 8.16121 31.6464C8.162 31.1495 8.16127 30.6526 8.16078 30.1557C8.16017 29.268 8.16114 28.3803 8.16273 27.4926C8.16413 26.689 8.16389 25.8853 8.16245 25.0816C8.16077 24.1467 8.16015 23.2117 8.16107 22.2768C8.16156 21.7825 8.16163 21.2882 8.16059 20.7939C8.15969 20.3291 8.16032 19.8643 8.16212 19.3996C8.16254 19.2293 8.16242 19.0591 8.16173 18.8888C8.16087 18.6558 8.16195 18.4228 8.1635 18.1898C8.16281 18.123 8.16211 18.0562 8.16139 17.9874C8.17102 17.2382 8.45117 16.6333 8.96155 16.0922C9.38724 15.7246 9.93072 15.4653 10.4963 15.4523C10.5628 15.4501 10.6294 15.4479 10.698 15.4456C10.8363 15.4416 10.9747 15.4381 11.113 15.4352C11.6033 15.4176 12.1524 15.3779 12.5463 15.054C12.9305 14.6247 12.9902 14.1427 13.0469 13.5938C12.9776 13.5889 12.9084 13.5841 12.837 13.5791C12.5087 13.4986 12.3982 13.387 12.1876 13.125C12.1004 12.9459 12.0286 12.7628 11.9532 12.5781C10.091 12.2651 10.091 12.2651 8.36306 12.8185C7.70439 13.347 7.13768 13.9964 6.62023 14.6616C6.31017 15.0514 5.96843 15.3334 5.46399 15.4175C5.09291 15.4343 4.83539 15.3633 4.53131 15.1563C4.15594 14.777 3.89605 14.5101 3.8819 13.9649C3.87898 13.892 3.87606 13.819 3.87305 13.7439C3.95402 13.1883 4.45416 12.7842 4.8316 12.4024C4.89136 12.3417 4.95113 12.2811 5.0127 12.2186C5.13908 12.0907 5.2657 11.9631 5.39252 11.8357C5.5843 11.6424 5.77435 11.4475 5.96442 11.2525C6.8925 10.3115 7.60843 9.69574 8.98032 9.67865C9.12248 9.67866 9.26464 9.67909 9.4068 9.67989C9.48221 9.68 9.55763 9.68011 9.63533 9.68023C9.8741 9.68066 10.1129 9.68164 10.3516 9.68264C10.5144 9.68303 10.6771 9.68339 10.8399 9.68371C11.237 9.68456 11.6342 9.68591 12.0313 9.68752C12.0405 9.61541 12.0496 9.54331 12.0591 9.46901C12.1252 9.14067 12.2682 8.98726 12.5001 8.75002C12.7709 8.57166 13.002 8.57561 13.3216 8.57851C13.4193 8.57901 13.517 8.57952 13.6176 8.58004C13.7193 8.58135 13.821 8.58266 13.9258 8.584C14.0288 8.58471 14.1317 8.58541 14.2377 8.58614C14.4918 8.58798 14.746 8.59078 15.0001 8.59377C15.0001 8.15549 15.0001 7.71721 15.0001 7.26564C14.8196 7.23986 14.6391 7.21408 14.4532 7.18752C14.2015 6.98062 14.025 6.78733 13.9063 6.48439C13.8911 6.2488 13.8911 6.2488 13.8965 5.99611C13.898 5.91192 13.8994 5.82773 13.9008 5.74099C13.9026 5.67694 13.9044 5.61289 13.9063 5.54689C13.7661 5.55415 13.7661 5.55415 13.6231 5.56154C13.1942 5.55927 12.9355 5.43219 12.627 5.13186C12.3849 4.72598 12.4501 4.20066 12.5001 3.75002C12.616 3.30884 12.8465 3.0561 13.2203 2.8055C13.5302 2.64715 13.828 2.64574 14.1721 2.64368ZM13.4522 3.80373C13.3226 4.05604 13.3336 4.25204 13.3594 4.53127C13.5803 4.7521 13.7236 4.70734 14.033 4.70774C14.0861 4.70801 14.1392 4.70828 14.1939 4.70857C14.3699 4.70926 14.5458 4.7088 14.7217 4.70827C14.8438 4.70838 14.9658 4.70853 15.0878 4.70872C15.3437 4.70895 15.5995 4.70862 15.8554 4.70789C16.1838 4.707 16.5122 4.70751 16.8406 4.70845C17.0926 4.70901 17.3446 4.70883 17.5966 4.70843C17.7177 4.70832 17.8388 4.70845 17.9599 4.70882C18.129 4.70921 18.2981 4.70861 18.4672 4.70774C18.5635 4.70761 18.6598 4.70749 18.7591 4.70736C18.9945 4.71095 18.9945 4.71095 19.1407 4.53127C19.1514 4.36595 19.1514 4.36595 19.126 4.18459C19.1201 4.12346 19.1142 4.06233 19.108 3.99935C19.0538 3.79513 18.9962 3.7201 18.8282 3.59377C18.574 3.51087 18.3367 3.5053 18.0705 3.5043C17.9363 3.50355 17.9363 3.50355 17.7994 3.50279C17.655 3.50265 17.655 3.50265 17.5077 3.50252C17.4085 3.50226 17.3093 3.502 17.2071 3.50173C16.9972 3.50134 16.7874 3.50112 16.5776 3.50117C16.3093 3.50118 16.041 3.50011 15.7727 3.49876C15.5161 3.49768 15.2595 3.49773 15.0028 3.49764C14.9067 3.49708 14.8106 3.49652 14.7115 3.49594C14.6219 3.49618 14.5322 3.49642 14.4398 3.49667C14.3611 3.49655 14.2824 3.49644 14.2013 3.49633C13.899 3.52325 13.6754 3.59591 13.4522 3.80373ZM14.7657 5.54689C14.7657 5.77893 14.7657 6.01096 14.7657 6.25002C14.9054 6.38973 15.0935 6.33818 15.2795 6.339C15.3403 6.33884 15.4012 6.33868 15.4639 6.33852C15.5571 6.33863 15.5571 6.33863 15.6522 6.33875C15.7838 6.3388 15.9154 6.33866 16.047 6.33833C16.2492 6.33791 16.4513 6.33833 16.6535 6.33883C16.7811 6.33877 16.9086 6.33867 17.0362 6.33852C17.0971 6.33868 17.1579 6.33884 17.2207 6.339C17.5007 6.36396 17.5007 6.36396 17.7344 6.25002C17.7344 6.01799 17.7344 5.78596 17.7344 5.54689C16.7547 5.54689 15.7751 5.54689 14.7657 5.54689ZM15.8594 7.26564C15.8594 7.70393 15.8594 8.14221 15.8594 8.59377C16.1172 8.59377 16.3751 8.59377 16.6407 8.59377C16.6407 8.15549 16.6407 7.71721 16.6407 7.26564C16.3829 7.26564 16.1251 7.26564 15.8594 7.26564ZM12.8907 9.6094C12.8679 9.83478 12.8598 10.0431 12.8623 10.2686C12.8623 10.3339 12.8622 10.3992 12.8622 10.4665C12.8624 10.6046 12.8631 10.7428 12.8644 10.881C12.8663 11.0929 12.866 11.3048 12.8655 11.5167C12.8659 11.6508 12.8665 11.7849 12.8672 11.919C12.8671 11.9826 12.867 12.0462 12.867 12.1118C12.8572 12.46 12.8572 12.46 13.0469 12.7344C13.2508 12.7499 13.4463 12.7557 13.6503 12.7546C13.7437 12.755 13.7437 12.755 13.8389 12.7554C14.0453 12.7561 14.2517 12.7557 14.4581 12.7551C14.6011 12.7553 14.7441 12.7554 14.8872 12.7556C15.1872 12.7558 15.4872 12.7555 15.7872 12.7548C16.1723 12.7539 16.5575 12.7544 16.9426 12.7553C17.2381 12.7559 17.5335 12.7557 17.8289 12.7553C17.9709 12.7552 18.113 12.7553 18.255 12.7557C18.4533 12.7561 18.6516 12.7555 18.8499 12.7546C18.9089 12.7549 18.968 12.7552 19.0289 12.7556C19.3548 12.7636 19.3548 12.7636 19.6094 12.5781C19.626 12.3624 19.6332 12.1547 19.6329 11.9388C19.6334 11.8437 19.6334 11.8437 19.6339 11.7467C19.6344 11.6126 19.6344 11.4784 19.6341 11.3442C19.6339 11.1388 19.6357 10.9334 19.6377 10.728C19.6378 10.5978 19.6379 10.4675 19.6378 10.3372C19.6385 10.2757 19.6393 10.2142 19.64 10.1508C19.6414 9.83823 19.6414 9.83823 19.5277 9.55406C19.2924 9.39848 19.0512 9.42121 18.7784 9.42406C18.7178 9.42377 18.6572 9.42349 18.5948 9.42319C18.3942 9.42256 18.1937 9.42362 17.9932 9.42476C17.854 9.4248 17.7148 9.42476 17.5755 9.42465C17.2837 9.42465 16.9918 9.42547 16.7 9.42688C16.3256 9.42865 15.9512 9.4287 15.5769 9.42817C15.2893 9.42791 15.0018 9.42843 14.7143 9.42919C14.5763 9.42949 14.4382 9.42958 14.3002 9.42946C14.1073 9.42943 13.9145 9.43042 13.7217 9.43169C13.6644 9.43149 13.6072 9.4313 13.5483 9.4311C13.2598 9.43414 13.1373 9.44497 12.8907 9.6094ZM20.5469 10.3125C20.5469 10.8281 20.5469 11.3438 20.5469 11.875C20.9982 11.8495 20.9982 11.8495 21.1622 11.6358C21.2972 11.2831 21.3071 10.9619 21.1915 10.5957C21.07 10.4379 20.9677 10.3803 20.7813 10.3125C20.704 10.3125 20.6266 10.3125 20.5469 10.3125ZM23.8282 10.5469C23.7262 10.6314 23.7262 10.6314 23.7397 10.835C23.7399 10.9204 23.7401 11.0058 23.7403 11.0938C23.7401 11.1792 23.7399 11.2646 23.7397 11.3526C23.7262 11.5561 23.7262 11.5561 23.8282 11.6406C24.2878 11.6305 24.728 11.5799 25.1563 11.4063C25.1563 11.2 25.1563 10.9938 25.1563 10.7813C24.9937 10.7418 24.8309 10.7028 24.668 10.6641C24.5774 10.6423 24.4868 10.6206 24.3934 10.5982C24.1326 10.5365 24.1326 10.5365 23.8282 10.5469ZM5.99732 12.4953C5.90123 12.5905 5.80478 12.6853 5.70801 12.7798C5.56637 12.9181 5.42579 13.0575 5.2854 13.197C5.22047 13.2599 5.22047 13.2599 5.15423 13.3241C4.92282 13.5568 4.77174 13.7261 4.76569 14.0625C4.8973 14.277 4.99342 14.4181 5.22936 14.5156C5.39156 14.547 5.39156 14.547 5.51844 14.4588C5.58481 14.3965 5.58481 14.3965 5.65253 14.3329C5.70683 14.2822 5.76114 14.2315 5.81709 14.1793C6.26116 13.7434 6.70109 13.3037 7.13873 12.8613C7.33606 12.6619 7.53364 12.4628 7.73138 12.2638C7.77647 12.2181 7.82155 12.1724 7.868 12.1252C8.16033 11.8311 8.29575 11.7106 8.70707 11.7027C8.77901 11.7012 8.85094 11.6996 8.92506 11.698C9.00287 11.6967 9.08067 11.6954 9.16083 11.6941C9.24037 11.6924 9.31992 11.6908 9.40188 11.6891C9.6566 11.684 9.91134 11.6794 10.1661 11.6748C10.3385 11.6715 10.5109 11.668 10.6833 11.6646C11.1066 11.6562 11.5299 11.6483 11.9532 11.6406C11.9532 11.3055 11.9532 10.9703 11.9532 10.625C11.4277 10.6192 10.9023 10.615 10.3768 10.6121C10.1981 10.611 10.0194 10.6094 9.84072 10.6073C9.58357 10.6045 9.32644 10.6032 9.06927 10.6021C8.98967 10.6009 8.91006 10.5997 8.82804 10.5985C7.60044 10.5982 6.81431 11.6837 5.99732 12.4953ZM13.9063 13.6719C13.8547 14.0586 13.8032 14.4453 13.7501 14.8438C13.476 15.4387 13.1753 15.811 12.5782 16.0938C12.07 16.2751 11.5851 16.279 11.0525 16.2874C10.519 16.3041 10.0705 16.3736 9.65155 16.7227C9.57753 16.8102 9.57753 16.8102 9.50201 16.8994C9.45146 16.9571 9.4009 17.0148 9.34882 17.0743C9.05293 17.5098 9.0399 17.9344 9.04219 18.442C9.0419 18.5125 9.0416 18.583 9.04129 18.6556C9.04048 18.8913 9.04079 19.1269 9.0411 19.3626C9.04076 19.5318 9.04036 19.7009 9.03989 19.8701C9.03885 20.3293 9.0388 20.7885 9.039 21.2478C9.03908 21.6312 9.0387 22.0147 9.03833 22.3981C9.03746 23.3028 9.03743 24.2074 9.0379 25.1121C9.03837 26.0452 9.03741 26.9783 9.03574 27.9114C9.03437 28.7127 9.0339 29.514 9.03415 30.3153C9.0343 30.7938 9.03409 31.2722 9.033 31.7507C9.03202 32.2008 9.03217 32.6508 9.03319 33.1008C9.03338 33.2658 9.03316 33.4309 9.03252 33.5959C9.0317 33.8215 9.03233 34.047 9.03333 34.2725C9.03275 34.3376 9.03217 34.4026 9.03158 34.4696C9.03657 35.0113 9.16103 35.4231 9.46783 35.8789C9.9554 36.3557 10.4929 36.4937 11.1636 36.4948C11.2558 36.4952 11.348 36.4955 11.443 36.4959C11.5435 36.4958 11.644 36.4958 11.7476 36.4957C11.855 36.496 11.9625 36.4962 12.0699 36.4965C12.3613 36.4972 12.6526 36.4974 12.944 36.4975C13.1263 36.4975 13.3085 36.4977 13.4908 36.4979C14.1273 36.4986 14.7639 36.4989 15.4004 36.4989C15.9926 36.4988 16.5848 36.4997 17.1771 36.5009C17.6864 36.5019 18.1957 36.5023 18.705 36.5023C19.0088 36.5023 19.3126 36.5025 19.6164 36.5033C19.9024 36.5041 20.1883 36.5041 20.4743 36.5035C20.6284 36.5034 20.7825 36.504 20.9366 36.5047C21.7505 36.5018 22.4446 36.4576 23.0469 35.8594C23.4154 35.3663 23.4492 34.9122 23.4491 34.3152C23.4493 34.2453 23.4496 34.1754 23.4499 34.1034C23.4508 33.8686 23.4511 33.6339 23.4514 33.3992C23.4519 33.2311 23.4524 33.063 23.4529 32.8948C23.4546 32.3423 23.4554 31.7898 23.4562 31.2372C23.4565 31.0469 23.4568 30.8567 23.4571 30.6664C23.4586 29.7725 23.4597 28.8786 23.4604 27.9846C23.4612 26.953 23.4632 25.9215 23.4664 24.8899C23.4687 24.0924 23.4699 23.2948 23.4701 22.4973C23.4703 22.0211 23.471 21.5449 23.473 21.0686C23.4748 20.6204 23.4751 20.1722 23.4743 19.7239C23.4743 19.5597 23.4748 19.3955 23.4759 19.2313C23.509 17.9607 23.509 17.9607 22.9743 16.8408C22.9242 16.8006 22.874 16.7603 22.8223 16.7188C22.7726 16.6769 22.7228 16.635 22.6716 16.5918C22.167 16.2758 21.638 16.2999 21.0631 16.2908C20.3183 16.2675 19.6799 16.0802 19.1407 15.5469C18.6713 14.9787 18.6948 14.4291 18.5938 13.6719C17.0469 13.6719 15.5001 13.6719 13.9063 13.6719Z" fill="white"/>
<path d="M12.1496 19.7353C12.248 19.7349 12.3464 19.7345 12.4477 19.734C12.7166 19.733 12.9855 19.7334 13.2545 19.7341C13.5364 19.7347 13.8183 19.7342 14.1002 19.7338C14.5736 19.7334 15.047 19.7339 15.5204 19.7351C16.067 19.7363 16.6136 19.7359 17.1603 19.7346C17.6303 19.7336 18.1003 19.7334 18.5704 19.734C18.8508 19.7344 19.1312 19.7344 19.4116 19.7337C19.7243 19.7329 20.037 19.734 20.3497 19.7353C20.4422 19.7348 20.5348 19.7343 20.6301 19.7339C21.152 19.7379 21.5355 19.7646 21.9393 20.1288C21.976 20.1733 22.0127 20.2178 22.0504 20.2637C22.0879 20.3078 22.1254 20.3519 22.164 20.3973C22.3832 20.7209 22.4411 21.0084 22.4424 21.3955C22.4434 21.533 22.4434 21.533 22.4444 21.6733C22.4443 21.8231 22.4443 21.8231 22.4442 21.9759C22.4447 22.0827 22.4452 22.1896 22.4458 22.2964C22.4472 22.5859 22.4476 22.8755 22.4477 23.1651C22.4478 23.3462 22.4481 23.5273 22.4485 23.7085C22.45 24.3409 22.4506 24.9732 22.4505 25.6056C22.4504 26.1942 22.452 26.7828 22.4545 27.3714C22.4565 27.8774 22.4574 28.3835 22.4573 28.8895C22.4572 29.1914 22.4577 29.4934 22.4593 29.7953C22.4609 30.0794 22.4609 30.3635 22.4597 30.6477C22.4595 30.8009 22.4608 30.9542 22.4621 31.1075C22.4577 31.73 22.4045 32.1958 21.9528 32.6608C21.9012 32.6964 21.8496 32.7319 21.7965 32.7685C21.745 32.8055 21.6934 32.8425 21.6403 32.8805C21.3546 33.0418 21.0886 33.0568 20.7644 33.0578C20.6409 33.0585 20.6409 33.0585 20.5149 33.0592C20.4249 33.0593 20.335 33.0594 20.2423 33.0595C20.1473 33.0598 20.0522 33.0602 19.9543 33.0606C19.6938 33.0616 19.4332 33.0622 19.1727 33.0625C19.0097 33.0627 18.8468 33.0631 18.6838 33.0634C18.1734 33.0645 17.663 33.0652 17.1526 33.0655C16.5644 33.0659 15.9762 33.0673 15.388 33.0695C14.9327 33.0712 14.4775 33.072 14.0222 33.0721C13.7505 33.0722 13.4789 33.0726 13.2073 33.074C12.904 33.0756 12.6007 33.0752 12.2974 33.0747C12.1634 33.0758 12.1634 33.0758 12.0268 33.0769C11.4786 33.074 10.9872 33.0442 10.5447 32.6837C10.4924 32.6169 10.4924 32.6169 10.4391 32.5488C10.385 32.4827 10.385 32.4827 10.3298 32.4152C10.1188 32.0858 10.0582 31.8016 10.0574 31.413C10.0569 31.3204 10.0563 31.2279 10.0557 31.1325C10.0559 31.0317 10.0561 30.9308 10.0563 30.8269C10.056 30.7191 10.0556 30.6112 10.0551 30.5034C10.0541 30.2111 10.054 29.9188 10.0542 29.6264C10.0543 29.3822 10.0539 29.138 10.0535 28.8937C10.0527 28.3175 10.0526 27.7412 10.0531 27.1649C10.0536 26.5708 10.0526 25.9767 10.051 25.3826C10.0496 24.8721 10.0491 24.3616 10.0494 23.8512C10.0495 23.5464 10.0493 23.2417 10.0482 22.937C10.0472 22.6505 10.0474 22.3639 10.0484 22.0773C10.0487 21.9224 10.0478 21.7674 10.0469 21.6124C10.0474 21.5196 10.048 21.4269 10.0485 21.3313C10.0485 21.251 10.0485 21.1707 10.0485 21.088C10.1088 20.6171 10.3502 20.3034 10.7028 20C11.1569 19.6915 11.6213 19.7326 12.1496 19.7353ZM11.0153 20.9375C10.9353 21.1775 10.9266 21.3429 10.9251 21.5943C10.9245 21.6821 10.9238 21.7698 10.9231 21.8602C10.9228 21.9565 10.9224 22.0528 10.9221 22.152C10.9214 22.2534 10.9208 22.3548 10.9201 22.4593C10.9181 22.7956 10.9169 23.132 10.9158 23.4683C10.9154 23.5842 10.9149 23.7 10.9145 23.8159C10.9128 24.2978 10.9114 24.7798 10.9105 25.2617C10.9092 25.9521 10.9066 26.6424 10.9022 27.3328C10.8992 27.8184 10.8976 28.304 10.8972 28.7896C10.8969 29.0796 10.896 29.3695 10.8935 29.6595C10.8907 29.983 10.891 30.3065 10.8916 30.6301C10.8903 30.726 10.889 30.8218 10.8877 30.9205C10.8845 31.4514 10.8845 31.4514 11.0764 31.9345C11.4615 32.2024 11.8119 32.1736 12.2708 32.1675C12.3664 32.1681 12.4619 32.1687 12.5604 32.1693C12.8219 32.1703 13.0833 32.1693 13.3448 32.1672C13.6187 32.1654 13.8926 32.1661 14.1664 32.1664C14.6262 32.1665 15.086 32.1648 15.5458 32.1619C16.0772 32.1586 16.6086 32.158 17.1401 32.159C17.6516 32.1599 18.1631 32.159 18.6747 32.1573C18.8922 32.1565 19.1098 32.1564 19.3274 32.1567C19.6312 32.1571 19.9349 32.1548 20.2386 32.1523C20.3289 32.1527 20.4192 32.1531 20.5123 32.1535C20.595 32.1523 20.6777 32.1512 20.7629 32.1501C20.8347 32.1498 20.9065 32.1495 20.9804 32.1491C21.2321 32.0968 21.3247 31.9947 21.484 31.7969C21.5636 31.5581 21.5723 31.3959 21.5731 31.146C21.5736 31.0595 21.574 30.9731 21.5745 30.8841C21.5746 30.7892 21.5746 30.6944 21.5747 30.5967C21.5751 30.4968 21.5755 30.3969 21.5759 30.294C21.5769 30.02 21.5774 29.7459 21.5778 29.4718C21.578 29.3005 21.5783 29.1292 21.5787 28.9579C21.5798 28.4218 21.5805 27.8857 21.5808 27.3496C21.5812 26.731 21.5825 26.1125 21.5848 25.4939C21.5865 25.0156 21.5873 24.5373 21.5874 24.059C21.5875 23.7734 21.5879 23.4878 21.5893 23.2022C21.5908 22.8835 21.5905 22.5648 21.59 22.2461C21.5911 22.1046 21.5911 22.1046 21.5922 21.9602C21.5959 21.3344 21.5959 21.3344 21.3278 20.7812C21.0864 20.6289 20.8983 20.6052 20.6155 20.6041C20.5348 20.6034 20.4541 20.6028 20.3709 20.6021C20.2828 20.6022 20.1947 20.6022 20.1039 20.6023C20.0107 20.6018 19.9176 20.6012 19.8216 20.6007C19.5664 20.5995 19.3112 20.599 19.056 20.5989C18.8965 20.5987 18.737 20.5984 18.5775 20.598C18.0209 20.5966 17.4642 20.5959 16.9076 20.596C16.389 20.5961 15.8704 20.5945 15.3518 20.592C14.9063 20.59 14.4607 20.5891 14.0152 20.5892C13.7492 20.5893 13.4832 20.5888 13.2173 20.5872C12.9206 20.5856 12.624 20.5861 12.3274 20.587C12.2394 20.5862 12.1515 20.5853 12.0609 20.5844C11.4701 20.5837 11.4701 20.5837 11.0153 20.9375Z" fill="white"/>
<path d="M14.6875 21.7187C15.1867 21.8742 15.4765 22.1236 15.7666 22.5537C15.8594 22.7344 15.8594 22.7344 15.8594 22.8906C16.1121 22.9101 16.3227 22.8982 16.5625 22.8125C16.7303 22.6271 16.8514 22.4386 16.9763 22.2223C17.1295 22.0024 17.2599 21.9123 17.5 21.7969C17.7137 21.7595 17.9104 21.7331 18.125 21.7187C18.2088 21.7107 18.2926 21.7026 18.3789 21.6943C18.5938 21.7187 18.5938 21.7187 18.7744 21.8506C18.924 22.0555 18.9782 22.1681 18.9844 22.4219C18.8577 22.6942 18.7684 22.8002 18.5156 22.9687C18.3326 22.9488 18.1501 22.9224 17.9688 22.8906C17.8656 22.8906 17.7625 22.8906 17.6562 22.8906C17.5541 23.0589 17.496 23.1604 17.5146 23.3594C17.5716 23.5223 17.5716 23.5223 17.6953 23.656C17.8334 23.8588 17.85 23.996 17.876 24.2383C17.9485 24.7022 18.1357 24.9647 18.4375 25.3125C18.4891 25.3898 18.5406 25.4672 18.5938 25.5469C18.8177 25.5954 18.8177 25.5954 19.0625 25.5469C19.2753 25.3987 19.2753 25.3987 19.4629 25.2002C19.8714 24.7935 19.8714 24.7935 20.1562 24.7656C20.3271 24.8096 20.3271 24.8096 20.4688 24.9219C20.5615 25.1269 20.5615 25.1269 20.5469 25.3906C20.3903 25.6252 20.1987 25.8165 20 26.0156C19.9372 26.0913 19.8743 26.1671 19.8096 26.2451C19.5327 26.4679 19.3356 26.4665 18.9844 26.4844C19.023 26.7937 19.023 26.7937 19.0625 27.1094C19.1651 27.1066 19.2677 27.1039 19.3735 27.1011C19.5091 27.0989 19.6447 27.0968 19.7803 27.0947C19.8478 27.0927 19.9153 27.0908 19.9849 27.0888C20.362 27.0844 20.6391 27.083 20.9375 27.3437C20.9766 27.5781 20.9766 27.5781 20.9375 27.8125C20.8417 27.9429 20.8417 27.9429 20.7031 28.0469C20.5259 28.0735 20.5259 28.0735 20.3214 28.0697C20.2481 28.069 20.1748 28.0682 20.0993 28.0675C20.023 28.0655 19.9468 28.0635 19.8682 28.0615C19.791 28.0604 19.7138 28.0594 19.6342 28.0583C19.4436 28.0555 19.2531 28.0517 19.0625 28.0469C19.0641 28.121 19.0657 28.1951 19.0674 28.2715C19.0625 28.5156 19.0625 28.5156 18.9844 28.6719C19.0617 28.6735 19.1391 28.6751 19.2188 28.6767C19.6307 28.7351 19.8745 29.011 20.1562 29.2969C20.1988 29.3377 20.2414 29.3786 20.2853 29.4208C20.4828 29.6275 20.5476 29.7299 20.542 30.0195C20.4688 30.2344 20.4688 30.2344 20.3125 30.3906C20.0844 30.3997 19.9717 30.3978 19.7656 30.3125C19.61 30.1675 19.61 30.1675 19.4531 29.9951C19.2482 29.7784 19.1618 29.6944 18.8721 29.5996C18.4874 29.7211 18.3316 29.9586 18.0786 30.264C17.6676 30.7116 17.1591 30.9878 16.5546 31.0342C15.5681 31.055 15.0258 30.8472 14.3069 30.1733C14.1406 30 14.1406 30 14.0167 29.8254C13.9083 29.661 13.9083 29.661 13.6572 29.6289C13.2697 29.7051 13.1488 29.8835 12.8897 30.1672C12.7344 30.3125 12.7344 30.3125 12.4365 30.4053C12.1875 30.3906 12.1875 30.3906 12.0312 30.3125C11.9366 30.1231 11.9213 29.9769 11.9608 29.7687C12.1573 29.3245 12.5908 28.9956 12.9932 28.7451C13.2031 28.6719 13.2031 28.6719 13.5156 28.6719C13.477 28.5945 13.477 28.5945 13.4375 28.5156C13.4344 28.3594 13.4341 28.2031 13.4375 28.0469C13.389 28.0481 13.3406 28.0493 13.2906 28.0506C13.071 28.0554 12.8515 28.0585 12.6318 28.0615C12.5555 28.0635 12.4793 28.0654 12.4007 28.0675C12.3274 28.0682 12.2541 28.069 12.1786 28.0697C12.0774 28.0716 12.0774 28.0716 11.9741 28.0735C11.7969 28.0469 11.7969 28.0469 11.6583 27.9429C11.5625 27.8125 11.5625 27.8125 11.5234 27.5781C11.5625 27.3437 11.5625 27.3437 11.7148 27.2153C12.0381 27.0716 12.3304 27.0653 12.6807 27.0556C12.746 27.053 12.8113 27.0503 12.8786 27.0476C13.0388 27.0412 13.1991 27.0361 13.3594 27.0312C13.4109 26.8508 13.4625 26.6703 13.5156 26.4844C13.4512 26.4956 13.3867 26.5069 13.3203 26.5185C12.9079 26.467 12.7102 26.2207 12.4219 25.9375C12.3743 25.8965 12.3268 25.8555 12.2778 25.8133C12.0647 25.6238 11.9602 25.5013 11.8994 25.2197C11.9531 25 11.9531 25 12.124 24.8437C12.3438 24.7656 12.3438 24.7656 12.5339 24.819C12.7552 24.9325 12.8741 25.0529 13.0371 25.2392C13.2416 25.4542 13.3733 25.5857 13.6719 25.625C13.7492 25.625 13.8266 25.625 13.9062 25.625C13.9328 25.5404 13.9328 25.5404 13.96 25.4541C14.0625 25.2344 14.0625 25.2344 14.2578 25.0683C14.5063 24.7826 14.5125 24.5683 14.5618 24.2016C14.6124 23.9705 14.6876 23.8384 14.8242 23.6474C14.9303 23.505 14.9303 23.505 15 23.3594C14.9608 23.091 14.9608 23.091 14.8438 22.8906C14.5362 22.8815 14.5362 22.8815 14.2578 22.9394C13.9841 22.9688 13.8854 22.9786 13.6719 22.8125C13.5093 22.6034 13.5159 22.4908 13.5254 22.2217C13.5938 21.9531 13.5938 21.9531 13.7308 21.821C14.0364 21.6429 14.3444 21.6801 14.6875 21.7187ZM16.1719 24.1406C16.1203 24.1922 16.0687 24.2437 16.0156 24.2969C15.8342 24.3281 15.6518 24.3546 15.4688 24.375C15.4488 24.7917 15.4488 24.7917 15.625 25.1562C15.8341 25.3189 15.9837 25.3852 16.2451 25.4297C16.582 25.3747 16.71 25.2374 16.9531 25C17.0686 24.769 17.036 24.5514 17.0312 24.2969C16.9475 24.3001 16.8637 24.3033 16.7773 24.3066C16.5111 24.2978 16.39 24.2802 16.1719 24.1406ZM14.9219 25.7031C14.8461 25.8082 14.7714 25.9142 14.6973 26.0205C14.6556 26.0794 14.6139 26.1383 14.5709 26.199C14.1831 26.8812 14.1743 27.8063 14.368 28.5568C14.6548 29.2881 15.0187 29.7622 15.7416 30.087C16.2043 30.2506 16.5184 30.1948 16.9629 29.9951C17.63 29.6298 17.9397 29.0838 18.1708 28.3752C18.3135 27.6159 18.2666 26.776 17.8906 26.0937C17.7689 25.9364 17.656 25.8287 17.5 25.7031C17.4632 25.7304 17.4265 25.7577 17.3886 25.7858C17.34 25.8214 17.2913 25.8569 17.2412 25.8935C17.1932 25.9289 17.1451 25.9642 17.0956 26.0007C16.7056 26.2554 16.2281 26.2143 15.7812 26.1719C15.4598 26.0642 15.2024 25.8901 14.9219 25.7031Z" fill="white"/>
<path d="M31.5622 7.81256C31.7184 7.96881 31.7184 7.96881 31.7526 8.23736C31.7184 8.51568 31.7184 8.51568 31.5475 8.65728C31.475 8.6879 31.4025 8.71852 31.3278 8.75006C31.2336 8.7984 31.2336 8.7984 31.1374 8.84771C30.8898 8.92019 30.7171 8.88602 30.4684 8.82818C30.3005 8.41774 30.3005 8.41774 30.3464 8.18853C30.6612 7.82329 31.1051 7.76775 31.5622 7.81256Z" fill="white"/>
<path d="M33.6719 7.10939C33.7836 7.33292 33.7802 7.48752 33.75 7.73439C33.5791 7.87111 33.5791 7.87111 33.3594 7.96877C33.2651 8.01711 33.2651 8.01711 33.1689 8.06642C32.9152 8.14068 32.7527 8.1199 32.5 8.04689C32.3438 7.81252 32.3438 7.81252 32.3291 7.58302C32.4365 7.30618 32.4867 7.27965 32.7441 7.15334C33.0909 7.01983 33.3163 7.00569 33.6719 7.10939Z" fill="white"/>
<path d="M29.5309 8.59381C29.6872 8.75006 29.6872 8.75006 29.697 9.03326C29.6937 9.12027 29.6905 9.20728 29.6872 9.29693C28.9952 9.69217 28.9952 9.69217 28.6227 9.67291C28.5615 9.65196 28.5003 9.63102 28.4372 9.60943C28.2693 9.19899 28.2693 9.19899 28.3151 8.96978C28.63 8.60454 29.0739 8.549 29.5309 8.59381Z" fill="white"/>
<path d="M30.7023 13.353C31.0996 13.399 31.4233 13.4544 31.7188 13.75C31.7432 13.9746 31.7432 13.9746 31.7188 14.2188C31.5919 14.3701 31.5919 14.3701 31.4063 14.4531C31.0498 14.4376 30.7742 14.3211 30.4688 14.1406C30.3126 13.9062 30.3126 13.9062 30.3321 13.7061C30.4016 13.4801 30.4526 13.3633 30.7023 13.353Z" fill="white"/>
<path d="M28.671 12.5717C29.0684 12.6178 29.392 12.6732 29.6876 12.9688C29.712 13.1934 29.712 13.1934 29.6876 13.4375C29.5606 13.5889 29.5606 13.5889 29.3751 13.6719C29.0185 13.6564 28.743 13.5398 28.4376 13.3594C28.2813 13.125 28.2813 13.125 28.3009 12.9248C28.3704 12.6989 28.4214 12.582 28.671 12.5717Z" fill="white"/>
<path d="M32.8321 14.1162C33.2163 14.1482 33.477 14.2582 33.7501 14.5312C33.7696 14.7656 33.7696 14.7656 33.7501 15C33.5938 15.1562 33.5938 15.1562 33.3448 15.1807C32.9992 15.1523 32.805 15.0833 32.5001 14.9219C32.3438 14.6875 32.3438 14.6875 32.3634 14.4873C32.4542 14.1922 32.5238 14.1459 32.8321 14.1162Z" fill="white"/>
<path d="M33.5154 10.6788C33.6137 10.6775 33.712 10.6762 33.8132 10.6748C33.8954 10.6842 33.9776 10.6935 34.0623 10.7032C34.2306 10.9557 34.2551 11.0353 34.2185 11.3282C34.1291 11.4561 34.1291 11.4561 33.9841 11.5626C33.7644 11.5909 33.7644 11.5909 33.5154 11.587C33.3921 11.5865 33.3921 11.5865 33.2664 11.5861C33.0466 11.5626 33.0466 11.5626 32.8123 11.4063C32.7878 11.1329 32.7878 11.1329 32.8123 10.8594C33.0367 10.635 33.2031 10.6797 33.5154 10.6788Z" fill="white"/>
<path d="M31.0307 10.6824C31.1781 10.683 31.1781 10.683 31.3286 10.6836C31.4269 10.6832 31.5251 10.6828 31.6264 10.6824C31.8754 10.7031 31.8754 10.7031 32.0317 10.8594C32.0749 11.2652 32.0749 11.2652 31.9423 11.4584C31.736 11.6065 31.58 11.5936 31.3286 11.5918C31.2464 11.5924 31.1642 11.593 31.0795 11.5936C30.8598 11.5625 30.8598 11.5625 30.7149 11.4584C30.5774 11.2581 30.6004 11.0952 30.6254 10.8594C30.7817 10.7031 30.7817 10.7031 31.0307 10.6824Z" fill="white"/>
<path d="M29.1356 10.6885C29.2345 10.6874 29.3335 10.6863 29.4355 10.6851C29.6873 10.7031 29.6873 10.7031 29.8436 10.8594C29.8867 11.2652 29.8867 11.2652 29.7541 11.4584C29.5479 11.6065 29.3919 11.5936 29.1404 11.5918C29.0583 11.5924 28.9761 11.593 28.8914 11.5936C28.6717 11.5625 28.6717 11.5625 28.524 11.4612C28.4373 11.3281 28.4373 11.3281 28.4568 11.0449C28.5555 10.601 28.7064 10.6906 29.1356 10.6885Z" fill="white"/>
<path d="M35.391 6.40626C35.5472 6.56251 35.5472 6.56251 35.5765 6.792C35.5472 7.03126 35.5472 7.03126 35.4252 7.17286C35.1706 7.2969 34.9714 7.33869 34.6879 7.34376C34.4926 7.2168 34.4926 7.2168 34.3754 7.03126C34.3656 6.83594 34.3656 6.83594 34.4535 6.64063C34.7771 6.35469 34.9749 6.27387 35.391 6.40626Z" fill="white"/>
<path d="M34.8779 14.8926C35.3105 14.9381 35.3105 14.9381 35.4688 15.0781C35.5943 15.5385 35.5943 15.5385 35.4639 15.7764C35.2427 15.8976 35.0927 15.8892 34.8438 15.8594C34.5879 15.7514 34.4813 15.6936 34.375 15.4346C34.375 15.2344 34.375 15.2344 34.4531 15.0537C34.6094 14.9219 34.6094 14.9219 34.8779 14.8926Z" fill="white"/>
<path d="M27.0654 11.8897C27.4812 11.9845 27.4812 11.9845 27.6562 12.1875C27.6953 12.4219 27.6953 12.4219 27.6562 12.6563C27.5293 12.8076 27.5293 12.8076 27.3438 12.8906C27.0922 12.8802 26.9163 12.8321 26.6895 12.7246C26.5625 12.5781 26.5625 12.5781 26.5283 12.2998C26.5396 12.2112 26.5509 12.1226 26.5625 12.0313C26.7969 11.875 26.7969 11.875 27.0654 11.8897Z" fill="white"/>
<path d="M27.5 9.37502C27.6562 9.53127 27.6562 9.53127 27.6807 9.76076C27.6562 10 27.6562 10 27.5488 10.1416C27.2734 10.3429 27.0559 10.3306 26.7188 10.3125C26.5625 10.1563 26.5625 10.1563 26.5283 9.88771C26.5625 9.60939 26.5625 9.60939 26.7236 9.45802C26.9992 9.35835 27.209 9.34756 27.5 9.37502Z" fill="white"/>
<path d="M35.3369 10.6824C35.4408 10.683 35.4408 10.683 35.5469 10.6836C35.6162 10.6832 35.6854 10.6828 35.7568 10.6824C35.9375 10.7031 35.9375 10.7031 36.0938 10.8594C36.119 11.0969 36.1294 11.2612 36.0156 11.4746C35.7641 11.6161 35.5112 11.6125 35.2344 11.5625C35.0342 11.4307 35.0342 11.4307 34.9219 11.25C34.9366 10.9402 34.9984 10.7213 35.3369 10.6824Z" fill="white"/>
<path d="M26.8992 10.6824C27.0031 10.683 27.0031 10.683 27.1091 10.6836C27.1784 10.6832 27.2477 10.6828 27.3191 10.6824C27.4998 10.7031 27.4998 10.7031 27.656 10.8594C27.6804 11.1328 27.6804 11.1328 27.656 11.4062C27.4218 11.5624 27.3721 11.584 27.1091 11.582C27.056 11.5824 27.0028 11.5828 26.948 11.5833C26.7966 11.5625 26.7966 11.5625 26.5623 11.4062C26.5378 11.1328 26.5378 11.1328 26.5623 10.8594C26.7185 10.7031 26.7185 10.7031 26.8992 10.6824Z" fill="white"/>
<path d="M15.7861 26.6601C16.0156 26.7187 16.0156 26.7187 16.1719 26.875C16.1977 27.1174 16.2114 27.2779 16.084 27.4902C15.8663 27.6208 15.7172 27.6143 15.4688 27.5781C15.3174 27.4511 15.3174 27.4511 15.2344 27.2656C15.2441 27.0214 15.2441 27.0214 15.3125 26.7968C15.5469 26.6406 15.5469 26.6406 15.7861 26.6601Z" fill="white"/>
<path d="M16.2209 28.7744C16.4846 28.8282 16.4846 28.8282 16.5627 28.9063C16.5917 29.3626 16.5917 29.3626 16.5627 29.5313C16.3283 29.6875 16.3283 29.6875 16.0451 29.668C15.9581 29.6487 15.8711 29.6293 15.7814 29.6094C15.6626 29.3717 15.6846 29.1677 15.7033 28.9063C15.9377 28.75 15.9377 28.75 16.2209 28.7744Z" fill="white"/>
<path d="M17.002 26.8896C17.1875 26.9531 17.1875 26.9531 17.3438 27.1093C17.3695 27.3518 17.3832 27.5123 17.2559 27.7245C17.0382 27.8551 16.8891 27.8487 16.6406 27.8124C16.4893 27.6806 16.4893 27.6806 16.4062 27.4999C16.4123 27.25 16.4502 27.1459 16.6211 26.9628C16.7969 26.8749 16.7969 26.8749 17.002 26.8896Z" fill="white"/>
<path d="M17.3047 28.1055C17.5781 28.125 17.5781 28.125 17.7344 28.2812C17.7637 28.5498 17.7637 28.5498 17.7344 28.8281C17.6025 28.9844 17.6025 28.9844 17.4219 29.0625C17.1586 29.0437 17.0634 29.0166 16.875 28.8281C16.8555 28.5547 16.8555 28.5547 16.875 28.2812C17.0312 28.125 17.0312 28.125 17.3047 28.1055Z" fill="white"/>
<path d="M15.3567 27.8125C15.5471 27.8906 15.5471 27.8906 15.6985 28.0664C15.7815 28.2812 15.7815 28.2812 15.7229 28.4961C15.6252 28.6719 15.6252 28.6719 15.5471 28.75C15.2322 28.7705 15.1128 28.773 14.844 28.5938C14.8098 28.3252 14.8098 28.3252 14.844 28.0469C15.0122 27.8475 15.0966 27.8125 15.3567 27.8125Z" fill="white"/>
</svg>
