<svg width="50" height="50" viewBox="0 0 50 50" fill="none" xmlns="http://www.w3.org/2000/svg">
<path d="M22.4429 14.6217L22.4157 14.5821L21.7809 13.7538C21.3543 13.2031 20.9237 12.6562 20.4892 12.113C20.376 11.9755 20.2425 11.8007 20.0156 11.6717C19.9031 11.6091 19.7788 11.5706 19.6506 11.5585C19.546 11.5489 19.4407 11.5489 19.336 11.5585L18.2938 11.6643C17.6007 11.7413 16.9082 11.8177 16.2162 11.9195C16.1967 11.9243 16.1795 11.9358 16.1675 11.9519C16.1555 11.968 16.1495 11.9878 16.1505 12.0079C16.1515 12.0279 16.1594 12.047 16.173 12.0619C16.1865 12.0767 16.2048 12.0864 16.2247 12.0892C16.9229 12.1238 17.62 12.1328 18.3182 12.1424L19.3609 12.1475C19.4301 12.1458 19.4993 12.1511 19.5675 12.1634C19.6128 12.171 19.6558 12.189 19.6931 12.216C19.7936 12.3005 19.8789 12.4015 19.9454 12.5147C20.3381 13.0884 20.7355 13.6599 21.1376 14.2291L21.7441 15.0778C21.7758 15.1163 21.8052 15.1564 21.8335 15.1972C20.4722 16.7774 20.8541 18.7917 20.8541 18.7917L25.0014 17.0122L29.1488 18.7917C29.1488 18.7917 29.5307 16.7774 28.1694 15.1972C28.1977 15.1564 28.2259 15.1163 28.2588 15.0778L28.8653 14.2291C29.267 13.6603 29.6644 13.0888 30.0574 12.5147C30.1239 12.4015 30.2093 12.3005 30.3098 12.216C30.347 12.189 30.39 12.171 30.4354 12.1634C30.5035 12.1511 30.5727 12.1458 30.6419 12.1475L31.6847 12.1424C32.3818 12.1328 33.0788 12.1238 33.7782 12.0892C33.7981 12.0864 33.8163 12.0767 33.8299 12.0619C33.8434 12.047 33.8514 12.0279 33.8524 12.0079C33.8534 11.9878 33.8474 11.968 33.8354 11.9519C33.8234 11.9358 33.8062 11.9243 33.7867 11.9195C33.0947 11.8177 32.4021 11.7413 31.709 11.6643L30.6668 11.5585C30.5622 11.5489 30.4569 11.5489 30.3522 11.5585C30.2241 11.5706 30.0998 11.6091 29.9873 11.6717C29.761 11.8007 29.6274 11.9755 29.5137 12.113C29.0784 12.6584 28.6478 13.2054 28.222 13.7538L27.5871 14.5821C27.5781 14.5957 27.569 14.6087 27.5594 14.6217C26.9523 14.1499 26.1257 13.7589 25.0026 13.5377C23.8772 13.7583 23.0505 14.1493 22.4429 14.6217Z" fill="#002F47"/>
<path d="M24.9994 35.3826L25.6783 35.9586C25.8994 36.1455 26.1822 36.2433 26.4715 36.2328C26.7608 36.2223 27.0358 36.1044 27.2428 35.902L30.3394 32.8744C31.1627 32.0678 31.6823 31.0018 31.8105 29.8564C31.9174 29.8519 32.017 29.8497 32.0934 29.8485H32.1851C32.3583 29.8479 32.5315 29.8586 32.7033 29.8808C32.8865 29.9022 33.0654 29.951 33.2341 30.0256C33.3996 30.0966 33.5525 30.1941 33.6867 30.3142C33.9277 30.5263 34.1569 30.8347 34.407 31.2845C34.4771 31.4062 34.5467 31.5318 34.6169 31.6602C34.7629 31.9244 34.9134 32.1977 35.0876 32.4665C35.3492 32.8624 35.6643 33.2201 36.024 33.5296C36.726 34.1413 37.5846 34.5453 38.5034 34.6963H38.5107C38.5225 34.6964 38.534 34.6923 38.543 34.6847C38.5521 34.677 38.558 34.6664 38.5599 34.6548C38.5617 34.6431 38.5593 34.6312 38.5531 34.6211C38.5469 34.6111 38.5373 34.6036 38.526 34.6001C37.7031 34.3029 36.9633 33.8132 36.368 33.172C36.0809 32.8599 35.8339 32.5132 35.6325 32.14C35.508 31.9092 35.3988 31.6664 35.2834 31.4096C35.2149 31.2568 35.1436 31.0978 35.0678 30.9394C34.8658 30.5263 34.6271 30.0907 34.2525 29.7156C33.913 29.3597 33.3868 29.0971 32.847 29.014C32.6038 28.974 32.358 28.9525 32.1115 28.9495C32.03 28.9495 31.948 28.9495 31.8682 28.9495H31.8456V26.1205L32.9302 25.2316L34.0205 24.3263C34.3872 24.0174 34.7114 23.7447 35.048 23.7311C35.2391 23.7255 35.4289 23.7642 35.6025 23.8443C35.8043 23.9335 35.9986 24.0387 36.1836 24.1589C36.5797 24.4073 36.9757 24.6641 37.3616 24.9306C38.1452 25.4517 38.8955 26.0209 39.6423 26.5997C39.6608 26.616 39.685 26.6243 39.7095 26.6227C39.7341 26.6212 39.757 26.61 39.7733 26.5915C39.7896 26.5731 39.7979 26.5489 39.7964 26.5243C39.7948 26.4998 39.7836 26.4768 39.7651 26.4605C39.4256 26.1261 39.0811 25.8003 38.7229 25.4874C38.3648 25.1745 38.0026 24.865 37.6315 24.5651C37.2603 24.2652 36.8784 23.9812 36.4914 23.7006C36.2884 23.5499 36.0726 23.4174 35.8464 23.3045C35.5934 23.1752 35.314 23.1061 35.0299 23.1025C34.8791 23.1034 34.7294 23.1273 34.5858 23.1733C34.451 23.2175 34.3212 23.2759 34.1988 23.3475C33.9851 23.48 33.7799 23.6257 33.5843 23.7838L32.4578 24.6466L31.8456 25.1173V24.0101C31.8456 23.0655 31.5782 22.1402 31.0744 21.3412L31.8043 20.4009C32.0674 20.058 32.2999 19.7553 32.5964 19.6783C32.7631 19.6355 32.9374 19.632 33.1056 19.6681C33.3004 19.7076 33.4917 19.7626 33.6777 19.8328C34.0737 19.9742 34.4698 20.1242 34.8658 20.2854C35.658 20.5921 36.4274 20.9474 37.1964 21.3129C37.2158 21.3237 37.2387 21.3264 37.2601 21.3203C37.2815 21.3142 37.2996 21.2998 37.3104 21.2804C37.3212 21.261 37.3238 21.238 37.3177 21.2166C37.3116 21.1953 37.2973 21.1772 37.2779 21.1664C36.9157 20.9401 36.5474 20.7177 36.1717 20.5117C35.796 20.3058 35.4169 20.1032 35.0327 19.9114C34.6486 19.7196 34.2565 19.5437 33.8615 19.3711C33.6538 19.2768 33.4382 19.2011 33.2171 19.1448C32.9694 19.0803 32.7101 19.0737 32.4595 19.1255C32.3269 19.1556 32.1997 19.2056 32.0821 19.2738C31.9721 19.3381 31.8693 19.414 31.7754 19.5001C31.6131 19.658 31.4608 19.8258 31.3194 20.0025L30.667 20.7765C30.387 20.445 30.065 20.1513 29.7091 19.903L26.2532 18.4194L25.4198 19.8486H24.5858L23.7523 18.4194L20.2964 19.903C19.9406 20.1513 19.6185 20.445 19.3385 20.7765L18.6861 20.0025C18.5447 19.8258 18.3924 19.658 18.2301 19.5001C18.1362 19.414 18.0334 19.3381 17.9234 19.2738C17.8058 19.2056 17.6786 19.1556 17.546 19.1255C17.2954 19.0737 17.0361 19.0803 16.7884 19.1448C16.5674 19.2011 16.3517 19.2768 16.144 19.3711C15.7479 19.5437 15.3587 19.7225 14.9728 19.9114C14.5869 20.1004 14.2084 20.3035 13.8338 20.5117C13.4593 20.72 13.0898 20.9372 12.7277 21.1664C12.7082 21.1772 12.6939 21.1953 12.6878 21.2166C12.6817 21.238 12.6843 21.261 12.6951 21.2804C12.7059 21.2998 12.724 21.3142 12.7454 21.3203C12.7668 21.3264 12.7897 21.3237 12.8091 21.3129C13.5781 20.9474 14.3493 20.5921 15.1397 20.2854C15.5318 20.1259 15.9284 19.9759 16.3279 19.8328C16.5138 19.7626 16.7051 19.7076 16.8999 19.6681C17.0681 19.632 17.2425 19.6355 17.4091 19.6783C17.7028 19.7553 17.9353 20.058 18.2012 20.4009L18.9311 21.3412C18.4273 22.1402 18.1599 23.0655 18.1599 24.0101V25.1173L17.5477 24.6415L16.4212 23.7787C16.2257 23.6206 16.0204 23.4749 15.8068 23.3424C15.6843 23.2709 15.5545 23.2124 15.4198 23.1682C15.2762 23.1222 15.1264 23.0983 14.9756 23.0974C14.6915 23.101 14.4121 23.1701 14.1591 23.2994C13.933 23.4123 13.7171 23.5448 13.5141 23.6955C13.1271 23.9761 12.7471 24.2643 12.374 24.56C12.001 24.8557 11.6372 25.1632 11.2826 25.4823C10.9245 25.7952 10.5776 26.1211 10.2404 26.4554C10.2219 26.4717 10.2107 26.4947 10.2092 26.5192C10.2076 26.5438 10.2159 26.568 10.2322 26.5864C10.2485 26.6049 10.2714 26.6161 10.296 26.6177C10.3205 26.6192 10.3447 26.6109 10.3632 26.5946C11.11 26.0158 11.8603 25.4466 12.6439 24.9255C13.0309 24.659 13.4247 24.4022 13.8219 24.1538C14.0069 24.0336 14.2012 23.9284 14.403 23.8392C14.5766 23.7591 14.7664 23.7204 14.9575 23.726C15.2941 23.7396 15.6184 24.0123 15.985 24.3213L17.0753 25.2265L18.1599 26.1154V28.9444H18.027C17.9466 28.9444 17.8646 28.9444 17.7831 28.9444C17.5367 28.9474 17.2908 28.969 17.0476 29.0089C16.5084 29.0921 15.9833 29.3546 15.6421 29.7116C15.2681 30.0867 15.0299 30.5213 14.8279 30.9337C14.7521 31.0927 14.6808 31.2511 14.6118 31.4045C14.4986 31.6613 14.3855 31.9041 14.2627 32.136C14.0612 32.5085 13.8141 32.8544 13.5271 33.1658C12.9313 33.808 12.1904 34.2982 11.3663 34.5956C11.3554 34.5994 11.3461 34.6071 11.3402 34.6172C11.3344 34.6273 11.3323 34.6391 11.3343 34.6506C11.3364 34.662 11.3424 34.6724 11.3514 34.6799C11.3603 34.6873 11.3717 34.6913 11.3833 34.6912H11.3912C12.3101 34.54 13.1686 34.1358 13.8706 33.5239C14.2302 33.215 14.5452 32.8576 14.8064 32.4619C14.9807 32.1926 15.1318 31.9193 15.2772 31.6551C15.3479 31.5267 15.4169 31.4011 15.4865 31.28C15.7377 30.8274 15.9669 30.5213 16.2074 30.3096C16.3415 30.1892 16.4944 30.0916 16.66 30.0205C16.8283 29.9459 17.0068 29.8971 17.1896 29.8757C17.3618 29.8536 17.5353 29.8428 17.709 29.8434H17.7933C17.8799 29.8434 17.9942 29.8474 18.1135 29.8525C18.1407 29.8525 18.1701 29.8525 18.1962 29.8559C18.3255 30.9996 18.845 32.0638 19.6672 32.8693L22.7639 35.8969C22.9709 36.0993 23.2459 36.2172 23.5352 36.2277C23.8245 36.2382 24.1073 36.1404 24.3283 35.9535L24.9994 35.3826ZM25.5148 23.5263H28.4626V26.4741H25.5148V23.5263ZM25.5148 27.505H28.4626V30.4528H25.5148V27.505ZM21.5361 23.5263H24.4839V26.4741H21.5361V23.5263ZM21.5361 30.4528V27.505H24.4839V30.4528H21.5361Z" fill="#002F47"/>
<path d="M45.7053 24.0058C45.4735 19.202 43.5791 14.6281 40.3463 11.0671C37.1136 7.50621 32.7436 5.17968 27.9844 4.48584V7.16149C36.5433 8.58843 43.0879 16.0445 43.0879 25.0016C43.0879 25.3354 43.0787 25.667 43.0602 25.9963H50.0003V24.0069L45.7053 24.0058Z" fill="white"/>
<path d="M24.9998 6.91233C25.3336 6.91233 25.6652 6.92252 25.9945 6.94006V5.59233V0H24.0051V4.29553C18.8552 4.52919 13.9805 6.68724 10.3455 10.3428C7.14026 13.5469 5.11525 17.6115 4.48438 22.0157H7.15949C8.58645 13.4575 16.0426 6.91233 24.9998 6.91233Z" fill="#002F47"/>
<path d="M6.91241 25C6.91241 24.6662 6.92165 24.3347 6.94014 24.0054H0V25.9941H4.29501C4.52683 30.798 6.42128 35.3719 9.65402 38.9328C12.8868 42.4938 17.2568 44.8203 22.016 45.5141V42.839C13.4576 41.4132 6.91241 33.9572 6.91241 25Z" fill="white"/>
<path d="M25.0005 43.0877C24.6667 43.0877 24.3352 43.0785 24.0059 43.06V50.0001H25.9952V45.7045C30.7991 45.473 35.3731 43.5787 38.9341 40.3461C42.4951 37.1134 44.8217 32.7435 45.5154 27.9844H42.8403C41.4139 36.5426 33.9578 43.0877 25.0005 43.0877Z" fill="#002F47"/>
<path d="M2.96314 22.0157C4.42574 11.1603 13.7496 2.76275 24.9995 2.76275C25.3327 2.76275 25.6643 2.7718 25.9941 2.78651V2.12509C25.6637 2.11095 25.3322 2.10303 24.9995 2.10303C18.8831 2.10303 13.1334 4.48447 8.80845 8.80941C5.19636 12.4226 2.93937 17.031 2.29492 22.0157H2.96314Z" fill="#002F47"/>
<path d="M27.9836 2.96644C38.839 4.4262 47.2356 13.7505 47.2356 25.0003C47.2356 25.3335 47.2271 25.6651 47.2124 25.9949H47.8732C47.8874 25.6645 47.8959 25.3329 47.8959 25.0003C47.8959 18.884 45.5144 13.1338 41.1894 8.80942C37.5762 5.19625 32.9677 2.94042 27.9824 2.29541L27.9836 2.96644Z" fill="white"/>
<path d="M22.015 47.0361C11.1595 45.5735 2.76299 36.2498 2.76299 25C2.76299 24.6662 2.77147 24.3352 2.78618 24.0054H2.12363C2.11005 24.3358 2.10156 24.6674 2.10156 25C2.10156 31.1157 4.48303 36.8659 8.80803 41.1909C12.4212 44.804 17.0297 47.0593 22.015 47.7043V47.0361Z" fill="white"/>
<path d="M47.0369 27.9844C45.5743 38.838 36.2504 47.2373 25.0005 47.2373C24.6673 47.2373 24.3357 47.2288 24.0059 47.2141V47.8749C24.3363 47.8891 24.6678 47.8976 25.0005 47.8976C31.1169 47.8976 36.8666 45.5156 41.1916 41.1912C44.8048 37.578 47.0606 32.9696 47.7051 27.9844H47.0369Z" fill="#002F47"/>
</svg>
